<?xml version="1.0" encoding="UTF-8"?>
<svg version="1.1" xmlns="http://www.w3.org/2000/svg" width="300" height="298">
<path d="M0 0 C99 0 198 0 300 0 C300 98.34 300 196.68 300 298 C201 298 102 298 0 298 C0 199.66 0 101.32 0 0 Z " fill="#FCFDFD" transform="translate(0,0)"/>
<path d="M0 0 C1.02068069 0.00015106 2.04136139 0.00030212 3.0929718 0.00045776 C4.72760628 0.01594162 4.72760628 0.01594162 6.39526367 0.03173828 C7.52018723 0.03456818 8.64511078 0.03739807 9.80412292 0.04031372 C13.39060178 0.05149242 16.97682927 0.07659315 20.56323242 0.10205078 C22.9974736 0.11208355 25.4317187 0.12120888 27.8659668 0.12939453 C33.82764084 0.15142422 39.78916867 0.18487904 45.75073242 0.22705078 C45.75659866 0.885802 45.7624649 1.54455322 45.76850891 2.2232666 C45.83262281 9.10208466 45.91708897 15.98044266 46.01318359 22.85888672 C46.04636336 25.423278 46.07441674 27.98774109 46.09716797 30.55224609 C46.13084093 34.2462412 46.1831655 37.93958238 46.23901367 41.63330078 C46.24540359 42.77319458 46.25179352 43.91308838 46.25837708 45.08752441 C46.39087487 52.32026573 46.85670679 58.6158101 51.54760742 64.46923828 C52.19213867 65.00806641 52.83666992 65.54689453 53.50073242 66.10205078 C54.13495117 66.65634766 54.76916992 67.21064453 55.42260742 67.78173828 C62.14940293 71.95776905 69.5789115 71.56376008 77.24682617 71.64111328 C78.43550797 71.66047943 79.62418976 71.67984558 80.84889221 71.69979858 C84.62860032 71.75936167 88.40833926 71.80588708 92.18823242 71.85205078 C94.75790683 71.89025193 97.32756872 71.92930489 99.8972168 71.96923828 C106.18161057 72.06504415 112.4660803 72.15015937 118.75073242 72.22705078 C118.87824572 79.02209271 118.965381 85.81682241 119.02539062 92.61279297 C119.05042559 94.92117849 119.08446396 97.22948561 119.12792969 99.53759766 C119.18906615 102.86917544 119.21705349 106.19969891 119.23901367 109.53173828 C119.2648201 110.55194061 119.29062653 111.57214294 119.31721497 112.6232605 C119.3201937 120.35501615 117.53487161 126.99509764 112.27217102 132.88058472 C104.95701568 139.35446308 96.30048508 139.37602236 87.04858398 139.41992188 C85.60832855 139.43218811 85.60832855 139.43218811 84.13897705 139.44470215 C80.97311002 139.46943943 77.80728744 139.48604123 74.64135742 139.50048828 C73.55608513 139.50581196 72.47081284 139.51113564 71.3526535 139.51662064 C65.60937712 139.54330008 59.86612208 139.56269256 54.12280273 139.57714844 C49.38172114 139.59048893 44.64106978 139.61835189 39.90014648 139.65917969 C34.16139359 139.70859037 28.42303091 139.73327941 22.6840744 139.74037552 C20.50408411 139.74707082 18.32410195 139.76224771 16.1442337 139.78626633 C13.08585157 139.81804583 10.02896429 139.81793534 6.97045898 139.81054688 C6.08076416 139.82695221 5.19106934 139.84335754 4.27441406 139.86026001 C-2.94486371 139.78931605 -9.34684604 137.60917542 -14.87316513 132.81966209 C-20.86697353 126.12312995 -21.69418724 119.49132602 -21.65332031 110.9206543 C-21.66018356 109.90835754 -21.66704681 108.89606079 -21.67411804 107.85308838 C-21.6923576 104.52056692 -21.68855251 101.1885175 -21.68286133 97.85595703 C-21.68742442 95.53099922 -21.69273038 93.20604276 -21.69874573 90.88108826 C-21.70767123 86.01319899 -21.7052599 81.14547383 -21.6953125 76.27758789 C-21.6838228 70.04895034 -21.7040378 63.82087972 -21.73322964 57.59231663 C-21.7516023 52.79237793 -21.75129701 47.99257483 -21.74559212 43.19260979 C-21.74543904 40.8965672 -21.75147212 38.60051535 -21.76388359 36.3045063 C-21.77881165 33.09025943 -21.76810232 29.87705668 -21.75097656 26.6628418 C-21.76064453 25.72077377 -21.7703125 24.77870575 -21.78027344 23.80809021 C-21.70282308 16.8431101 -20.10057821 11.53125416 -15.50317383 6.20361328 C-14.94500977 5.75759766 -14.3868457 5.31158203 -13.81176758 4.85205078 C-13.25618164 4.39056641 -12.7005957 3.92908203 -12.12817383 3.45361328 C-8.18469538 0.87928431 -4.6804679 -0.02322813 0 0 Z " fill="#028855" transform="translate(23.249267578125,157.77294921875)"/>
<path d="M0 0 C7.1165744 -0.10176424 14.2329598 -0.17161829 21.35009766 -0.21972656 C23.7691143 -0.23979065 26.18808276 -0.26704843 28.60693359 -0.30175781 C32.09224368 -0.35050341 35.57691016 -0.37302164 39.0625 -0.390625 C40.13677246 -0.41127014 41.21104492 -0.43191528 42.31787109 -0.45318604 C48.74080009 -0.45508766 53.67352495 0.23018607 59 4 C65.06355419 10.06355419 67.3237872 15.87693519 67.40658569 24.24401855 C67.39747665 25.61572205 67.39747665 25.61572205 67.38818359 27.01513672 C67.39606903 28.48728134 67.39606903 28.48728134 67.40411377 29.98916626 C67.41727036 33.21950401 67.40858948 36.4493451 67.3984375 39.6796875 C67.4004598 41.93498834 67.40337254 44.19028855 67.40713501 46.44558716 C67.41155277 51.16805254 67.40514599 55.89034744 67.39111328 60.61279297 C67.37404158 66.65068615 67.38385355 72.68817864 67.40183067 78.72605705 C67.41269997 83.38277168 67.40920737 88.03939222 67.4014473 92.69610977 C67.39945297 94.92154107 67.40187745 97.14698104 67.40888596 99.37240219 C67.41654995 102.4905211 67.40482589 105.60800248 67.38818359 108.72607422 C67.39425629 109.63649475 67.40032898 110.54691528 67.40658569 111.48492432 C67.33370964 118.89789422 65.92635863 125.08294265 61.8125 131.3125 C54.20915918 138.57791456 45.74803308 139.15057461 35.66503906 139.14526367 C34.28330505 139.15030159 34.28330505 139.15030159 32.87365723 139.15544128 C29.83763264 139.16491603 26.80166344 139.16689276 23.765625 139.16796875 C21.64581276 139.17118413 19.52600074 139.17454841 17.40618896 139.17805481 C12.96447231 139.18403766 8.52277509 139.18589561 4.08105469 139.18530273 C-1.59235598 139.18520125 -7.26564111 139.1988432 -12.93902206 139.21607494 C-17.3178158 139.22723019 -21.69657956 139.22922085 -26.07538605 139.22869301 C-28.16602256 139.2298682 -30.25665997 139.23426397 -32.34728241 139.24202538 C-35.2807629 139.25189498 -38.21397553 139.24891968 -41.14746094 139.24291992 C-42.42589874 139.25134918 -42.42589874 139.25134918 -43.73016357 139.25994873 C-51.02932278 139.22228271 -59.79098194 139.11763704 -65.375 133.875 C-65.98085937 133.33617187 -66.58671875 132.79734375 -67.2109375 132.2421875 C-72.90604422 125.104652 -73.56438909 119.13898044 -73.390625 110.28125 C-73.38213531 108.633526 -73.38213531 108.633526 -73.37347412 106.95251465 C-73.35120753 103.4678868 -73.30102752 99.98431344 -73.25 96.5 C-73.22992252 94.12761909 -73.21167394 91.75522195 -73.1953125 89.3828125 C-73.15137465 83.5881861 -73.08455981 77.79416841 -73 72 C-72.34124878 71.99413376 -71.68249756 71.98826752 -71.00378418 71.98222351 C-64.12496612 71.91810961 -57.24660812 71.83364345 -50.36816406 71.73754883 C-47.80377278 71.70436906 -45.23930969 71.67631568 -42.67480469 71.65356445 C-38.98080958 71.6198915 -35.2874684 71.56756693 -31.59375 71.51171875 C-30.4538562 71.50532883 -29.3139624 71.4989389 -28.13952637 71.49235535 C-20.18698607 71.34667144 -14.51479651 70.29813618 -7.75 65.875 C-0.90268816 58.71644671 -0.40095605 50.85004159 -0.390625 41.30859375 C-0.37408875 40.12274185 -0.35755249 38.93688995 -0.34051514 37.71510315 C-0.29222598 33.9558484 -0.27070553 30.19699766 -0.25 26.4375 C-0.22182453 23.87693301 -0.19189492 21.31638468 -0.16015625 18.75585938 C-0.08647189 12.50397913 -0.03471773 6.25221162 0 0 Z " fill="#008855" transform="translate(232,158)"/>
<path d="M0 0 C0.87742355 -0.0071553 1.75484711 -0.01431061 2.65885925 -0.02168274 C4.09117638 -0.02571609 4.09117638 -0.02571609 5.5524292 -0.02983093 C6.56428787 -0.03640213 7.57614655 -0.04297333 8.6186676 -0.04974365 C11.96735714 -0.0694546 15.31600187 -0.08113415 18.66473389 -0.09111023 C19.80949944 -0.09518576 20.95426498 -0.09926128 22.1337204 -0.10346031 C28.19239623 -0.12431123 34.25104948 -0.13861745 40.30975342 -0.147995 C46.561965 -0.15905978 52.81382073 -0.19346372 59.06590652 -0.23316669 C63.87868912 -0.25933067 68.69138686 -0.26768665 73.50423431 -0.27127647 C75.80866653 -0.27614263 78.11309495 -0.28775736 80.41745758 -0.30631447 C83.64632772 -0.33070132 86.87427611 -0.32974136 90.10321045 -0.32279968 C91.52338219 -0.34201477 91.52338219 -0.34201477 92.97224426 -0.36161804 C100.6521913 -0.30161132 106.07661866 1.83796347 111.89910889 6.83467102 C117.95835309 13.42463795 118.01050609 22.0407641 117.87957764 30.52607727 C117.87533279 31.5787529 117.87108795 32.63142853 117.86671448 33.71600342 C117.85004657 37.04749644 117.81241639 40.3783637 117.77410889 43.70967102 C117.7590467 45.9811466 117.74536099 48.25263175 117.73309326 50.52412415 C117.70018214 56.06534992 117.65010275 61.60621574 117.58660889 67.14717102 C116.5233136 67.14930855 116.5233136 67.14930855 115.4385376 67.15148926 C108.73015789 67.16938212 102.02239163 67.21118009 95.31432343 67.27926159 C91.86626128 67.31342879 88.41863733 67.3386253 84.97039795 67.34272766 C80.99832122 67.34785838 77.02716846 67.39307351 73.05535889 67.44013977 C71.82796997 67.43620712 70.60058105 67.43227448 69.33599854 67.42822266 C62.21448481 67.54875399 56.98253987 68.23602907 51.58660889 73.14717102 C47.31522876 78.02671023 45.48286994 82.17057557 45.38128662 88.62837219 C45.3613414 89.74930771 45.34139618 90.87024323 45.32084656 92.02514648 C45.30413406 93.23459427 45.28742157 94.44404205 45.27020264 95.69013977 C45.23903099 97.54824028 45.23903099 97.54824028 45.20722961 99.44387817 C45.15289091 102.73342358 45.10264938 106.02299828 45.05438232 109.31263733 C45.00410243 112.67094916 44.94845027 116.02917148 44.89324951 119.3874054 C44.78607841 125.97392261 44.68430753 132.56050686 44.58660889 139.14717102 C37.50681447 139.30012205 30.42745073 139.40472062 23.34637451 139.47676086 C20.94093911 139.50681265 18.53561218 139.54766645 16.1305542 139.59980774 C12.65990341 139.67313135 9.19070921 139.70674526 5.71942139 139.73310852 C4.12349655 139.77956009 4.12349655 139.77956009 2.49533081 139.82695007 C-5.11664133 139.83033107 -10.49439806 138.03411293 -16.41339111 133.14717102 C-20.17295465 128.45442692 -22.52251796 123.96244467 -22.56729126 117.86749268 C-22.58019196 116.55775482 -22.58019196 116.55775482 -22.59335327 115.22155762 C-22.59761322 114.26622635 -22.60187317 113.31089508 -22.60626221 112.32661438 C-22.6144397 111.31811432 -22.62261719 110.30961426 -22.63104248 109.27055359 C-22.65589502 105.92604668 -22.67241498 102.5815823 -22.68682861 99.23701477 C-22.69215229 98.09382845 -22.69747597 96.95064213 -22.70296097 95.7728138 C-22.72969587 89.71832576 -22.74906704 83.66385834 -22.76348877 77.60932922 C-22.77681308 72.60523641 -22.80463814 67.60155281 -22.84552002 62.59761047 C-22.89491937 56.55109409 -22.91961945 50.50494817 -22.92671585 44.4582386 C-22.93341649 42.15823386 -22.94860738 39.85823699 -22.97260666 37.5583477 C-23.00436753 34.329628 -23.00427767 31.10232549 -22.99688721 27.87348938 C-23.01329254 26.93232773 -23.02969788 25.99116608 -23.04660034 25.02148438 C-22.98232984 18.12275367 -21.13466013 12.96200719 -17.41339111 7.14717102 C-15.09698486 4.89326477 -15.09698486 4.89326477 -12.85089111 3.58467102 C-12.10710205 3.12963196 -11.36331299 2.6745929 -10.59698486 2.20576477 C-7.0644212 0.49319813 -3.90422382 0.02194686 0 0 Z " fill="#0183C4" transform="translate(24.41339111328125,0.8528289794921875)"/>
<path d="M0 0 C1.02205032 -0.00686325 2.04410065 -0.0137265 3.09712219 -0.02079773 C6.46210785 -0.03903887 9.82662609 -0.03523196 13.19165039 -0.02954102 C15.53902843 -0.03410403 17.88640514 -0.03940996 20.23377991 -0.04542542 C25.14874709 -0.05435123 30.06355174 -0.05193922 34.97851562 -0.04199219 C41.26768527 -0.03050243 47.55629346 -0.05071744 53.84538937 -0.07990932 C58.69165086 -0.09828115 63.53777804 -0.09797686 68.38406563 -0.0922718 C70.70243683 -0.09211872 73.02081721 -0.09815264 75.3391552 -0.11056328 C78.58453173 -0.12548972 81.82887393 -0.11478313 85.07421875 -0.09765625 C86.50134689 -0.1121582 86.50134689 -0.1121582 87.95730591 -0.12695312 C95.11309174 -0.04813095 100.3108063 1.6749305 105.84399414 6.26342773 C106.38282227 6.88733398 106.92165039 7.51124023 107.47680664 8.15405273 C108.03110352 8.76764648 108.58540039 9.38124023 109.15649414 10.01342773 C112.9058936 16.21513712 112.89619074 23.22804811 112.87646484 30.25732422 C112.88157578 31.20963928 112.88668671 32.16195435 112.89195251 33.14312744 C112.90577784 36.27053222 112.90489718 39.3977149 112.90258789 42.52514648 C112.90647843 44.71175721 112.91081384 46.89836719 112.91557312 49.0849762 C112.92301996 53.66019139 112.92275499 58.23532938 112.91748047 62.81054688 C112.91168514 68.65894631 112.92862606 74.50702913 112.95182514 80.35537624 C112.96659145 84.86881848 112.96743027 89.38218494 112.96431541 93.89564705 C112.96482707 96.05130707 112.97003552 98.2069715 112.98012733 100.36260796 C112.9925318 103.38240745 112.98567609 106.40159623 112.97412109 109.42138672 C112.98176483 110.30218399 112.98940857 111.18298126 112.99728394 112.09046936 C112.93388304 119.62711993 111.54708214 127.02540651 106.35180664 132.77905273 C105.81040039 133.40553711 105.26899414 134.03202148 104.71118164 134.67749023 C98.30551228 139.92064923 91.91528012 139.81319239 83.98071289 139.69702148 C82.88081528 139.69277664 81.78091766 139.6885318 80.64768982 139.68415833 C77.15297419 139.66743675 73.65884643 139.62979568 70.16430664 139.59155273 C67.78736188 139.57649751 65.41040802 139.56281057 63.03344727 139.55053711 C57.22270161 139.51755458 51.41229614 139.46742004 45.60180664 139.40405273 C45.60038162 138.73721466 45.5989566 138.07037659 45.5974884 137.3833313 C45.57771432 130.4067537 45.52327523 123.43104198 45.44921875 116.45483398 C45.42610379 113.85561345 45.41165842 111.25630011 45.40625 108.65698242 C45.39691352 104.90802611 45.35581531 101.1605165 45.30883789 97.41186523 C45.31277054 96.26042023 45.31670319 95.10897522 45.320755 93.92263794 C45.18754324 86.46025233 43.94341359 80.59583951 39.60180664 74.40405273 C34.89561569 69.92503929 30.43206889 68.2976771 24.02880859 68.19873047 C22.88785233 68.17878525 21.74689606 68.15884003 20.57136536 68.13829041 C19.34004379 68.12157791 18.10872223 68.10486542 16.84008789 68.08764648 C14.94869331 68.05647484 14.94869331 68.05647484 13.01908875 68.02467346 C9.67035206 67.97033151 6.32160459 67.92009107 2.97277832 67.87182617 C-0.44585565 67.82154916 -3.86440162 67.7658955 -7.28295898 67.71069336 C-13.98796698 67.60351773 -20.69304089 67.50174762 -27.39819336 67.40405273 C-27.52567984 60.46659112 -27.61283106 53.52943508 -27.67285156 46.59106445 C-27.69789044 44.23417878 -27.73193177 41.87736994 -27.77539062 39.52075195 C-27.83650926 36.11967945 -27.86451063 32.71963953 -27.88647461 29.31811523 C-27.91228104 28.27603912 -27.93808746 27.23396301 -27.9646759 26.16030884 C-27.96781329 17.85042465 -25.92212206 11.0207164 -20.02319336 4.96655273 C-13.10193643 0.84675694 -7.96694131 -0.03761564 0 0 Z " fill="#0183C4" transform="translate(186.398193359375,0.595947265625)"/>
<path d="M0 0 C40.92 0 81.84 0 124 0 C124 0.33 124 0.66 124 1 C122.71484497 1.00586624 121.42968994 1.01173248 120.10559082 1.01777649 C107.98185651 1.07504128 95.85830092 1.14782287 83.73474884 1.23571491 C77.50221556 1.28040238 71.2697474 1.31966234 65.03710938 1.34643555 C59.0199197 1.37248433 53.00298086 1.41289854 46.98594666 1.46318626 C44.69273503 1.4798442 42.39948004 1.49136514 40.10621643 1.49761391 C36.88890416 1.50726637 33.67223207 1.53534056 30.45507812 1.56762695 C29.03950623 1.56547432 29.03950623 1.56547432 27.59533691 1.5632782 C20.57701468 1.66258956 14.89748274 2.69518419 9.25 7.1875 C3.8045186 13.99435175 2.40646265 19.75704966 2.46655273 28.38818359 C2.45793716 29.39741379 2.44932159 30.40664398 2.44044495 31.44645691 C2.41784681 34.7640489 2.42451356 38.08079182 2.43359375 41.3984375 C2.42835499 43.71717579 2.42207758 46.03591195 2.41481018 48.35464478 C2.4044169 53.20821173 2.40895159 58.06148531 2.42358398 62.91503906 C2.44075826 69.11779756 2.41728652 75.31962853 2.38209438 81.52228355 C2.36007336 86.30945917 2.36157354 91.09641454 2.3698597 95.88362503 C2.37067685 98.16964357 2.36385885 100.45567866 2.34908867 102.74164963 C2.33155912 105.94601209 2.34625707 109.14872931 2.36889648 112.35302734 C2.35135818 113.75298698 2.35135818 113.75298698 2.33346558 115.18122864 C2.42149331 121.34243432 3.85560534 125.5492024 6.92843723 130.89383888 C8 133 8 133 8 136 C6.68 135.34 5.36 134.68 4 134 C4 133.01 4 132.02 4 131 C3.525625 131.495 3.05125 131.99 2.5625 132.5 C1 134 1 134 0 134 C0 89.78 0 45.56 0 0 Z " fill="#EAFDFD" transform="translate(0,0)"/>
<path d="M0 0 C0.66 0 1.32 0 2 0 C1.67631943 0.94308517 1.35263885 1.88617035 1.01914978 2.85783386 C-0.3393615 7.6470984 -0.30290077 12.32591236 -0.30639648 17.2746582 C-0.31472 18.28374237 -0.32304352 19.29282654 -0.33161926 20.33248901 C-0.35563683 23.6552928 -0.36448119 26.97789997 -0.37109375 30.30078125 C-0.38006601 32.62094682 -0.38918796 34.94111182 -0.39845276 37.26127625 C-0.41492269 42.12073164 -0.42263931 46.9801183 -0.42553711 51.83959961 C-0.43092012 58.05016828 -0.46860638 64.26008634 -0.51428127 70.47047138 C-0.5440995 75.26190013 -0.55126171 80.05317305 -0.55226326 84.84468651 C-0.55645568 87.13351612 -0.56885041 89.42234662 -0.58978081 91.71108437 C-0.61679422 94.92025563 -0.61183943 98.12792933 -0.59936523 101.3371582 C-0.61419952 102.27203568 -0.62903381 103.20691315 -0.64431763 104.17012024 C-0.55786322 112.02529927 1.82818957 118.74472088 7.375 124.4375 C14.11155144 128.44735205 19.08435717 129.43842252 26.83154297 129.37231445 C27.79346558 129.37596512 28.75538818 129.37961578 29.74645996 129.38337708 C32.91188465 129.39145254 36.07679251 129.37789513 39.2421875 129.36328125 C41.45264689 129.3627622 43.66310674 129.36328164 45.87356567 129.36479187 C50.501881 129.36470227 55.1300217 129.35430018 59.75830078 129.33618164 C65.67506188 129.31352179 71.59156738 129.31294707 77.50835991 129.31969929 C82.07242075 129.3230501 86.63642391 129.31638778 91.20047379 129.30657005 C93.38124413 129.30273495 95.5620209 129.30156279 97.74279404 129.3031559 C100.79854165 129.30352908 103.85396877 129.29083495 106.90966797 129.2746582 C107.80138702 129.27713562 108.69310608 129.27961304 109.61184692 129.28216553 C116.39940508 129.22516637 122.56246476 128.14584508 129 126 C129 126.66 129 127.32 129 128 C121.8315342 131.00705436 115.39788833 131.41497838 107.68725586 131.34057617 C106.48625244 131.34101425 105.28524902 131.34145233 104.04785156 131.34190369 C100.78180226 131.34018197 97.51614756 131.32522276 94.25017619 131.30418181 C90.82692249 131.28532241 87.40365957 131.28365733 83.98036194 131.28010559 C77.51009079 131.27081215 71.03997322 131.24623536 64.56976944 131.21605712 C57.19850144 131.18242855 49.82722579 131.16600593 42.45590007 131.15097082 C27.30384808 131.11968307 12.15193946 131.06697568 -3 131 C-2.9161334 114.51025408 -2.82101243 98.02061754 -2.71247292 81.5310173 C-2.66233949 73.87470246 -2.61589667 66.21839835 -2.578125 58.56201172 C-2.54519596 51.88912923 -2.50535972 45.21632995 -2.45720994 38.54353929 C-2.43195397 35.00996397 -2.41017007 31.47644379 -2.39665604 27.94280243 C-2.3814448 23.99920294 -2.35081354 20.05580575 -2.31884766 16.11230469 C-2.31668747 14.939142 -2.31452728 13.76597931 -2.31230164 12.55726624 C-2.30113815 11.48317001 -2.28997467 10.40907379 -2.2784729 9.3024292 C-2.27294214 8.3695747 -2.26741138 7.4367202 -2.26171303 6.47559738 C-1.98747229 3.88149779 -1.31463876 2.23245879 0 0 Z " fill="#E9FCF8" transform="translate(3,167)"/>
<path d="M0 0 C0.33 0 0.66 0 1 0 C1 40.59 1 81.18 1 123 C-19.2125 123.020625 -39.425 123.04125 -60.25 123.0625 C-66.63504883 123.071604 -73.02009766 123.08070801 -79.59863281 123.09008789 C-87.38818359 123.09460449 -87.38818359 123.09460449 -91.03338623 123.09544373 C-94.25272536 123.0973847 -97.47203744 123.10302731 -100.6913693 123.10981661 C-103.87920645 123.11515081 -107.06704197 123.11384043 -110.25488281 123.11352539 C-111.39279896 123.1171235 -112.5307151 123.12072161 -113.70311356 123.12442875 C-114.74139675 123.12305125 -115.77967995 123.12167376 -116.84942627 123.12025452 C-117.75278339 123.12117631 -118.65614052 123.1220981 -119.5868721 123.12304783 C-121.86437446 123.00691568 -123.81780462 122.64042874 -126 122 C-125.505 121.01 -125.505 121.01 -125 120 C-124.04020233 120.16200394 -123.08040466 120.32400787 -122.09152222 120.49092102 C-117.56929476 121.13268958 -113.09642833 121.1476716 -108.53564453 121.14526367 C-107.61273621 121.14862228 -106.68982788 121.1519809 -105.73895264 121.15544128 C-102.70355871 121.16490039 -99.66822023 121.16689178 -96.6328125 121.16796875 C-94.51203387 121.17118457 -92.39125546 121.17454889 -90.27047729 121.17805481 C-85.83054083 121.18403328 -81.3906238 121.185896 -76.95068359 121.18530273 C-71.27608225 121.18520113 -65.60160607 121.19885779 -59.92703438 121.21607494 C-55.54828322 121.22722084 -51.16956208 121.22922115 -46.79079819 121.22869301 C-44.69933516 121.22986904 -42.60787125 121.23426958 -40.51642227 121.24202538 C-37.58524169 121.25187864 -34.65432991 121.24892632 -31.72314453 121.24291992 C-30.86882843 121.24853943 -30.01451233 121.25415894 -29.13430786 121.25994873 C-21.35651562 121.21967309 -13.80412971 120.48475455 -7.50390625 115.55859375 C-2.85133568 110.73683879 -0.89843906 104.21893067 -0.84178162 97.64666748 C-0.8319928 96.78292511 -0.82220398 95.91918274 -0.81211853 95.02926636 C-0.80636307 94.08987213 -0.8006076 93.15047791 -0.79467773 92.18261719 C-0.78477814 91.18716888 -0.77487854 90.19172058 -0.76467896 89.16610718 C-0.73309605 85.8763873 -0.70831911 82.58665298 -0.68359375 79.296875 C-0.66302146 77.01572291 -0.64202491 74.73457461 -0.62062073 72.45343018 C-0.5654285 66.44965687 -0.5160066 60.44584932 -0.46777344 54.4420166 C-0.41753766 48.31548007 -0.36186242 42.18899326 -0.30664062 36.0625 C-0.19909387 24.04170914 -0.09764111 12.02087511 0 0 Z " fill="#E7FDF9" transform="translate(299,175)"/>
<path d="M0 0 C1.05726791 -0.00137466 2.11453583 -0.00274933 3.20384216 -0.00416565 C4.35830338 -0.00057037 5.51276459 0.0030249 6.70220947 0.00672913 C7.9219899 0.0065831 9.14177032 0.00643707 10.39851379 0.00628662 C13.73910375 0.00686372 17.07963183 0.01187743 20.42021084 0.01886058 C23.91291051 0.0251138 27.40561102 0.02569948 30.89831543 0.02688599 C37.51035126 0.02999349 44.12237054 0.03819906 50.73439908 0.04823548 C59.00133531 0.06051137 67.26827422 0.06598371 75.53521729 0.07142639 C90.28132392 0.0811648 105.02739446 0.10119723 119.77349854 0.12025452 C119.77349854 41.04025452 119.77349854 81.96025452 119.77349854 124.12025452 C119.11349854 124.12025452 118.45349854 124.12025452 117.77349854 124.12025452 C117.78016037 122.84984818 117.7868222 121.57944183 117.79368591 120.27053833 C117.85458429 108.27971062 117.89951314 96.28891441 117.92893505 84.29796696 C117.94456979 78.13376466 117.96576827 71.96968753 117.99981689 65.80555725 C118.03248814 59.8533245 118.05036803 53.90121193 118.05813026 47.94889641 C118.06365981 45.68158007 118.07445761 43.41427007 118.09068871 41.14700508 C118.11256585 37.9635475 118.11546112 34.7805822 118.11407471 31.59706116 C118.12486053 30.66629257 118.13564636 29.73552399 118.14675903 28.77655029 C118.11269635 21.51608257 117.01410869 13.8807188 112.02349854 8.24525452 C111.57490479 7.71158264 111.12631104 7.17791077 110.66412354 6.62806702 C104.67024799 1.84782743 98.68264168 1.69307521 91.32769775 1.7638092 C89.78739395 1.76074265 89.78739395 1.76074265 88.2159729 1.75761414 C84.83652686 1.75461672 81.45757374 1.77305161 78.07818604 1.79212952 C75.72362387 1.7951889 73.36905989 1.79706366 71.01449585 1.79780579 C66.08692466 1.80240225 61.15951749 1.81680427 56.23199463 1.83900452 C49.91581315 1.86731724 43.59976056 1.87822009 37.28352165 1.88268661 C32.42453727 1.88684295 27.56557891 1.89666176 22.70660782 1.90856171 C20.37739393 1.91425793 18.04817755 1.91901877 15.71895981 1.92282867 C12.4660986 1.929703 9.21333893 1.94334044 5.96051025 1.9591217 C4.99830566 1.96023956 4.03610107 1.96135742 3.04473877 1.96250916 C-1.16822657 1.98957992 -5.12149601 2.04090641 -9.22650146 3.12025452 C-9.22650146 2.46025452 -9.22650146 1.80025452 -9.22650146 1.12025452 C-6.08250193 0.19493965 -3.27193626 -0.00328508 0 0 Z " fill="#DFFDFD" transform="translate(180.22650146484375,-0.1202545166015625)"/>
<path d="M0 0 C2.05072434 3.07608652 2.25104196 3.70305006 2.26069641 7.17251587 C2.26778122 8.02187714 2.27486603 8.8712384 2.28216553 9.74633789 C2.27968811 10.67518799 2.27721069 11.60403809 2.2746582 12.56103516 C2.27976913 13.5418808 2.28488007 14.52272644 2.29014587 15.53329468 C2.30407742 18.78527891 2.30308165 22.03705191 2.30078125 25.2890625 C2.30466777 27.55008015 2.30900235 29.81109707 2.31376648 32.07211304 C2.32123748 36.81844443 2.32093216 41.56470148 2.31567383 46.31103516 C2.30989463 52.38041201 2.32676856 58.44948217 2.3500185 64.51880836 C2.36478853 69.19267545 2.36562279 73.86646939 2.36250877 78.54035568 C2.36302089 80.77695699 2.36823793 83.01356251 2.37832069 85.25014114 C2.39072337 88.38782555 2.38386889 91.52492192 2.37231445 94.66259766 C2.37995819 95.57930237 2.38760193 96.49600708 2.39547729 97.44049072 C2.34414946 103.77957018 1.86767615 110.8667017 -2.6040144 115.75258827 C-3.06468965 116.16423414 -3.52536489 116.57588001 -4 117 C-3.58090455 114.48542728 -3.19936843 112.36795113 -1.97834206 110.11444473 C-0.86289741 107.70368661 -0.73998975 106.06519682 -0.7215271 103.41888428 C-0.71036362 102.50465698 -0.69920013 101.59042969 -0.68769836 100.64849854 C-0.68553818 99.65299988 -0.68337799 98.65750122 -0.68115234 97.63183594 C-0.67110672 96.57786621 -0.6610611 95.52389648 -0.65071106 94.43798828 C-0.61981465 90.95345608 -0.60282578 87.46900094 -0.5859375 83.984375 C-0.56723107 81.56869847 -0.54765806 79.1530285 -0.5272522 76.73736572 C-0.47586965 70.37849801 -0.43627658 64.0196091 -0.39910889 57.66064453 C-0.35910769 51.17214691 -0.30799762 44.68373793 -0.2578125 38.1953125 C-0.16098067 25.46360501 -0.07622185 12.7318467 0 0 Z " fill="#389371" transform="translate(297,172)"/>
<path d="M0 0 C0.33 0.99 0.66 1.98 1 3 C35.98 3 70.96 3 107 3 C107 2.34 107 1.68 107 1 C108.32 1.66 109.64 2.32 111 3 C104.69126413 4.65951371 98.83477893 5.28981151 92.32446289 5.25878906 C91.4028688 5.2622937 90.48127472 5.26579834 89.53175354 5.26940918 C86.5119758 5.27814813 83.49243601 5.27240466 80.47265625 5.265625 C78.35713151 5.26697402 76.24160706 5.26891652 74.12608337 5.27142334 C69.70227086 5.2743641 65.27853938 5.27011115 60.85473633 5.26074219 C55.20493896 5.24935536 49.5553318 5.25590901 43.90554142 5.26788712 C39.5396127 5.27514002 35.1737285 5.27280194 30.80779839 5.26763153 C28.72553929 5.26630415 26.64327606 5.26791055 24.5610218 5.27259064 C21.64221733 5.27771168 18.7237139 5.26986755 15.80493164 5.25878906 C14.95735291 5.26283752 14.10977417 5.26688599 13.23651123 5.27105713 C-1.83406701 5.16593299 -1.83406701 5.16593299 -6 1 C-4.02 0.67 -2.04 0.34 0 0 Z " fill="#37936F" transform="translate(175,292)"/>
<path d="M0 0 C2.0315103 3.04726545 2.25088113 3.63713768 2.26069641 7.05862427 C2.26778122 7.88274307 2.27486603 8.70686188 2.28216553 9.55595398 C2.27968811 10.45675186 2.27721069 11.35754974 2.2746582 12.28564453 C2.27976913 13.23722946 2.28488007 14.18881439 2.29014587 15.16923523 C2.30407594 18.32382453 2.30308174 21.47819603 2.30078125 24.6328125 C2.30466791 26.82656943 2.30900251 29.02032561 2.31376648 31.21408081 C2.3212372 35.81917759 2.3209324 40.42419774 2.31567383 45.02929688 C2.30989524 50.91707495 2.32676718 56.80453681 2.3500185 62.69226265 C2.36479124 67.22716086 2.36562242 71.76198369 2.36250877 76.2969017 C2.36302077 78.46651711 2.36823561 80.63613688 2.37832069 82.80572891 C2.39072843 85.8500202 2.38386592 88.89370587 2.37231445 91.93798828 C2.37995819 92.82664078 2.38760193 93.71529327 2.39547729 94.63087463 C2.34174721 101.07327728 1.75577269 108.24422731 -3 113 C-2.125 105.125 -2.125 105.125 -1 104 C-0.89262854 102.64706324 -0.85321362 101.28864581 -0.84178162 99.9315033 C-0.8319928 99.05505661 -0.82220398 98.17860992 -0.81211853 97.27560425 C-0.80636307 96.30672272 -0.8006076 95.33784119 -0.79467773 94.33959961 C-0.78477814 93.32508224 -0.77487854 92.31056488 -0.76467896 91.26530457 C-0.73295872 87.89434179 -0.7082651 84.5233649 -0.68359375 81.15234375 C-0.6630333 78.82206342 -0.64203708 76.4917869 -0.62062073 74.16151428 C-0.56530614 68.01466953 -0.5159384 61.86779061 -0.46777344 55.72088623 C-0.41762677 49.45386701 -0.36190512 43.18689769 -0.30664062 36.91992188 C-0.19894431 24.61332383 -0.097525 12.30668255 0 0 Z " fill="#3990BD" transform="translate(297,18)"/>
<path d="M0 0 C0.66 0 1.32 0 2 0 C0 5 0 5 -1.05038452 7.35343933 C-2.04555284 10.12695493 -2.27426429 12.22239905 -2.31884766 15.1574707 C-2.33871735 16.15813065 -2.35858704 17.15879059 -2.37905884 18.18977356 C-2.39061005 19.2576561 -2.40216125 20.32553864 -2.4140625 21.42578125 C-2.43342865 22.52850876 -2.4527948 23.63123627 -2.4727478 24.76737976 C-2.53242923 28.28234166 -2.57888375 31.79733651 -2.625 35.3125 C-2.66319026 37.69858183 -2.7022426 40.08465003 -2.7421875 42.47070312 C-2.83812143 48.3136809 -2.92320247 54.15674106 -3 60 C-2.29256149 59.99555878 -1.58512299 59.99111755 -0.85624695 59.98654175 C5.80921379 59.9464752 12.47464095 59.91602081 19.14019489 59.89637566 C22.56706693 59.88593637 25.9938395 59.87177468 29.4206543 59.84912109 C33.35985119 59.82324314 37.29900774 59.81352838 41.23828125 59.8046875 C43.0852636 59.78920364 43.0852636 59.78920364 44.96955872 59.77340698 C46.68099312 59.77318039 46.68099312 59.77318039 48.42700195 59.77294922 C49.432939 59.768508 50.43887604 59.76406677 51.47529602 59.75949097 C54 60 54 60 57 62 C27.795 61.505 27.795 61.505 -2 61 C-2 61.66 -2 62.32 -2 63 C-2.66 63 -3.32 63 -4 63 C-5.20114117 60.59771766 -5.13311833 59.08438826 -5.14526367 56.40185547 C-5.15164352 55.44681122 -5.15802338 54.49176697 -5.16459656 53.50778198 C-5.16570938 52.4713858 -5.1668222 51.43498962 -5.16796875 50.3671875 C-5.17129715 49.30138458 -5.17462555 48.23558167 -5.17805481 47.13748169 C-5.18312633 44.87616406 -5.18546307 42.61483893 -5.18530273 40.35351562 C-5.18747787 36.91002844 -5.2055999 33.46686747 -5.22460938 30.0234375 C-5.22754559 27.82552193 -5.22952886 25.62760483 -5.23046875 23.4296875 C-5.23765427 22.40543671 -5.24483978 21.38118591 -5.25224304 20.32589722 C-5.23393461 14.53006433 -4.66706917 9.55744784 -3 4 C-2.34 4 -1.68 4 -1 4 C-0.67 2.68 -0.34 1.36 0 0 Z " fill="#E6FEFE" transform="translate(162,8)"/>
<path d="M0 0 C0.33 0 0.66 0 1 0 C1 17.82 1 35.64 1 54 C-11.313125 54.185625 -11.313125 54.185625 -23.875 54.375 C-27.73227783 54.45693604 -27.73227783 54.45693604 -31.66748047 54.54052734 C-33.73403045 54.55807129 -35.80060135 54.5733558 -37.8671875 54.5859375 C-38.91720947 54.6166333 -39.96723145 54.6473291 -41.04907227 54.67895508 C-48.66928757 54.6842976 -54.07569883 52.90529591 -60 48 C-61.77936518 45.69862986 -62.81792635 43.68653101 -64 41 C-62.35 41.33 -60.7 41.66 -59 42 C-58.979375 42.763125 -58.95875 43.52625 -58.9375 44.3125 C-58.21505433 47.35596588 -58.21505433 47.35596588 -54.75 48.75 C-51.79999946 49.73333351 -49.04849699 50.46202994 -46 51 C-45.505 51.495 -45.505 51.495 -45 52 C-43.58882298 52.12209924 -42.17179541 52.17770872 -40.75561523 52.20532227 C-39.84211304 52.22550415 -38.92861084 52.24568604 -37.98742676 52.26647949 C-37.02091187 52.28295532 -36.05439697 52.29943115 -35.05859375 52.31640625 C-34.17498169 52.33505737 -33.29136963 52.3537085 -32.38098145 52.3729248 C-29.06659351 52.44144552 -25.75203398 52.5014515 -22.4375 52.5625 C-11.3309375 52.7790625 -11.3309375 52.7790625 0 53 C0 35.51 0 18.02 0 0 Z " fill="#1D7AAB" transform="translate(68,86)"/>
<path d="M0 0 C0.495 0.99 0.495 0.99 1 2 C-4.75 1.125 -4.75 1.125 -7 0 C-8.38074691 -0.10323131 -9.76623698 -0.14642781 -11.15078735 -0.15821838 C-12.02019455 -0.1680072 -12.88960175 -0.17779602 -13.78535461 -0.18788147 C-14.74129013 -0.19363693 -15.69722565 -0.1993924 -16.68212891 -0.20532227 C-18.18949364 -0.22017166 -18.18949364 -0.22017166 -19.72731018 -0.23532104 C-23.06037004 -0.26699582 -26.39344417 -0.2917171 -29.7265625 -0.31640625 C-32.03299335 -0.33697061 -34.33942038 -0.35796694 -36.64584351 -0.37937927 C-42.72526975 -0.43465339 -48.80473031 -0.4840391 -54.88421631 -0.53222656 C-61.08430038 -0.58240264 -67.28433444 -0.638109 -73.484375 -0.69335938 C-85.65620731 -0.80100625 -97.82808298 -0.90243669 -110 -1 C-110 -1.33 -110 -1.66 -110 -2 C-96.98688995 -2.20052225 -83.97366039 -2.38420427 -70.9600153 -2.54658794 C-64.91679447 -2.62251994 -58.87376572 -2.70417815 -52.83081055 -2.79907227 C-46.99542112 -2.89049375 -41.16001079 -2.96667815 -35.32427788 -3.03244972 C-33.10156309 -3.06014994 -30.87890884 -3.09327367 -28.65635872 -3.13199425 C-25.53529921 -3.18542777 -22.41457825 -3.21930209 -19.29321289 -3.2487793 C-18.38114578 -3.26891586 -17.46907867 -3.28905243 -16.52937317 -3.30979919 C-10.66535334 -3.33897751 -5.31879475 -2.62990547 0 0 Z " fill="#0D80B8" transform="translate(132,4)"/>
<path d="M0 0 C1.74135223 0.00022659 1.74135223 0.00022659 3.5178833 0.00045776 C4.76591736 0.01078033 6.01395142 0.02110291 7.29980469 0.03173828 C9.22237091 0.03598312 9.22237091 0.03598312 11.18377686 0.04031372 C14.58357607 0.0479329 17.98320315 0.06756644 21.38293457 0.08972168 C24.85520092 0.1102172 28.32749522 0.11932334 31.79980469 0.12939453 C38.60716686 0.15081412 45.414415 0.18492922 52.22167969 0.22705078 C52.22167969 0.55705078 52.22167969 0.88705078 52.22167969 1.22705078 C51.54231354 1.22625519 50.86294739 1.22545959 50.16299438 1.22463989 C43.05661083 1.22219169 35.95131205 1.26159626 28.84521484 1.32470703 C26.19747971 1.34281341 23.54965048 1.35044535 20.90185547 1.34716797 C17.08325147 1.34429576 13.26657773 1.37977356 9.44824219 1.42236328 C7.68826401 1.40872238 7.68826401 1.40872238 5.89273071 1.39480591 C-1.37682984 1.52176658 -5.9105183 2.78980955 -11.86050415 7.04049683 C-12.49338348 7.43205963 -13.12626282 7.82362244 -13.77832031 8.22705078 C-14.43832031 7.89705078 -15.09832031 7.56705078 -15.77832031 7.22705078 C-10.5027213 2.67085163 -7.22488321 -0.03141254 0 0 Z " fill="#EBFEFF" transform="translate(89.7783203125,67.77294921875)"/>
<path d="M0 0 C0.66 0 1.32 0 2 0 C4.21717015 3.32575522 4.24543438 4.3360624 4.22705078 8.20581055 C4.22689972 9.26668381 4.22674866 10.32755707 4.22659302 11.420578 C4.21627045 12.56440445 4.20594788 13.7082309 4.1953125 14.88671875 C4.1924826 16.05886429 4.18965271 17.23100983 4.18673706 18.43867493 C4.17552753 22.18838643 4.15042128 25.93786049 4.125 29.6875 C4.11497121 32.2272101 4.10584519 34.76692393 4.09765625 37.30664062 C4.07558567 43.53784165 4.04210039 49.76890386 4 56 C3.67 56 3.34 56 3 56 C2.99191315 55.41641724 2.98382629 54.83283447 2.97549438 54.23156738 C2.8891178 48.13137846 2.78960153 42.03150218 2.68261719 35.93164062 C2.64444711 33.65825674 2.60957381 31.38481492 2.578125 29.11132812 C2.53221393 25.83442549 2.47426267 22.55791756 2.4140625 19.28125 C2.40251129 18.27259888 2.39096008 17.26394775 2.37905884 16.22473145 C2.26055801 10.49705105 1.62568887 5.49882131 0 0 Z " fill="#E2FBFE" transform="translate(139,12)"/>
<path d="M0 0 C2.475 0.495 2.475 0.495 5 1 C5.020625 1.763125 5.04125 2.52625 5.0625 3.3125 C5.78494567 6.35596588 5.78494567 6.35596588 9.25 7.75 C12.19639888 8.73213296 14.93806367 9.53607025 18 10 C18 10.99 18 11.98 18 13 C11.94272845 12.68937069 7.51313434 9.84943812 3 6 C0.9375 2.625 0.9375 2.625 0 0 Z " fill="#2486B4" transform="translate(4,127)"/>
<path d="M0 0 C3.33691565 3.52550719 3.35340073 6.1991426 3.29296875 10.953125 C3.28872391 11.61334656 3.28447906 12.27356812 3.28010559 12.95379639 C3.26337435 15.05295391 3.22573551 17.15113496 3.1875 19.25 C3.17244584 20.67706942 3.15875871 22.10415396 3.14648438 23.53125 C3.11349001 27.02114817 3.06174743 30.5104787 3 34 C2.67 34 2.34 34 2 34 C1.97494385 33.28980713 1.9498877 32.57961426 1.92407227 31.84790039 C1.80701528 28.58596536 1.68479254 25.32424278 1.5625 22.0625 C1.52318359 20.94552734 1.48386719 19.82855469 1.44335938 18.67773438 C1.20419096 12.40416292 0.78608221 6.22920611 0 0 Z " fill="#EAFFFF" transform="translate(228,78)"/>
<path d="M0 0 C0.93423645 3.01031744 1.04449911 3.86650268 0 7 C-1.62449243 8.70779973 -3.29220027 10.37550757 -5 12 C-5.66 12.66 -6.32 13.32 -7 14 C-9.65537372 14.56520003 -12.29144713 14.73788198 -15 15 C-13.04297985 13.6953199 -11.06417543 12.42257633 -9.0625 11.1875 C-4.8089707 8.14926479 -2.11760292 4.76460657 0 0 Z " fill="#C4EAF7" transform="translate(297,125)"/>
<path d="M0 0 C0.66 0.33 1.32 0.66 2 1 C1.01 1.33 0.02 1.66 -1 2 C-1.71727778 3.64551962 -2.38325228 5.31422289 -3 7 C-3.66 7.66 -4.32 8.32 -5 9 C-5.99 8.67 -6.98 8.34 -8 8 C-6.49776416 3.79373966 -3.71449966 2.26099979 0 0 Z " fill="#148359" transform="translate(15,159)"/>
<path d="M0 0 C-1.95245185 1.19714555 -3.91214997 2.38248074 -5.875 3.5625 C-6.96554688 4.22378906 -8.05609375 4.88507813 -9.1796875 5.56640625 C-10.57574219 6.27603516 -10.57574219 6.27603516 -12 7 C-12.66 6.67 -13.32 6.34 -14 6 C-5.2967033 -1.51648352 -5.2967033 -1.51648352 0 0 Z " fill="#CFF0FA" transform="translate(88,69)"/>
<path d="M0 0 C0.33 0.66 0.66 1.32 1 2 C1.99 2.33 2.98 2.66 4 3 C3.401875 3.70125 2.80375 4.4025 2.1875 5.125 C0.02259039 7.97030977 -1.49596636 10.76632767 -3 14 C-4.46534385 10.19010598 -3.55203911 7.6758821 -2 4 C-1.34 3.67 -0.68 3.34 0 3 C0 2.01 0 1.02 0 0 Z " fill="#1C85B6" transform="translate(73,70)"/>
<path d="M0 0 C3.53372712 1.96318174 6.24479785 4.04070881 9 7 C8.67 7.66 8.34 8.32 8 9 C5.125 7.875 5.125 7.875 2 6 C0.625 2.8125 0.625 2.8125 0 0 Z " fill="#1682B7" transform="translate(286,3)"/>
<path d="M0 0 C1.23556641 0.01740234 1.23556641 0.01740234 2.49609375 0.03515625 C3.32238281 0.04417969 4.14867187 0.05320313 5 0.0625 C5.63808594 0.07410156 6.27617187 0.08570313 6.93359375 0.09765625 C5.61359375 0.42765625 4.29359375 0.75765625 2.93359375 1.09765625 C2.93359375 2.08765625 2.93359375 3.07765625 2.93359375 4.09765625 C1.61359375 4.42765625 0.29359375 4.75765625 -1.06640625 5.09765625 C-1.72640625 3.77765625 -2.38640625 2.45765625 -3.06640625 1.09765625 C-2.06640625 0.09765625 -2.06640625 0.09765625 0 0 Z " fill="#F0FAFB" transform="translate(168.06640625,-0.09765625)"/>
<path d="M0 0 C2.97 0 5.94 0 9 0 C9 0.33 9 0.66 9 1 C7.35 1 5.7 1 4 1 C4 1.99 4 2.98 4 4 C2.02 4.99 2.02 4.99 0 6 C-1.125 2.25 -1.125 2.25 0 0 Z " fill="#E8F7FB" transform="translate(10,0)"/>
<path d="M0 0 C1.45880109 0.14107747 2.91703551 0.28802415 4.375 0.4375 C5.59316406 0.55931641 5.59316406 0.55931641 6.8359375 0.68359375 C9 1 9 1 11 2 C11 3.65 11 5.3 11 7 C9.72881136 6.20890398 8.45806377 5.41709922 7.1875 4.625 C6.47980469 4.18414063 5.77210938 3.74328125 5.04296875 3.2890625 C3.34567961 2.21811524 1.66985642 1.11323761 0 0 Z " fill="#D9F6FD" transform="translate(282,1)"/>
<path d="M0 0 C0.33 0 0.66 0 1 0 C1.125 6.75 1.125 6.75 0 9 C-0.99 8.67 -1.98 8.34 -3 8 C-2.01 5.36 -1.02 2.72 0 0 Z " fill="#DDF4ED" transform="translate(299,276)"/>
<path d="M0 0 C2.875 -0.1875 2.875 -0.1875 6 0 C6.66 0.99 7.32 1.98 8 3 C5.6875 3.6875 5.6875 3.6875 3 4 C1.1875 2.625 1.1875 2.625 0 1 C0 0.67 0 0.34 0 0 Z " fill="#1D89BD" transform="translate(15,136)"/>
<path d="M0 0 C0 0.33 0 0.66 0 1 C-1.216875 1.28875 -2.43375 1.5775 -3.6875 1.875 C-6.91814648 2.67835792 -9.94320935 3.66265409 -13 5 C-13 3 -13 3 -11.5625 1.375 C-7.78022773 -0.65451195 -4.20719164 -0.24272259 0 0 Z " fill="#2082B5" transform="translate(90,67)"/>
<path d="M0 0 C1.48199902 0.44909061 2.96055236 0.90956564 4.4375 1.375 C5.26121094 1.63023438 6.08492187 1.88546875 6.93359375 2.1484375 C9 3 9 3 10 5 C6.28111761 4.49287967 3.26545761 3.88391785 0 2 C0 1.34 0 0.68 0 0 Z " fill="#2888B5" transform="translate(123,1)"/>
<path d="M0 0 C4 4.625 4 4.625 4 8 C2.68 7.34 1.36 6.68 0 6 C0 4.02 0 2.04 0 0 Z " fill="#DFF7FC" transform="translate(4,128)"/>
<path d="M0 0 C0.33 0.99 0.66 1.98 1 3 C1.99 3.33 2.98 3.66 4 4 C-3.75 3.25 -3.75 3.25 -6 1 C-4.02 0.67 -2.04 0.34 0 0 Z " fill="#2C8C68" transform="translate(175,292)"/>
<path d="M0 0 C1.65 0 3.3 0 5 0 C2.38485683 2.12038635 -0.19637616 4.13091744 -3 6 C-3 5.01 -3 4.02 -3 3 C-2.01 2.67 -1.02 2.34 0 2 C0 1.34 0 0.68 0 0 Z " fill="#D5F3EA" transform="translate(10,159)"/>
<path d="M0 0 C-0.5 1.9375 -0.5 1.9375 -2 4 C-4.69658452 4.68790422 -7.2017019 4.81946464 -10 5 C-2.5 0 -2.5 0 0 0 Z " fill="#D5F7FE" transform="translate(292,135)"/>
<path d="M0 0 C2.35448165 2.55068845 2.98327924 3.71017358 3.1875 7.25 C3.125625 8.1575 3.06375 9.065 3 10 C2.34 9.67 1.68 9.34 1 9 C0.5859375 6.93359375 0.5859375 6.93359375 0.375 4.4375 C0.30023438 3.61121094 0.22546875 2.78492187 0.1484375 1.93359375 C0.09945312 1.29550781 0.05046875 0.65742187 0 0 Z " fill="#D3F4FA" transform="translate(228,78)"/>
<path d="M0 0 C0.66 0 1.32 0 2 0 C0.66666667 3.33333333 -0.66666667 6.66666667 -2 10 C-2.33 10 -2.66 10 -3 10 C-3 8.02 -3 6.04 -3 4 C-2.34 4 -1.68 4 -1 4 C-0.67 2.68 -0.34 1.36 0 0 Z " fill="#CDF1FA" transform="translate(162,8)"/>
<path d="M0 0 C1.7074998 1.28062485 3.37373596 2.61767557 5 4 C5 4.66 5 5.32 5 6 C3.68 5.67 2.36 5.34 1 5 C0.67 3.35 0.34 1.7 0 0 Z " fill="#2A8E67" transform="translate(74,222)"/>
</svg>
