 <svg  version="1.0" xmlns="http://www.w3.org/2000/svg"  width="300.000000pt" height="298.000000pt" viewBox="0 0 300.000000 298.000000"  preserveAspectRatio="xMidYMid meet">  <g transform="translate(0.000000,298.000000) scale(0.100000,-0.100000)" fill="#000000" stroke="none"> <path d="M178 2960 c-52 -16 -98 -52 -126 -98 l-27 -47 -3 -505 c-2 -278 0 -524 3 -546 9 -64 57 -128 117 -158 52 -26 54 -26 300 -26 l248 0 0 266 c0 294 4 322 56 383 59 68 81 72 396 73 l279 0 -3 252 c-3 236 -4 253 -25 292 -28 53 -83 100 -130 113 -46 13 -1044 14 -1085 1z m1045 -20 c11 0 15 -4 11 -12 -4 -7 -3 -8 4 -4 15 9 81 -25 111 -58 14 -14 21 -26 17 -26 -4 0 -2 -9 4 -21 7 -13 11 -99 10 -246 0 -125 -2 -228 -3 -229 -1 -2 -114 -4 -251 -6 -136 -2 -250 -6 -253 -10 -2 -5 -10 -8 -16 -8 -7 0 -6 4 3 10 22 14 7 12 -34 -5 -20 -8 -36 -20 -36 -25 0 -6 -7 -10 -15 -10 -8 0 -15 -4 -15 -10 0 -5 -4 -10 -10 -10 -12 0 -59 -47 -53 -53 2 -3 -5 -24 -17 -46 -19 -38 -20 -57 -20 -279 0 -130 -4 -250 -9 -267 -5 -16 -10 -25 -10 -20 -1 6 -79 10 -214 10 -214 0 -283 7 -271 27 5 7 2 8 -6 3 -8 -5 -17 -2 -24 7 -6 8 -19 17 -29 21 -9 3 -16 10 -16 14 1 4 -5 24 -14 43 -13 31 -15 100 -13 550 1 283 4 523 7 532 12 41 70 97 118 115 45 17 86 18 537 16 269 -1 497 -2 507 -3z"/> <path d="M1748 2960 c-52 -16 -98 -52 -126 -98 l-27 -47 -3 -258 -3 -258 280 2 c271 1 282 0 327 -21 52 -26 99 -83 115 -142 6 -24 9 -139 7 -298 l-3 -260 248 0 c269 0 293 4 350 58 16 15 38 45 49 66 19 38 20 57 19 572 0 305 -5 543 -10 557 -13 35 -68 95 -105 115 -28 15 -83 17 -561 19 -291 1 -542 -2 -557 -7z m1053 -24 c38 -6 124 -67 124 -88 1 -7 5 -12 10 -11 15 2 16 -27 20 -557 3 -426 2 -501 -12 -535 -8 -22 -20 -43 -26 -47 -7 -4 -12 -13 -12 -20 0 -7 -4 -15 -10 -17 -5 -2 -23 -13 -40 -25 -28 -20 -41 -21 -245 -21 -118 0 -226 3 -240 7 -19 5 -25 14 -25 35 -1 15 4 31 10 35 7 5 6 8 -1 8 -8 0 -11 65 -10 223 1 192 -1 227 -16 258 -20 42 -94 119 -114 119 -7 0 -16 5 -20 12 -5 7 -2 8 7 3 8 -5 11 -4 6 1 -11 12 -41 14 -322 20 -180 3 -251 8 -257 17 -5 7 -7 111 -6 232 3 186 6 225 20 250 10 17 17 26 18 22 0 -5 5 -5 11 -1 8 5 8 9 -1 14 -9 6 -6 11 11 20 13 7 27 18 31 24 4 6 12 12 18 12 5 1 13 3 18 4 4 1 18 1 31 0 13 -1 21 2 18 7 -5 9 944 8 1004 -1z"/> <path d="M420 1400 c-216 -4 -260 -8 -287 -22 -42 -23 -88 -80 -102 -127 -7 -27 -11 -195 -11 -547 l0 -509 24 -50 c27 -58 57 -88 109 -110 33 -14 107 -16 567 -15 353 0 537 3 557 11 46 17 92 58 116 102 21 40 22 55 25 294 l4 252 -290 3 -289 3 -48 30 c-36 22 -57 45 -77 84 l-28 53 0 279 c0 154 -3 278 -7 277 -5 -1 -123 -5 -263 -8z m231 -290 c6 -276 10 -304 64 -374 15 -20 30 -34 32 -32 3 3 14 -3 24 -13 36 -33 89 -40 329 -41 129 -1 245 -4 258 -7 l23 -5 -1 -222 c-1 -202 -3 -225 -22 -264 -11 -24 -31 -48 -44 -54 -13 -6 -21 -15 -18 -20 3 -5 2 -8 -3 -7 -4 1 -17 -2 -28 -7 -11 -5 -253 -9 -550 -9 l-530 0 -41 26 c-40 27 -73 67 -79 98 -2 9 -4 16 -4 16 -1 0 -1 896 0 1020 0 24 30 97 37 90 3 -2 14 7 24 21 11 14 22 23 25 20 2 -2 16 2 31 10 21 11 73 14 247 12 l220 -3 6 -255z"/> <path d="M2320 1404 c-1 -5 -1 -122 0 -260 1 -301 -4 -329 -69 -394 -67 -66 -87 -70 -395 -70 l-266 0 0 -239 c0 -261 6 -300 58 -355 15 -16 46 -37 69 -48 39 -17 74 -18 574 -19 522 0 532 1 575 22 25 11 56 37 71 56 51 66 52 87 48 637 l-4 509 -23 46 c-15 30 -41 58 -72 79 l-48 32 -243 0 c-134 0 -250 3 -259 6 -9 3 -16 2 -16 -2z m497 -46 c15 -6 32 -10 36 -9 17 3 85 -79 91 -110 8 -40 8 -1017 0 -1046 -4 -14 -11 -20 -18 -16 -7 5 -7 2 1 -8 10 -12 6 -22 -21 -52 -61 -68 -48 -67 -620 -67 -450 0 -521 2 -556 16 -22 9 -40 19 -40 24 0 4 -11 20 -25 36 -14 16 -27 43 -30 59 -3 17 -5 127 -3 245 l3 215 255 3 c140 1 262 5 270 9 16 6 26 9 48 11 7 1 10 7 7 12 -3 5 0 10 8 10 25 0 96 82 112 128 12 36 15 96 15 288 0 221 2 244 18 253 25 15 413 14 449 -1z"/> </g> </svg> 