<?xml version="1.0" encoding="UTF-8"?>
<svg version="1.1" xmlns="http://www.w3.org/2000/svg" width="400" height="400">
<path d="M0 0 C132 0 264 0 400 0 C400 132 400 264 400 400 C268 400 136 400 0 400 C0 268 0 136 0 0 Z " fill="#2E2F80" transform="translate(0,0)"/>
<path d="M0 0 C4.8718173 3.83954593 6.78303522 8.1280396 7.51171875 14.19140625 C8.10807081 24.25615497 8.14350035 33.22490791 2.76171875 42.06640625 C-3.41169944 47.89685676 -9.75907394 47.66650583 -17.94921875 47.47265625 C-23.95083663 46.99570648 -26.91099557 45.73364114 -31.30078125 41.44140625 C-35.60935261 35.04010023 -35.85202017 28.759416 -35.86328125 21.25390625 C-35.88777344 20.39861328 -35.91226563 19.54332031 -35.9375 18.66210938 C-35.96775708 12.05093643 -34.63136257 6.58254188 -30.04052734 1.62939453 C-22.61532209 -4.95028562 -8.34354957 -5.19435732 0 0 Z " fill="#F6F7F9" transform="translate(136.48828125,177.80859375)"/>
<path d="M0 0 C4.104375 -0.0825 8.20875 -0.165 12.4375 -0.25 C13.71294678 -0.28641602 14.98839355 -0.32283203 16.30249023 -0.36035156 C23.91512701 -0.43395522 30.6402303 0.19817301 36.57958984 5.37744141 C42.47032785 11.87398706 42.59899339 19.71465295 42.3828125 28 C41.94163423 34.72876207 39.21926092 39.78073908 34.5 44.5 C29.76779108 47.33932535 26.13738589 48.24774773 20.60546875 48.1953125 C19.52160889 48.19031738 18.43774902 48.18532227 17.32104492 48.18017578 C15.9569751 48.16196777 14.59290527 48.14375977 13.1875 48.125 C8.835625 48.08375 4.48375 48.0425 0 48 C0 32.16 0 16.32 0 0 Z " fill="#F5F6F8" transform="translate(205,176)"/>
<path d="M0 0 C4.62 -0.0825 9.24 -0.165 14 -0.25 C16.16175781 -0.30462402 16.16175781 -0.30462402 18.3671875 -0.36035156 C25.71834631 -0.42379419 30.83489214 -0.15540358 37 4 C40.700863 8.85738269 40.66966815 14.13110272 40 20 C39.04849967 24.17867227 37.38090794 27.01638161 33.8125 29.4375 C32.884375 29.953125 31.95625 30.46875 31 31 C34.45889719 35.17950077 37.98286401 36.32762134 43 38 C43 41.3 43 44.6 43 48 C36.37021915 48.72062835 31.45189736 46.79716813 26 43 C19 35.77580071 19 35.77580071 19 32 C16.36 32 13.72 32 11 32 C11 37.61 11 43.22 11 49 C7.37 49 3.74 49 0 49 C0 32.83 0 16.66 0 0 Z " fill="#F4F5F8" transform="translate(214,108)"/>
<path d="M0 0 C7.486875 -0.12375 7.486875 -0.12375 15.125 -0.25 C17.47069092 -0.30462402 17.47069092 -0.30462402 19.86376953 -0.36035156 C21.10755371 -0.3703418 22.35133789 -0.38033203 23.6328125 -0.390625 C24.90012207 -0.41157227 26.16743164 -0.43251953 27.47314453 -0.45410156 C31.64393089 0.08290956 33.74771224 1.38549776 37 4 C40.79319014 9.18402652 40.6802247 14.82282431 40 21 C38.49304575 25.21947191 36.90272914 27.73389921 33 30 C32.34 30 31.68 30 31 30 C34.30098652 35.08902088 37.41889673 36.23265063 43 38 C43 41.3 43 44.6 43 48 C35.14529202 47.78181367 30.60946485 46.59747881 25 41 C19 34.08974359 19 34.08974359 19 31 C16.36 31 13.72 31 11 31 C11 36.61 11 42.22 11 48 C7.37 48 3.74 48 0 48 C0 32.16 0 16.32 0 0 Z " fill="#F8F8FA" transform="translate(153,176)"/>
<path d="M0 0 C3.63 0 7.26 0 11 0 C11 6.6 11 13.2 11 20 C18.26 20.66 25.52 21.32 33 22 C33 15.07 33 8.14 33 1 C36.63 1 40.26 1 44 1 C44 7.6 44 14.2 44 21 C48.8025363 19.68775775 48.8025363 19.68775775 53.6027832 18.3671875 C56.49234468 17.58704073 58.99397887 17 62 17 C62 20.3 62 23.6 62 27 C56.14587549 29.71208028 50.37978556 29.61334633 44 30 C44 36.27 44 42.54 44 49 C40.37 49 36.74 49 33 49 C33 43.39 33 37.78 33 32 C31.411875 32.04125 29.82375 32.0825 28.1875 32.125 C22.24335454 32.14043934 16.81205244 31.20769921 11 30 C11 36.27 11 42.54 11 49 C7.37 49 3.74 49 0 49 C0 32.83 0 16.66 0 0 Z " fill="#F5F5F9" transform="translate(293,243)"/>
<path d="M0 0 C10 0 10 0 12.99609375 2.3515625 C13.8412527 3.41860487 14.65417609 4.51177194 15.4375 5.625 C15.8814209 6.20024414 16.3253418 6.77548828 16.78271484 7.36816406 C17.72294825 8.59083 18.65014282 9.82361875 19.56494141 11.06542969 C21.53037586 13.7149878 23.58473825 16.29002053 25.63696289 18.87255859 C27.06338372 20.67225936 28.47512721 22.48250197 29.8828125 24.296875 C31.36840268 26.21310442 31.36840268 26.21310442 33 28 C33.33 18.76 33.66 9.52 34 0 C37.63 0 41.26 0 45 0 C45 16.17 45 32.34 45 49 C35 49 35 49 32.40625 46.796875 C31.7771875 45.79140625 31.148125 44.7859375 30.5 43.75 C29.41138672 42.11611328 29.41138672 42.11611328 28.30078125 40.44921875 C27.74511475 39.59529541 27.74511475 39.59529541 27.17822266 38.72412109 C25.20888597 35.84234412 22.95223716 33.21418559 20.6875 30.5625 C17.74022318 27.07417719 14.85423317 23.56779147 12 20 C12 29.57 12 39.14 12 49 C8.04 49 4.08 49 0 49 C0 32.83 0 16.66 0 0 Z " fill="#F2F2F7" transform="translate(158,108)"/>
<path d="M0 0 C3.63 0 7.26 0 11 0 C11 5.28 11 10.56 11 16 C13.97 15.9690625 13.97 15.9690625 17 15.9375 C22.20419947 15.88328959 26.74120999 16.34265125 32 17 C32 11.39 32 5.78 32 0 C35.63 0 39.26 0 43 0 C43 16.17 43 32.34 43 49 C39.37 49 35.74 49 32 49 C32 42.07 32 35.14 32 28 C21.11 27.01 21.11 27.01 10 26 C10 33.26 10 40.52 10 48 C6.7 48 3.4 48 0 48 C0 41.07 0 34.14 0 27 C-5.94 28.32 -11.88 29.64 -18 31 C-18 27.7 -18 24.4 -18 21 C-15.94037148 20.32451422 -13.87715678 19.65995688 -11.8125 19 C-10.66394531 18.62875 -9.51539063 18.2575 -8.33203125 17.875 C-5 17 -5 17 0 17 C0 11.39 0 5.78 0 0 Z " fill="#F6F6F8" transform="translate(58,108)"/>
<path d="M0 0 C3.63 0 7.26 0 11 0 C14.43027346 6.56742887 17.22038653 13.298009 19.9375 20.1875 C20.59564697 21.84773193 20.59564697 21.84773193 21.26708984 23.54150391 C22.12861335 25.71786648 22.98837957 27.8949257 23.84619141 30.07275391 C24.81220174 32.52355033 25.78507996 34.97139787 26.76171875 37.41796875 C27.21160156 38.55878906 27.66148437 39.69960938 28.125 40.875 C28.49882812 41.82117188 28.87265625 42.76734375 29.2578125 43.7421875 C30 46 30 46 30 49 C26.04 49 22.08 49 18 49 C17.34 46.03 16.68 43.06 16 40 C6.1 40.495 6.1 40.495 -4 41 C-4.99 43.64 -5.98 46.28 -7 49 C-10.96 49 -14.92 49 -19 49 C-16.31522355 38.99869537 -12.29772875 29.5630261 -8.375 20 C-7.6740767 18.28011188 -6.97355254 16.56006104 -6.2734375 14.83984375 C-1.20722628 2.41445256 -1.20722628 2.41445256 0 0 Z " fill="#F2F3F7" transform="translate(175,243)"/>
<path d="M0 0 C3.63 0 7.26 0 11 0 C11 16.17 11 32.34 11 49 C7.37 49 3.74 49 0 49 C0 42.4 0 35.8 0 29 C-6.93 29 -13.86 29 -21 29 C-21 35.6 -21 42.2 -21 49 C-24.63 49 -28.26 49 -32 49 C-32 33.16 -32 17.32 -32 1 C-28.37 1 -24.74 1 -21 1 C-21 6.94 -21 12.88 -21 19 C-14.07 19 -7.14 19 0 19 C0 12.73 0 6.46 0 0 Z " fill="#F3F4F7" transform="translate(90,243)"/>
<path d="M0 0 C12.54 0 25.08 0 38 0 C38 3.3 38 6.6 38 10 C29.09 10 20.18 10 11 10 C11 13.3 11 16.6 11 20 C18.59 20 26.18 20 34 20 C34 22.97 34 25.94 34 29 C26.41 29 18.82 29 11 29 C11 32.63 11 36.26 11 40 C19.91 40 28.82 40 38 40 C38 42.97 38 45.94 38 49 C25.46 49 12.92 49 0 49 C0 32.83 0 16.66 0 0 Z " fill="#F2F3F7" transform="translate(112,243)"/>
<path d="M0 0 C12.21 0 24.42 0 37 0 C37 2.97 37 5.94 37 9 C28.42 9 19.84 9 11 9 C11 12.3 11 15.6 11 19 C18.59 19 26.18 19 34 19 C34 21.97 34 24.94 34 28 C26.41 28 18.82 28 11 28 C11 31.63 11 35.26 11 39 C19.58 39 28.16 39 37 39 C37 42.3 37 45.6 37 49 C24.79 49 12.58 49 0 49 C0 32.83 0 16.66 0 0 Z " fill="#F5F5F9" transform="translate(112,108)"/>
<path d="M0 0 C3.63 0 7.26 0 11 0 C11.03738281 1.26457031 11.07476562 2.52914062 11.11328125 3.83203125 C11.17893833 5.4922173 11.24538576 7.15237222 11.3125 8.8125 C11.33505859 9.64587891 11.35761719 10.47925781 11.38085938 11.33789062 C11.41630859 12.14033203 11.45175781 12.94277344 11.48828125 13.76953125 C11.51446533 14.50792236 11.54064941 15.24631348 11.56762695 16.00708008 C12.1104481 18.50908404 13.00886193 19.43309799 15 21 C17.07728417 21.39966503 17.07728417 21.39966503 19.3125 21.25 C20.05113281 21.23453125 20.78976562 21.2190625 21.55078125 21.203125 C24.38586399 20.96799852 27.19389069 20.46768488 30 20 C30 13.4 30 6.8 30 0 C33.3 0 36.6 0 40 0 C40.12432113 5.12279571 40.2146756 10.2446986 40.2746582 15.36865234 C40.29968233 17.10871696 40.33371294 18.84867773 40.37719727 20.58837891 C40.4383892 23.10084755 40.46632959 25.6119178 40.48828125 28.125 C40.51408768 28.89303955 40.5398941 29.6610791 40.56648254 30.45239258 C40.56949787 36.36210345 38.81625767 40.47104162 35 45 C27.78604137 50.83557737 18.82261826 50.49526447 10 50 C7.22612493 49.51223909 4.69828805 48.83024248 2 48 C2 45.03 2 42.06 2 39 C3.38574219 39.03480469 4.77148438 39.06960937 6.19921875 39.10546875 C8.02863368 39.1336136 9.85806176 39.16091301 11.6875 39.1875 C12.59951172 39.21263672 13.51152344 39.23777344 14.45117188 39.26367188 C21.25096619 39.3789449 21.25096619 39.3789449 27 36 C28.36900354 32.42003741 28.36900354 32.42003741 29 29 C28.1440625 29.32355469 27.288125 29.64710938 26.40625 29.98046875 C19.88759247 31.9315807 12.81220226 31.96972492 6.375 29.75 C2.90135668 27.19047334 1.36018138 25.08054414 0 21 C-0.08143855 19.37280518 -0.1075302 17.74248281 -0.09765625 16.11328125 C-0.09443359 15.17548828 -0.09121094 14.23769531 -0.08789062 13.27148438 C-0.07532227 11.80678711 -0.07532227 11.80678711 -0.0625 10.3125 C-0.05798828 9.32443359 -0.05347656 8.33636719 -0.04882812 7.31835938 C-0.0370432 4.87888042 -0.01910783 2.43943259 0 0 Z " fill="#F8F9FB" transform="translate(264,108)"/>
<path d="M0 0 C0.66 2.31 1.32 4.62 2 7 C4.2477975 4.94766315 5.0022242 3.99332739 6 1 C6.97582031 1.09539062 7.95164063 1.19078125 8.95703125 1.2890625 C10.86548828 1.45535156 10.86548828 1.45535156 12.8125 1.625 C14.07707031 1.74101563 15.34164062 1.85703125 16.64453125 1.9765625 C20.13557941 2.31441804 20.13557941 2.31441804 23 0 C23.495 1.485 23.495 1.485 24 3 C23.34 3 22.68 3 22 3 C22.495 5.97 22.495 5.97 23 9 C22.01 9 21.02 9 20 9 C19.01 7.68 18.02 6.36 17 5 C13.7 4.67 10.4 4.34 7 4 C7 19.51 7 35.02 7 51 C6.67 50.34 6.34 49.68 6 49 C4.02 49 2.04 49 0 49 C-0.33 49.99 -0.66 50.98 -1 52 C-1 49.03 -1 46.06 -1 43 C-9.91 43 -18.82 43 -28 43 C-28 39.37 -28 35.74 -28 32 C-20.41 32 -12.82 32 -5 32 C-5 29.03 -5 26.06 -5 23 C-12.59 23 -20.18 23 -28 23 C-28 19.7 -28 16.4 -28 13 C-19.42 13 -10.84 13 -2 13 C-2 9.7 -2 6.4 -2 3 C-11.24 3 -20.48 3 -30 3 C-30 2.67 -30 2.34 -30 2 C-29.31373535 1.97494385 -28.6274707 1.9498877 -27.92041016 1.92407227 C-24.82174183 1.80828573 -21.72339077 1.68548115 -18.625 1.5625 C-17.54476562 1.52318359 -16.46453125 1.48386719 -15.3515625 1.44335938 C-13.8046875 1.38051758 -13.8046875 1.38051758 -12.2265625 1.31640625 C-11.27346191 1.27974854 -10.32036133 1.24309082 -9.33837891 1.20532227 C-5.99575482 0.91182186 -3.51036706 -0.09237808 0 0 Z " fill="#37377F" transform="translate(151,104)"/>
<path d="M0 0 C11.55 0 23.1 0 35 0 C35 2.97 35 5.94 35 9 C26.75 9 18.5 9 10 9 C10 12.3 10 15.6 10 19 C17.59 19 25.18 19 33 19 C33 22.3 33 25.6 33 29 C25.74 29 18.48 29 11 29 C11 35.27 11 41.54 11 48 C7.37 48 3.74 48 0 48 C0 32.16 0 16.32 0 0 Z " fill="#F6F6FA" transform="translate(58,176)"/>
<path d="M0 0 C13.86 0 27.72 0 42 0 C42 2.97 42 5.94 42 9 C37.05 9 32.1 9 27 9 C27 21.87 27 34.74 27 48 C23.37 48 19.74 48 16 48 C16 35.13 16 22.26 16 9 C10.72 9 5.44 9 0 9 C0 6.03 0 3.06 0 0 Z " fill="#F7F8FB" transform="translate(243,244)"/>
<path d="M0 0 C3.63 0 7.26 0 11 0 C11 13.2 11 26.4 11 40 C19.58 40 28.16 40 37 40 C37 42.97 37 45.94 37 49 C24.79 49 12.58 49 0 49 C0 32.83 0 16.66 0 0 Z " fill="#F4F5F9" transform="translate(212,243)"/>
<path d="M0 0 C5.22458873 0.07522314 5.22458873 0.07522314 8.25 2.8125 C10.58972887 7.27925512 10.84137278 10.68545088 10.875 15.6875 C10.895625 16.43902344 10.91625 17.19054687 10.9375 17.96484375 C10.97181451 22.88039794 10.29619716 26.15839775 7.625 30.4375 C5.04896088 33.01353912 3.83250718 32.7933611 0.25 32.875 C-4.97147385 32.79298732 -4.97147385 32.79298732 -8 30.125 C-10.41953326 25.39591226 -10.58981251 21.27024898 -10.625 16.0625 C-10.645625 15.30710938 -10.66625 14.55171875 -10.6875 13.7734375 C-10.71994551 9.13372935 -10.30985893 6.2414191 -7.375 2.4375 C-4.79896088 -0.13853912 -3.58250718 0.0816389 0 0 Z " fill="#31327E" transform="translate(122.375,183.5625)"/>
<path d="M0 0 C13 0 13 0 18 3 C21.45359489 7.79317108 20.55703429 14.4018054 20 20 C18.24866493 23.90682438 16.81493192 25.41790577 13.375 27.875 C10 29 10 29 0 29 C0 19.43 0 9.86 0 0 Z " fill="#302F7C" transform="translate(216,186)"/>
<path d="M0 0 C0.268125 0.61875 0.53625 1.2375 0.8125 1.875 C1.95556848 4.2995233 1.95556848 4.2995233 5 6 C5 5.34 5 4.68 5 4 C5.78375 3.71125 6.5675 3.4225 7.375 3.125 C10.09671632 2.15087746 10.09671632 2.15087746 12 0 C11.4636738 4.55877267 9.8779969 7.44037226 7 11 C-0.43241066 16.70058681 -9.03428022 16.50329759 -18 16 C-20.77387507 15.51223909 -23.30171195 14.83024248 -26 14 C-26 11.03 -26 8.06 -26 5 C-24.61425781 5.03480469 -23.22851562 5.06960937 -21.80078125 5.10546875 C-19.97136632 5.1336136 -18.14193824 5.16091301 -16.3125 5.1875 C-15.40048828 5.21263672 -14.48847656 5.23777344 -13.54882812 5.26367188 C-6.78152327 5.33841171 -6.78152327 5.33841171 -1 2 C-0.67 1.34 -0.34 0.68 0 0 Z " fill="#F0F1F7" transform="translate(292,142)"/>
<path d="M0 0 C2.625 1.3125 2.625 1.3125 4.4375 3.25 C7.51670559 6.15325099 10.624014 6.978838 14.625 8.3125 C14.625 11.6125 14.625 14.9125 14.625 18.3125 C7.99521915 19.03312835 3.07689736 17.10966813 -2.375 13.3125 C-9.375 6.08830071 -9.375 6.08830071 -9.375 2.3125 C-7.725 2.3125 -6.075 2.3125 -4.375 2.3125 C-4.375 1.6525 -4.375 0.9925 -4.375 0.3125 C-2.375 -0.6875 -2.375 -0.6875 0 0 Z " fill="#F4F4F9" transform="translate(242.375,137.6875)"/>
<path d="M0 0 C3.96 0 7.92 0 12 0 C12 0.33 12 0.66 12 1 C8.37 1 4.74 1 1 1 C1 10.57 1 20.14 1 30 C-2.94646894 26.05353106 -6.62464914 22.09569034 -10.25 17.875 C-10.79140625 17.25496094 -11.3328125 16.63492188 -11.890625 15.99609375 C-12.40625 15.39667969 -12.921875 14.79726562 -13.453125 14.1796875 C-13.91879883 13.64069824 -14.38447266 13.10170898 -14.86425781 12.54638672 C-16 11 -16 11 -17 8 C-13.22454612 9.09068668 -10.52956528 9.9083091 -8 13 C-8.33 12.34 -8.66 11.68 -9 11 C-9.33 10.01 -9.66 9.02 -10 8 C-7.36 6.68 -4.72 5.36 -2 4 C-2 3.34 -2 2.68 -2 2 C-1.34 2 -0.68 2 0 2 C0 1.34 0 0.68 0 0 Z " fill="#2D2E7B" transform="translate(191,107)"/>
<path d="M0 0 C2.08304538 -0.05418326 4.16649768 -0.09287551 6.25 -0.125 C7.99023438 -0.15980469 7.99023438 -0.15980469 9.765625 -0.1953125 C12.84681133 -0.00925052 14.4785909 0.28304047 17 2 C18.39431504 4.78863007 18.25660094 6.92078868 18 10 C14.31912647 12.45391569 11.55644412 12.22802759 7.3125 12.125 C6.2596582 12.11146484 6.2596582 12.11146484 5.18554688 12.09765625 C3.45688475 12.07413704 1.72839855 12.03826713 0 12 C0 8.04 0 4.08 0 0 Z " fill="#38387F" transform="translate(164,185)"/>
<path d="M0 0 C2.45862401 -0.05383848 4.9160755 -0.09359038 7.375 -0.125 C8.42300781 -0.15013672 8.42300781 -0.15013672 9.4921875 -0.17578125 C11.32897486 -0.19344267 13.16601963 -0.10303261 15 0 C17 2 17 2 17.25 5.5 C17 9 17 9 15 11 C12.41935871 11.14497985 9.95056116 11.18677545 7.375 11.125 C6.66859375 11.11597656 5.9621875 11.10695312 5.234375 11.09765625 C3.48943902 11.07407603 1.74467705 11.03820461 0 11 C0 7.37 0 3.74 0 0 Z " fill="#2F2F77" transform="translate(225,118)"/>
<path d="M0 0 C-0.61023622 6.46850394 -0.61023622 6.46850394 -2.375 8.875 C-6.25207838 11.55913119 -10.43195138 11.14920169 -14.9375 11.125 C-16.01161133 11.13080078 -16.01161133 11.13080078 -17.10742188 11.13671875 C-20.64566511 11.13016038 -23.54169009 10.86457748 -27 10 C-27 12.97 -27 15.94 -27 19 C-27.33 19 -27.66 19 -28 19 C-28 15.7 -28 12.4 -28 9 C-27.01 9 -26.02 9 -25 9 C-24.67 7.68 -24.34 6.36 -24 5 C-22.02 5 -20.04 5 -18 5 C-18.99 5.33 -19.98 5.66 -21 6 C-21 6.66 -21 7.32 -21 8 C-21.99 8.33 -22.98 8.66 -24 9 C-18.555 8.505 -18.555 8.505 -13 8 C-12.67 6.68 -12.34 5.36 -12 4 C-14.97 4 -17.94 4 -21 4 C-20.67 3.34 -20.34 2.68 -20 2 C-16.91015625 1.62109375 -16.91015625 1.62109375 -13.0625 1.4375 C-8.4719234 1.20867167 -4.47137177 0 0 0 Z " fill="#2D2E77" transform="translate(293,137)"/>
<path d="M0 0 C7.59 0 15.18 0 23 0 C23 0.33 23 0.66 23 1 C15.74 1 8.48 1 1 1 C1 3.64 1 6.28 1 9 C1.99 8.67 2.98 8.34 4 8 C3.34 7.67 2.68 7.34 2 7 C2 5.35 2 3.7 2 2 C2.66 2 3.32 2 4 2 C4 2.66 4 3.32 4 4 C6.34938888 5.17469444 7.95073205 5.20034889 10.5703125 5.31640625 C11.91416016 5.37924805 11.91416016 5.37924805 13.28515625 5.44335938 C14.22230469 5.48267578 15.15945312 5.52199219 16.125 5.5625 C17.06988281 5.60568359 18.01476562 5.64886719 18.98828125 5.69335938 C21.32537092 5.79959072 23.6625683 5.90163176 26 6 C26.33 7.65 26.66 9.3 27 11 C18.09 11 9.18 11 0 11 C0 7.37 0 3.74 0 0 Z " fill="#50508D" transform="translate(123,272)"/>
<path d="M0 0 C0.66 1.32 1.32 2.64 2 4 C0.68 4.33 -0.64 4.66 -2 5 C-1.34 3.35 -0.68 1.7 0 0 Z M-26 1 C-18.74 1 -11.48 1 -4 1 C-4 2.32 -4 3.64 -4 5 C-3.34 5.33 -2.68 5.66 -2 6 C-8.6 6 -15.2 6 -22 6 C-22 6.99 -22 7.98 -22 9 C-14.74 8.67 -7.48 8.34 0 8 C0 8.66 0 9.32 0 10 C-8.58 10 -17.16 10 -26 10 C-26 7.03 -26 4.06 -26 1 Z " fill="#2D2D73" transform="translate(150,136)"/>
<path d="M0 0 C3.00771135 -0.33419015 5.10056383 -0.52770924 8 0 C10.7286109 2.21699636 10.94936082 3.58644671 11.375 7.0625 C11 10 11 10 10 11.875 C6.66094446 13.75321874 3.79001126 13.30079454 0 13 C-2.60704898 10.39295102 -2.23905333 8.52661759 -2.265625 4.97265625 C-2 3 -2 3 0 0 Z " fill="#393979" transform="translate(353,282)"/>
<path d="M0 0 C0.33 1.32 0.66 2.64 1 4 C0.34 4 -0.32 4 -1 4 C-1 5.98 -1 7.96 -1 10 C-0.34 10 0.32 10 1 10 C1 15.28 1 20.56 1 26 C6.22542849 25.12909525 7.83801364 24.54343611 12 22 C12.66 22.33 13.32 22.66 14 23 C13.67 23.66 13.34 24.32 13 25 C13.99 25.66 14.98 26.32 16 27 C14.22411689 29.24825606 13.30561939 29.94400866 10.44140625 30.46875 C2.62836443 30.55355914 2.62836443 30.55355914 -0.625 27.6875 C-3.04453326 22.95841226 -3.21481251 18.83274898 -3.25 13.625 C-3.270625 12.86960938 -3.29125 12.11421875 -3.3125 11.3359375 C-3.3449641 6.69357169 -2.9040642 3.83642165 0 0 Z " fill="#3A3A7A" transform="translate(115,186)"/>
<path d="M0 0 C0.33 0 0.66 0 1 0 C1.22151549 1.79008467 1.42682213 3.58218162 1.625 5.375 C1.79902344 6.87160156 1.79902344 6.87160156 1.9765625 8.3984375 C1.98429687 9.25695312 1.99203125 10.11546875 2 11 C1.34 11.66 0.68 12.32 0 13 C-0.33 12.01 -0.66 11.02 -1 10 C-8.92 10 -16.84 10 -25 10 C-25 12.97 -25 15.94 -25 19 C-25.33 19 -25.66 19 -26 19 C-26 15.7 -26 12.4 -26 9 C-17.42 9 -8.84 9 0 9 C0 6.03 0 3.06 0 0 Z M-5 11 C-2 12 -2 12 0 14 C-0.99 14.33 -1.98 14.66 -3 15 C-3 15.66 -3 16.32 -3 17 C-8.94 17 -14.88 17 -21 17 C-21 15.66666667 -21 14.33333333 -21 13 C-15.72 13 -10.44 13 -5 13 C-5 12.34 -5 11.68 -5 11 Z " fill="#4D4C8E" transform="translate(149,108)"/>
<path d="M0 0 C2 1 2 1 3.2890625 4.30859375 C3.74210268 5.68237148 4.18708349 7.05882681 4.625 8.4375 C4.85445312 9.13166016 5.08390625 9.82582031 5.3203125 10.54101562 C7 15.70505487 7 15.70505487 7 18 C3.04 18 -0.92 18 -5 18 C-4.42934122 11.58008874 -2.32655091 5.98410537 0 0 Z " fill="#36357F" transform="translate(180,256)"/>
<path d="M0 0 C7.92 0 15.84 0 24 0 C24.33 0.99 24.66 1.98 25 3 C24.360625 2.814375 23.72125 2.62875 23.0625 2.4375 C22.381875 2.293125 21.70125 2.14875 21 2 C20.67 2.33 20.34 2.66 20 3 C17.47403741 3.23653523 14.96892793 3.42173692 12.4375 3.5625 C11.72658203 3.60568359 11.01566406 3.64886719 10.28320312 3.69335938 C8.52238088 3.79971777 6.7612168 3.90038846 5 4 C4.67 5.32 4.34 6.64 4 8 C9.94 8 15.88 8 22 8 C22 8.33 22 8.66 22 9 C14.74 9 7.48 9 0 9 C0 6.03 0 3.06 0 0 Z " fill="#333373" transform="translate(124,118)"/>
<path d="M0 0 C7.26 0.66 14.52 1.32 22 2 C22 7.61 22 13.22 22 19 C25.63 19 29.26 19 33 19 C33 19.33 33 19.66 33 20 C29.04 20 25.08 20 21 20 C21 14.72 21 9.44 21 4 C18.6075 3.95875 16.215 3.9175 13.75 3.875 C13.00331055 3.85679199 12.25662109 3.83858398 11.48730469 3.81982422 C6.32462884 3.65817346 6.32462884 3.65817346 2 6 C1.29327794 9.10930941 1.29327794 9.10930941 1.25 12.625 C1.19328125 13.81351562 1.1365625 15.00203125 1.078125 16.2265625 C1.05234375 17.14179688 1.0265625 18.05703125 1 19 C0.67 19 0.34 19 0 19 C0 12.73 0 6.46 0 0 Z " fill="#484783" transform="translate(304,273)"/>
<path d="M0 0 C0.33 0 0.66 0 1 0 C1.19441368 2.2910905 1.38033135 4.58290337 1.5625 6.875 C1.66691406 8.15117187 1.77132812 9.42734375 1.87890625 10.7421875 C2 14 2 14 1 16 C3.46098116 15.94012211 5.91578412 15.85321526 8.375 15.75 C9.07367188 15.73582031 9.77234375 15.72164063 10.4921875 15.70703125 C12.77717646 15.63964218 12.77717646 15.63964218 16 15 C17.56483494 13.08611659 17.56483494 13.08611659 18 11 C18.66 11 19.32 11 20 11 C20 7.37 20 3.74 20 0 C20.33 0 20.66 0 21 0 C21 5.94 21 11.88 21 18 C14.07 18 7.14 18 0 18 C0 12.06 0 6.12 0 0 Z " fill="#30306C" transform="translate(69,244)"/>
<path d="M0 0 C7.86184097 -0.16378835 13.23113514 0.05778378 21 2 C21 8.27 21 14.54 21 21 C20.67 21 20.34 21 20 21 C20 15.39 20 9.78 20 4 C14.49582359 3.38266834 14.49582359 3.38266834 8.99072266 2.77368164 C3.22222222 2.11111111 3.22222222 2.11111111 1 1 C1 7.6 1 14.2 1 21 C0.67 21 0.34 21 0 21 C0 14.07 0 7.14 0 0 Z " fill="#2F2F69" transform="translate(69,134)"/>
<path d="M0 0 C0.66 0.33 1.32 0.66 2 1 C2 1.66 2 2.32 2 3 C1.34 3 0.68 3 0 3 C0.33 4.98 0.66 6.96 1 9 C0.01 9 -0.98 9 -2 9 C-2.67869141 8.02353516 -2.67869141 8.02353516 -3.37109375 7.02734375 C-4.8323277 4.76768232 -4.8323277 4.76768232 -7.41015625 4.50390625 C-8.28542969 4.52324219 -9.16070312 4.54257813 -10.0625 4.5625 C-11.37927734 4.56443359 -11.37927734 4.56443359 -12.72265625 4.56640625 C-13.84994141 4.78103516 -13.84994141 4.78103516 -15 5 C-15.66 5.99 -16.32 6.98 -17 8 C-17 6.02 -17 4.04 -17 2 C-12.56876735 0.6706302 -8.69646459 1.28852014 -4.20703125 1.94140625 C-3.47871094 1.96074219 -2.75039062 1.98007813 -2 2 C-1.34 1.34 -0.68 0.68 0 0 Z " fill="#3E3E7A" transform="translate(173,104)"/>
<path d="M0 0 C1.98 0 3.96 0 6 0 C5.01 0.33 4.02 0.66 3 1 C3 1.66 3 2.32 3 3 C2.01 3.33 1.02 3.66 0 4 C6.6 4 13.2 4 20 4 C16.26903192 6.48731205 13.37278041 6.26081721 9.0625 6.1875 C8.34642578 6.18685547 7.63035156 6.18621094 6.89257812 6.18554688 C3.36710824 6.15614073 0.44324617 5.86081154 -3 5 C-3 7.97 -3 10.94 -3 14 C-3.33 14 -3.66 14 -4 14 C-4 10.7 -4 7.4 -4 4 C-3.01 4 -2.02 4 -1 4 C-0.67 2.68 -0.34 1.36 0 0 Z " fill="#48487F" transform="translate(269,142)"/>
<path d="M0 0 C2.64 0 5.28 0 8 0 C8.33 2.64 8.66 5.28 9 8 C7 5 7 5 7 1 C5.68 1 4.36 1 3 1 C3 4.63 3 8.26 3 12 C3.66 12.33 4.32 12.66 5 13 C5 13.99 5 14.98 5 16 C4.34 16 3.68 16 3 16 C3 16.66 3 17.32 3 18 C2.34 18 1.68 18 1 18 C-0.2062252 14.38132441 -0.10816918 11.07493749 -0.0625 7.3125 C-0.05798828 6.61060547 -0.05347656 5.90871094 -0.04882812 5.18554688 C-0.03706927 3.45699462 -0.01913454 1.72848635 0 0 Z " fill="#2D2D6F" transform="translate(225,140)"/>
<path d="M0 0 C3.00771135 -0.33419015 5.10056383 -0.52770924 8 0 C10.7286109 2.21699636 10.94936082 3.58644671 11.375 7.0625 C11 10 11 10 10 11.875 C6.66094446 13.75321874 3.79001126 13.30079454 0 13 C-2.60704898 10.39295102 -2.23905333 8.52661759 -2.265625 4.97265625 C-2 3 -2 3 0 0 Z M-1 4 C-1.33333333 7 -1.33333333 7 -1 10 C0.88500271 12.31563087 0.88500271 12.31563087 4 12.25 C7.11499729 12.31563087 7.11499729 12.31563087 9 10 C9.25003964 6.45821402 9.25003964 6.45821402 9 3 C7.82963695 1.60712194 7.82963695 1.60712194 4.5625 1.8125 C0.94967279 1.60435072 0.94967279 1.60435072 -1 4 Z " fill="#7C7CC1" transform="translate(353,282)"/>
<path d="M0 0 C0.66 0 1.32 0 2 0 C1.34695118 3.89017121 0.19461184 7.30443912 -1.28515625 10.95703125 C-1.73310547 12.06884766 -2.18105469 13.18066406 -2.64257812 14.32617188 C-3.11115234 15.47666016 -3.57972656 16.62714844 -4.0625 17.8125 C-4.53494141 18.98232422 -5.00738281 20.15214844 -5.49414062 21.35742188 C-6.65888716 24.23987543 -7.82763234 27.12063965 -9 30 C-9.99 29.67 -10.98 29.34 -12 29 C-11.54625 28.34 -11.0925 27.68 -10.625 27 C-8.64679567 23.34793046 -7.89225708 20.04947443 -7 16 C-6.34 16 -5.68 16 -5 16 C-4.87753906 15.46890625 -4.75507813 14.9378125 -4.62890625 14.390625 C-3.85865792 11.46272452 -2.90419117 8.61888994 -1.9375 5.75 C-1.57527344 4.67234375 -1.21304688 3.5946875 -0.83984375 2.484375 C-0.56269531 1.66453125 -0.28554687 0.8446875 0 0 Z " fill="#35366D" transform="translate(169,252)"/>
<path d="M0 0 C0.66 0.33 1.32 0.66 2 1 C2 16.18 2 31.36 2 47 C1.34 47 0.68 47 0 47 C-0.495 45.515 -0.495 45.515 -1 44 C-0.34 44 0.32 44 1 44 C0.67 30.47 0.34 16.94 0 3 C-0.66 2.67 -1.32 2.34 -2 2 C-1.34 2 -0.68 2 0 2 C0 1.34 0 0.68 0 0 Z " fill="#2D2C6A" transform="translate(210,244)"/>
<path d="M0 0 C0.33 0 0.66 0 1 0 C1.34954027 6.43413022 1.33119494 11.37142924 -2 17 C-4.6875 18.9375 -4.6875 18.9375 -7 20 C-7.33 17.69 -7.66 15.38 -8 13 C-5.61426621 11.10786631 -3.92824652 9.97608217 -1 9 C-0.67 6.03 -0.34 3.06 0 0 Z " fill="#E7E9F1" transform="translate(253,118)"/>
<path d="M0 0 C3.96 0 7.92 0 12 0 C12 0.33 12 0.66 12 1 C8.37 1 4.74 1 1 1 C1 10.57 1 20.14 1 30 C-0.65 28.35 -2.3 26.7 -4 25 C-4 24.34 -4 23.68 -4 23 C-3.01 23.33 -2.02 23.66 -1 24 C-0.67 16.08 -0.34 8.16 0 0 Z " fill="#4C4D82" transform="translate(191,107)"/>
<path d="M0 0 C0.66 0.33 1.32 0.66 2 1 C1.01 3.31 0.02 5.62 -1 8 C2.96 8 6.92 8 11 8 C11.33 7.34 11.66 6.68 12 6 C11.67 7.32 11.34 8.64 11 10 C7.04 9.67 3.08 9.34 -1 9 C-1 9.66 -1 10.32 -1 11 C-1.66 11 -2.32 11 -3 11 C-3 10.34 -3 9.68 -3 9 C-3.66 8.67 -4.32 8.34 -5 8 C-2.25 1.125 -2.25 1.125 0 0 Z " fill="#424083" transform="translate(157,284)"/>
<path d="M0 0 C5.625 4.5 5.625 4.5 7 8 C5.35 8.33 3.7 8.66 2 9 C1.67 14.28 1.34 19.56 1 25 C0.67 25 0.34 25 0 25 C0 16.75 0 8.5 0 0 Z " fill="#4E4D7C" transform="translate(169,127)"/>
<path d="M0 0 C0.33 0 0.66 0 1 0 C1.03738281 0.97839844 1.07476562 1.95679688 1.11328125 2.96484375 C1.48856382 10.44841967 2.16997558 16.98646123 5 24 C0.125 22.25 0.125 22.25 -1 20 C-1.39091188 13.27401626 -0.87412727 6.66522041 0 0 Z " fill="#3B3B75" transform="translate(100,194)"/>
<path d="M0 0 C-0.25561323 2.3431213 -0.59270772 4.67843403 -1 7 C-1.99 7.495 -1.99 7.495 -3 8 C-3.22429687 7.35546875 -3.44859375 6.7109375 -3.6796875 6.046875 C-4.82889456 3.75611148 -4.82889456 3.75611148 -7.3828125 3.390625 C-8.74019531 3.32101563 -8.74019531 3.32101563 -10.125 3.25 C-11.03507812 3.19328125 -11.94515625 3.1365625 -12.8828125 3.078125 C-13.58148438 3.05234375 -14.28015625 3.0265625 -15 3 C-15 2.67 -15 2.34 -15 2 C-14.06027344 1.90912109 -14.06027344 1.90912109 -13.1015625 1.81640625 C-11.87566406 1.69072266 -11.87566406 1.69072266 -10.625 1.5625 C-9.81289063 1.48128906 -9.00078125 1.40007812 -8.1640625 1.31640625 C-4.91207355 0.84093494 -3.56824114 0 0 0 Z " fill="#3A3B72" transform="translate(293,137)"/>
<path d="M0 0 C-0.75 1.9375 -0.75 1.9375 -2 4 C-3.9375 4.6875 -3.9375 4.6875 -6 5 C-6.99 5.33 -7.98 5.66 -9 6 C-8.67 7.98 -8.34 9.96 -8 12 C-8.66 12 -9.32 12 -10 12 C-10 8.7 -10 5.4 -10 2 C-6.38026598 0.68373308 -3.90432869 0 0 0 Z " fill="#ECEDFB" transform="translate(50,127)"/>
<path d="M0 0 C0.99 0 1.98 0 3 0 C2.00147198 2.89573124 1.03905844 3.97265909 -1.5 5.75 C-6.09174888 7.38991031 -10.17722273 7.25734187 -15 7 C-13 5 -13 5 -10.8359375 4.8046875 C-9.61777344 4.83949219 -9.61777344 4.83949219 -8.375 4.875 C-7.14910156 4.90207031 -7.14910156 4.90207031 -5.8984375 4.9296875 C-4.95871094 4.96449219 -4.95871094 4.96449219 -4 5 C-4 4.34 -4 3.68 -4 3 C-2.68 2.67 -1.36 2.34 0 2 C0 1.34 0 0.68 0 0 Z " fill="#4A497D" transform="translate(231,208)"/>
<path d="M0 0 C1.6341326 0.23517037 3.25824132 0.54065614 4.875 0.875 C10.56768428 1.97921661 16.22101158 2.57523876 22 3 C22 3.33 22 3.66 22 4 C6.90386317 5.54939546 6.90386317 5.54939546 1 3 C0.34 2.34 -0.32 1.68 -1 1 C-0.67 0.67 -0.34 0.34 0 0 Z " fill="#333371" transform="translate(263,155)"/>
<path d="M0 0 C1.65 0.33 3.3 0.66 5 1 C5 3.64 5 6.28 5 9 C4.67 7.68 4.34 6.36 4 5 C3.34 5 2.68 5 2 5 C1.01 7.31 0.02 9.62 -1 12 C-1.33 12 -1.66 12 -2 12 C-2 9.36 -2 6.72 -2 4 C-1.34 4 -0.68 4 0 4 C0 2.68 0 1.36 0 0 Z " fill="#2B2C71" transform="translate(260,145)"/>
<path d="M0 0 C1.21816406 0.03480469 1.21816406 0.03480469 2.4609375 0.0703125 C3.68683594 0.09738281 3.68683594 0.09738281 4.9375 0.125 C5.87722656 0.15980469 5.87722656 0.15980469 6.8359375 0.1953125 C7.1659375 1.1853125 7.4959375 2.1753125 7.8359375 3.1953125 C7.1759375 3.1953125 6.5159375 3.1953125 5.8359375 3.1953125 C5.8359375 3.8553125 5.8359375 4.5153125 5.8359375 5.1953125 C3.8359375 4.1953125 3.8359375 4.1953125 2.8359375 3.1953125 C0.50775786 2.82770519 -1.825901 2.49289669 -4.1640625 2.1953125 C-2.1640625 0.1953125 -2.1640625 0.1953125 0 0 Z M-1.1640625 3.1953125 C0.1559375 3.5253125 1.4759375 3.8553125 2.8359375 4.1953125 C1.5159375 4.5253125 0.1959375 4.8553125 -1.1640625 5.1953125 C-1.1640625 4.5353125 -1.1640625 3.8753125 -1.1640625 3.1953125 Z " fill="#2C2C76" transform="translate(120.1640625,184.8046875)"/>
<path d="M0 0 C3.61148835 0.88280826 5.55215973 1.45103451 7.9375 4.375 C9.12044048 7.29755884 8.89343117 8.1040507 8 11 C6.66375099 9.35653302 5.33107149 7.71016314 4 6.0625 C3.2575 5.14597656 2.515 4.22945313 1.75 3.28515625 C0 1 0 1 0 0 Z " fill="#3C3B75" transform="translate(174,115)"/>
<path d="M0 0 C0.33 0 0.66 0 1 0 C1.84681133 5.08086796 2.09038099 9.84828377 2 15 C0.02 15.99 0.02 15.99 -2 17 C-1.34 11.39 -0.68 5.78 0 0 Z " fill="#3D3C76" transform="translate(247,196)"/>
<path d="M0 0 C0.66 0 1.32 0 2 0 C5 3.46153846 5 3.46153846 5 6 C5.66 6 6.32 6 7 6 C7 6.66 7 7.32 7 8 C6.01 8.33 5.02 8.66 4 9 C0.06153846 5.67692308 0.06153846 5.67692308 -0.25 2.25 C-0.1675 1.5075 -0.085 0.765 0 0 Z " fill="#333372" transform="translate(188,151)"/>
<path d="M0 0 C0.99 0 1.98 0 3 0 C3 4.95 3 9.9 3 15 C2.34 14.67 1.68 14.34 1 14 C0.5859375 10.83984375 0.5859375 10.83984375 0.375 6.9375 C0.30023438 5.64714844 0.22546875 4.35679688 0.1484375 3.02734375 C0.09945312 2.02832031 0.05046875 1.02929688 0 0 Z " fill="#2C2B68" transform="translate(87,110)"/>
<path d="M0 0 C1.98 0 3.96 0 6 0 C5.01 0.33 4.02 0.66 3 1 C3 1.66 3 2.32 3 3 C2.01 3.33 1.02 3.66 0 4 C0.99 4.33 1.98 4.66 3 5 C1.02 5 -0.96 5 -3 5 C-3 7.97 -3 10.94 -3 14 C-3.33 14 -3.66 14 -4 14 C-4 10.7 -4 7.4 -4 4 C-3.01 4 -2.02 4 -1 4 C-0.67 2.68 -0.34 1.36 0 0 Z " fill="#585A95" transform="translate(269,142)"/>
<path d="M0 0 C2.97 0 5.94 0 9 0 C8.34 0.66 7.68 1.32 7 2 C7.33 2.99 7.66 3.98 8 5 C5.69 4.67 3.38 4.34 1 4 C0.67 2.68 0.34 1.36 0 0 Z " fill="#292C73" transform="translate(58,225)"/>
<path d="M0 0 C4.28324091 2.51407619 6.64531705 4.12314139 8 9 C6.68 9.99 5.36 10.98 4 12 C4.0825 11.071875 4.165 10.14375 4.25 9.1875 C4.1675 8.135625 4.085 7.08375 4 6 C2.05990478 4.29467677 2.05990478 4.29467677 0 3 C0 2.01 0 1.02 0 0 Z " fill="#E8E9F1" transform="translate(134,177)"/>
<path d="M0 0 C0.99 0.495 0.99 0.495 2 1 C1.98259766 2.19496094 1.98259766 2.19496094 1.96484375 3.4140625 C1.88148443 11.25478989 1.88148443 11.25478989 3 19 C2.34 19.33 1.68 19.66 1 20 C-0.1482685 17.703463 -0.11561175 16.41686833 -0.09765625 13.8671875 C-0.09443359 13.06152344 -0.09121094 12.25585938 -0.08789062 11.42578125 C-0.07951172 10.58402344 -0.07113281 9.74226563 -0.0625 8.875 C-0.05798828 8.02550781 -0.05347656 7.17601563 -0.04882812 6.30078125 C-0.03702874 4.20049091 -0.01909306 2.1002367 0 0 Z " fill="#383871" transform="translate(275,108)"/>
<path d="M0 0 C2.97 0 5.94 0 9 0 C9.33 0.99 9.66 1.98 10 3 C9.67 3.66 9.34 4.32 9 5 C5.9168649 3.80100302 2.93720508 2.52299523 0 1 C0 0.67 0 0.34 0 0 Z " fill="#3D3D78" transform="translate(242,107)"/>
<path d="M0 0 C0.66 0.33 1.32 0.66 2 1 C2 1.66 2 2.32 2 3 C1.34 3 0.68 3 0 3 C0.33 4.98 0.66 6.96 1 9 C0.01 9 -0.98 9 -2 9 C-2.66 7.35 -3.32 5.7 -4 4 C-2.68 2.68 -1.36 1.36 0 0 Z " fill="#353576" transform="translate(173,104)"/>
<path d="M0 0 C2.475 0.495 2.475 0.495 5 1 C5 2.98 5 4.96 5 7 C3.68 6.34 2.36 5.68 1 5 C0.67 5.66 0.34 6.32 0 7 C0 4.69 0 2.38 0 0 Z " fill="#8181BC" transform="translate(355,285)"/>
<path d="M0 0 C0.99 0.33 1.98 0.66 3 1 C3 5.95 3 10.9 3 16 C2.67 16 2.34 16 2 16 C1.66104344 14.27192682 1.32908475 12.54248026 1 10.8125 C0.814375 9.84957031 0.62875 8.88664063 0.4375 7.89453125 C0.03122388 5.2065794 -0.07933572 2.71228981 0 0 Z " fill="#31306E" transform="translate(246,187)"/>
<path d="M0 0 C4.95 0 9.9 0 15 0 C15.33 0.99 15.66 1.98 16 3 C15.67 3.66 15.34 4.32 15 5 C14.34 5 13.68 5 13 5 C13 4.34 13 3.68 13 3 C10.43106162 1.71553081 8.23423663 1.67022856 5.375 1.4375 C4.37210938 1.35371094 3.36921875 1.26992187 2.3359375 1.18359375 C1.56507813 1.12300781 0.79421875 1.06242188 0 1 C0 0.67 0 0.34 0 0 Z " fill="#34316E" transform="translate(165,186)"/>
<path d="M0 0 C4.29 0 8.58 0 13 0 C10 3 10 3 7.73828125 3.29296875 C6.93777344 3.25816406 6.13726562 3.22335938 5.3125 3.1875 C4.10013672 3.14689453 4.10013672 3.14689453 2.86328125 3.10546875 C1.94095703 3.05326172 1.94095703 3.05326172 1 3 C0.67 2.01 0.34 1.02 0 0 Z " fill="#52538D" transform="translate(117,225)"/>
<path d="M0 0 C0.33 0 0.66 0 1 0 C1.1875 2.875 1.1875 2.875 1 6 C-2.42094242 8.28062828 -3.68187222 8.21925007 -7.6875 8.125 C-9.17830078 8.09792969 -9.17830078 8.09792969 -10.69921875 8.0703125 C-11.45847656 8.04710937 -12.21773437 8.02390625 -13 8 C-13 7.67 -13 7.34 -13 7 C-11.783125 6.87625 -10.56625 6.7525 -9.3125 6.625 C-5.93520941 6.21108694 -3.10243305 5.45426549 0 4 C0 2.68 0 1.36 0 0 Z " fill="#47487A" transform="translate(181,189)"/>
<path d="M0 0 C1 3 1 3 0.00390625 5.04296875 C-0.47175781 5.75066406 -0.94742187 6.45835937 -1.4375 7.1875 C-1.91058594 7.90292969 -2.38367188 8.61835938 -2.87109375 9.35546875 C-3.24363281 9.89816406 -3.61617188 10.44085938 -4 11 C-4.33 10.01 -4.66 9.02 -5 8 C-4.34 8 -3.68 8 -3 8 C-3 7.01 -3 6.02 -3 5 C-3.99 5.33 -4.98 5.66 -6 6 C-6 5.34 -6 4.68 -6 4 C-4.7934375 3.566875 -4.7934375 3.566875 -3.5625 3.125 C-0.8673532 2.26737432 -0.8673532 2.26737432 0 0 Z " fill="#E4E6F4" transform="translate(303,142)"/>
<path d="M0 0 C3 4 3 4 3.5 6.4375 C3 9 3 9 -2 14 C-1.34 9.38 -0.68 4.76 0 0 Z " fill="#44467A" transform="translate(193,188)"/>
<path d="M0 0 C1.06546953 3.1964086 1.07427838 5.65747276 1 9 C-1.62187494 7.95125002 -2.79371361 7.35068687 -4.25 4.875 C-4.4975 4.25625 -4.745 3.6375 -5 3 C-3.35 2.01 -1.7 1.02 0 0 Z " fill="#414276" transform="translate(249,135)"/>
<path d="M0 0 C2 2 2 2 2 5 C4.97 5 7.94 5 11 5 C11 5.66 11 6.32 11 7 C7.04 7 3.08 7 -1 7 C-0.67 4.69 -0.34 2.38 0 0 Z " fill="#4C4980" transform="translate(176,267)"/>
<path d="M0 0 C0.33 0 0.66 0 1 0 C1.33820166 1.5823006 1.67035939 3.16589375 2 4.75 C2.185625 5.63171875 2.37125 6.5134375 2.5625 7.421875 C3 10 3 10 3 14 C2.01 14.33 1.02 14.66 0 15 C0 10.05 0 5.1 0 0 Z " fill="#2D2D68" transform="translate(338,248)"/>
<path d="M0 0 C0 1.32 0 2.64 0 4 C-0.66 4 -1.32 4 -2 4 C-2.33 4.99 -2.66 5.98 -3 7 C-4.5 5.625 -4.5 5.625 -6 4 C-6 3.34 -6 2.68 -6 2 C-3 0 -3 0 0 0 Z " fill="#3D3B73" transform="translate(190,204)"/>
<path d="M0 0 C0.33 1.32 0.66 2.64 1 4 C0.34 3.67 -0.32 3.34 -1 3 C-2.70363822 2.77377919 -4.41328701 2.59111527 -6.125 2.4375 C-7.03507813 2.35371094 -7.94515625 2.26992187 -8.8828125 2.18359375 C-9.58148438 2.12300781 -10.28015625 2.06242188 -11 2 C-11 1.67 -11 1.34 -11 1 C-6.87831311 -0.62950412 -4.29299643 -1.26264601 0 0 Z " fill="#323372" transform="translate(187,240)"/>
<path d="M0 0 C0.99 0 1.98 0 3 0 C2.25 6.625 2.25 6.625 0 10 C-1.125 3.375 -1.125 3.375 0 0 Z " fill="#323372" transform="translate(172,240)"/>
<path d="M0 0 C-0.33 1.65 -0.66 3.3 -1 5 C-4 4 -4 4 -7 2 C-5.20949654 -1.58100692 -3.4370813 -1.03112439 0 0 Z " fill="#35357D" transform="translate(247,154)"/>
<path d="M0 0 C2 1 2 1 2.6328125 2.84765625 C2.79523438 3.57855469 2.95765625 4.30945313 3.125 5.0625 C3.29257813 5.79597656 3.46015625 6.52945312 3.6328125 7.28515625 C3.75398437 7.85105469 3.87515625 8.41695313 4 9 C2.68 8.01 1.36 7.02 0 6 C-0.99 6.495 -0.99 6.495 -2 7 C-1.34 4.69 -0.68 2.38 0 0 Z " fill="#555585" transform="translate(180,256)"/>
<path d="M0 0 C3.96 0 7.92 0 12 0 C12 0.66 12 1.32 12 2 C8.70303895 3.09898702 7.59505097 2.87124444 4.3125 2.0625 C3.50425781 1.86785156 2.69601562 1.67320312 1.86328125 1.47265625 C0.94095703 1.23869141 0.94095703 1.23869141 0 1 C0 0.67 0 0.34 0 0 Z " fill="#2B2A6D" transform="translate(258,293)"/>
<path d="M0 0 C2.0625 0.4375 2.0625 0.4375 4 1 C4 1.66 4 2.32 4 3 C2.68 3.33 1.36 3.66 0 4 C0.33 5.98 0.66 7.96 1 10 C0.34 9.67 -0.32 9.34 -1 9 C-1.09765625 2.84765625 -1.09765625 2.84765625 -1 1 C-0.67 0.67 -0.34 0.34 0 0 Z " fill="#2A2A6F" transform="translate(92,195)"/>
<path d="M0 0 C1.32 0 2.64 0 4 0 C4.33 0.66 4.66 1.32 5 2 C5.99 2.66 6.98 3.32 8 4 C5.03 4 2.06 4 -1 4 C-0.67 2.68 -0.34 1.36 0 0 Z " fill="#2C2D6F" transform="translate(178,269)"/>
<path d="M0 0 C0.66 0.66 1.32 1.32 2 2 C1.01 2 0.02 2 -1 2 C-1 2.66 -1 3.32 -1 4 C-1.66 4 -2.32 4 -3 4 C-3 4.99 -3 5.98 -3 7 C-3.66 7 -4.32 7 -5 7 C-5 6.01 -5 5.02 -5 4 C-5.66 3.67 -6.32 3.34 -7 3 C-4.69 2.01 -2.38 1.02 0 0 Z " fill="#434581" transform="translate(137,221)"/>
<path d="M0 0 C0.66 0 1.32 0 2 0 C1.6875 2.375 1.6875 2.375 1 5 C0.01 5.66 -0.98 6.32 -2 7 C-2 3 -2 3 0 0 Z " fill="#343472" transform="translate(141,216)"/>
<path d="M0 0 C0.763125 0.20625 1.52625 0.4125 2.3125 0.625 C1.02284824 2.00062854 -0.31439293 3.33266393 -1.6875 4.625 C-2.3475 4.625 -3.0075 4.625 -3.6875 4.625 C-3.6875 3.965 -3.6875 3.305 -3.6875 2.625 C-4.3475 2.295 -5.0075 1.965 -5.6875 1.625 C-2.6875 -0.375 -2.6875 -0.375 0 0 Z " fill="#EAEAF6" transform="translate(187.6875,201.375)"/>
<path d="M0 0 C1.9375 0.6875 1.9375 0.6875 4 2 C4.875 4.5 4.875 4.5 5 7 C4.34 7.66 3.68 8.32 3 9 C0 3.375 0 3.375 0 0 Z " fill="#403F79" transform="translate(189,177)"/>
<path d="M0 0 C0.66 0 1.32 0 2 0 C2 0.66 2 1.32 2 2 C3.32 2.66 4.64 3.32 6 4 C6 4.99 6 5.98 6 7 C3.00675737 5.9024777 2.15389099 5.32317108 0.75 2.375 C0.5025 1.59125 0.255 0.8075 0 0 Z " fill="#E0E3F2" transform="translate(265,130)"/>
<path d="M0 0 C2.97 0.33 5.94 0.66 9 1 C8.67 1.66 8.34 2.32 8 3 C5.03 3 2.06 3 -1 3 C-0.67 2.01 -0.34 1.02 0 0 Z " fill="#585387" transform="translate(280,127)"/>
<path d="M0 0 C0.33 0 0.66 0 1 0 C1.22151549 1.79008467 1.42682213 3.58218162 1.625 5.375 C1.74101562 6.37273437 1.85703125 7.37046875 1.9765625 8.3984375 C1.98429688 9.25695312 1.99203125 10.11546875 2 11 C1.34 11.66 0.68 12.32 0 13 C-1.06671952 9.79984144 -0.94845472 8.11455706 -0.5625 4.8125 C-0.46066406 3.91144531 -0.35882813 3.01039062 -0.25390625 2.08203125 C-0.17011719 1.39496094 -0.08632812 0.70789063 0 0 Z " fill="#505387" transform="translate(149,108)"/>
<path d="M0 0 C2.97 0 5.94 0 9 0 C7.68 0.33 6.36 0.66 5 1 C4.67 1.99 4.34 2.98 4 4 C3.34 4 2.68 4 2 4 C2 3.34 2 2.68 2 2 C1.34 2 0.68 2 0 2 C0 1.34 0 0.68 0 0 Z " fill="#272A71" transform="translate(154,225)"/>
<path d="M0 0 C1.42944945 2.35438733 2.08661261 3.48032433 1.625 6.25 C1.41875 6.8275 1.2125 7.405 1 8 C-0.74627478 5.38058783 -1.38722388 3.96175123 -2 1 C-1.34 0.67 -0.68 0.34 0 0 Z " fill="#3A3876" transform="translate(196,261)"/>
<path d="M0 0 C1.65 1.65 3.3 3.3 5 5 C4.34 5.66 3.68 6.32 3 7 C1.35 5.35 -0.3 3.7 -2 2 C-1.34 1.34 -0.68 0.68 0 0 Z " fill="#40407B" transform="translate(174,212)"/>
<path d="M0 0 C1.32 0.33 2.64 0.66 4 1 C3.67 2.32 3.34 3.64 3 5 C1.68 5.33 0.36 5.66 -1 6 C-1 3 -1 3 0 0 Z " fill="#EBEDEE" transform="translate(138,212)"/>
<path d="M0 0 C1.52299523 2.93720508 2.80100302 5.9168649 4 9 C1.525 8.01 1.525 8.01 -1 7 C-0.67 4.69 -0.34 2.38 0 0 Z " fill="#45447F" transform="translate(101,209)"/>
</svg>
