<?xml version="1.0" standalone="no"?>
<!DOCTYPE svg PUBLIC "-//W3C//DTD SVG 20010904//EN"
 "http://www.w3.org/TR/2001/REC-SVG-20010904/DTD/svg10.dtd">
<svg version="1.0" xmlns="http://www.w3.org/2000/svg"
 width="300.000000pt" height="300.000000pt" viewBox="0 0 300.000000 300.000000"
 preserveAspectRatio="xMidYMid meet">
<metadata>
Created by potrace 1.10, written by Peter Selinger 2001-2011
</metadata>
<g transform="translate(0.000000,300.000000) scale(0.100000,-0.100000)"
fill="#000000" stroke="none">
<path d="M550 1991 c-76 -23 -120 -64 -120 -112 0 -62 74 -76 146 -27 44 30
44 43 0 17 -69 -41 -139 -18 -114 37 21 46 160 89 207 65 17 -9 19 -16 12 -30
-7 -12 -6 -22 1 -29 17 -17 33 -15 81 9 l42 21 -21 -23 c-12 -13 -34 -43 -48
-65 -27 -41 -29 -42 -108 -54 -190 -27 -336 -88 -430 -178 -118 -113 -107
-227 31 -319 165 -109 473 -171 961 -193 551 -25 1098 28 1440 139 94 31 153
59 100 47 -449 -95 -811 -131 -1315 -131 -691 0 -1061 66 -1195 211 -35 38
-40 50 -40 89 0 59 16 89 78 147 53 50 106 80 190 109 56 19 221 53 227 47 13
-13 -22 -30 -89 -43 -104 -19 -160 -47 -177 -87 -16 -39 2 -77 44 -91 58 -19
170 48 212 127 13 24 27 36 47 38 33 5 32 8 11 -51 -28 -80 2 -130 68 -116 34
8 99 60 99 80 0 15 27 45 40 45 4 0 10 -9 13 -20 9 -34 57 -26 116 21 28 22
51 44 51 48 0 4 13 17 29 29 54 39 44 4 -15 -58 -56 -59 -57 -60 -29 -60 22 0
46 17 102 71 81 79 109 87 44 13 -45 -52 -53 -84 -21 -84 33 0 71 25 129 84
30 30 58 53 63 50 5 -3 -14 -34 -42 -70 -46 -59 -48 -64 -27 -64 16 0 34 16
62 55 42 58 54 66 51 38 -2 -33 41 -27 89 13 60 48 69 36 16 -21 -43 -46 -51
-72 -27 -81 21 -8 55 12 115 70 29 28 48 41 42 29 -14 -28 -64 -78 -133 -133
-85 -68 -113 -130 -57 -130 24 0 108 83 158 156 57 84 188 154 289 154 54 0
33 -24 -28 -33 -115 -16 -190 -71 -190 -140 0 -56 85 -81 144 -42 25 17 98
115 108 146 2 6 19 14 38 18 19 4 46 11 59 16 23 7 23 7 7 -16 -24 -35 -21
-88 6 -98 40 -15 72 1 138 71 36 37 69 68 73 68 17 0 4 -27 -39 -79 -45 -54
-45 -56 -23 -59 13 -2 25 0 26 5 2 6 17 29 34 51 30 41 52 55 47 30 -2 -8 9
-13 28 -13 29 0 31 -2 30 -35 -1 -31 2 -35 28 -38 20 -3 36 4 55 22 l28 27 -1
-23 c-1 -19 7 -25 44 -36 175 -52 257 -115 268 -207 5 -51 -13 -90 -63 -134
-138 -121 -468 -194 -1000 -221 -601 -30 -1051 13 -1402 134 -40 14 -73 23
-73 20 0 -10 147 -73 242 -103 110 -35 306 -73 478 -93 147 -16 722 -16 920 1
454 38 739 113 883 232 153 126 65 321 -176 390 -43 12 -80 25 -82 29 -3 6 34
72 117 208 l20 32 -25 0 c-19 0 -32 -15 -70 -81 -36 -65 -46 -76 -49 -58 -2
18 -10 25 -33 27 -23 2 -40 -7 -74 -38 -25 -22 -50 -40 -56 -40 -20 0 -25 12
-14 33 9 15 13 17 19 6 7 -11 13 -10 29 5 12 11 21 23 21 28 0 16 -44 8 -67
-14 l-23 -21 0 21 c0 31 -40 29 -70 -3 -28 -30 -40 -32 -40 -6 0 31 -15 33
-41 4 -23 -25 -23 -25 -2 -19 36 11 35 -11 -3 -54 -56 -62 -114 -50 -82 17 7
15 30 39 51 52 20 13 35 26 32 29 -2 3 -35 -5 -72 -16 -37 -11 -81 -23 -96
-27 -25 -5 -27 -4 -19 12 7 11 33 22 74 29 65 13 124 32 117 38 -2 3 -38 -1
-79 -9 -41 -7 -77 -11 -79 -9 -7 7 61 73 97 96 18 11 31 23 28 25 -9 10 -92
-46 -128 -85 -33 -37 -39 -39 -112 -45 -75 -7 -156 -33 -170 -56 -4 -6 -12
-11 -17 -11 -6 0 -1 12 11 28 l22 27 -27 3 c-23 3 -40 -8 -94 -62 -75 -74
-116 -91 -52 -21 74 80 31 116 -55 45 -62 -51 -86 -53 -68 -5 5 13 8 14 15 3
10 -16 42 1 47 26 5 24 -37 20 -66 -6 -23 -22 -24 -22 -20 -3 2 15 -3 21 -20
23 -17 3 -41 -15 -97 -68 -85 -83 -122 -91 -51 -12 25 29 46 60 46 69 0 25
-59 8 -97 -29 -33 -32 -41 -32 -24 1 5 9 6 23 1 30 -13 23 -53 5 -104 -46 -58
-57 -95 -83 -118 -83 -29 0 -20 18 18 36 42 20 94 70 94 90 0 20 -49 18 -85
-4 -17 -11 -41 -35 -55 -55 -28 -41 -56 -52 -77 -31 -20 19 -57 18 -76 -4 -22
-24 -22 -39 -1 -17 17 16 35 16 41 -1 2 -6 -9 -15 -24 -21 -28 -11 -27 -11 6
-6 l33 6 -15 -30 c-16 -30 -53 -53 -74 -46 -16 6 -15 57 1 103 11 30 20 36 68
51 52 15 141 59 135 66 -2 1 -25 -6 -53 -16 -27 -10 -66 -21 -86 -25 -32 -6
-37 -4 -32 9 4 8 18 18 33 21 86 18 150 56 190 112 29 43 34 68 15 87 -21 21
-53 14 -115 -26 -40 -26 -112 -102 -121 -130 -2 -5 -18 -12 -37 -15 l-34 -7
41 59 c22 32 54 72 71 88 17 17 31 33 31 38 0 4 -34 -8 -76 -27 -42 -19 -78
-35 -81 -35 -2 0 -1 9 2 20 12 37 -11 50 -84 49 -36 0 -77 -4 -91 -8z m468
-39 c7 -21 -77 -100 -125 -116 -26 -9 -48 -14 -51 -12 -9 9 64 88 107 117 45
30 62 32 69 11z m-250 -184 c-5 -14 -56 -33 -65 -24 -3 3 0 12 7 21 15 18 64
21 58 3z m302 2 c0 -13 -79 -65 -87 -57 -3 4 9 20 27 37 32 30 60 39 60 20z
m1453 -6 c14 -15 -54 -104 -80 -104 -25 0 -11 52 25 93 15 17 43 23 55 11z
m-592 -82 c-43 -84 -135 -131 -161 -83 -16 30 7 68 54 90 56 26 67 29 99 30
l27 1 -19 -38z m-1324 -26 c-41 -49 -116 -91 -146 -81 -43 13 -33 63 19 90 30
15 151 45 159 39 2 -2 -13 -23 -32 -48z m995 -63 c-59 -75 -102 -110 -102 -83
0 11 111 120 123 120 5 0 -5 -17 -21 -37z"/>
<path d="M1950 1992 c-56 -25 -86 -74 -70 -116 19 -50 84 -45 149 10 51 44 54
66 3 25 -69 -56 -133 -48 -118 15 12 45 64 59 168 44 96 -14 212 -9 270 12 33
12 13 13 -175 15 -117 0 -219 -2 -227 -5z"/>
<path d="M305 1423 c0 -80 1 -83 24 -83 21 0 23 4 19 35 l-4 35 59 0 59 0 -4
-35 c-4 -31 -1 -35 19 -35 22 0 23 3 23 80 0 77 -1 80 -23 80 -20 0 -23 -4
-19 -30 l4 -30 -56 0 -56 0 0 33 c0 27 -4 32 -22 32 -22 0 -23 -4 -23 -82z"/>
<path d="M1612 1484 c-12 -8 -22 -26 -22 -39 0 -19 7 -26 38 -35 20 -5 50 -11
65 -12 37 -4 36 -21 -1 -32 -22 -6 -39 -4 -61 7 -29 14 -32 14 -41 -3 -12 -22
10 -30 88 -30 39 0 57 5 72 20 11 11 20 24 20 29 0 21 -33 40 -78 46 -63 9
-74 13 -67 25 9 14 89 12 103 -2 10 -10 15 -10 22 2 15 23 12 27 -21 34 -52
10 -93 7 -117 -10z"/>
<path d="M560 1406 l0 -64 70 -4 c57 -2 70 0 70 12 0 12 -11 14 -55 12 -45 -3
-55 -1 -55 12 0 12 10 16 35 16 25 0 35 4 35 15 0 13 -7 15 -36 9 -31 -6 -36
-4 -32 12 3 15 11 18 56 15 42 -2 52 1 52 13 0 13 -13 16 -70 16 l-70 0 0 -64z"/>
<path d="M772 1405 c-23 -47 -29 -65 -18 -65 7 0 16 7 20 15 3 9 19 15 41 15
22 0 38 -6 41 -15 4 -8 14 -15 24 -15 16 0 15 7 -13 64 -18 36 -39 65 -47 65
-9 0 -29 -27 -48 -64z m58 5 c9 -18 8 -20 -15 -20 -23 0 -24 2 -13 20 7 11 14
20 15 20 1 0 7 -9 13 -20z"/>
<path d="M952 1406 l2 -65 68 -3 c55 -2 68 0 68 12 0 12 -11 14 -50 12 l-50
-4 0 56 c0 50 -2 56 -20 56 -19 0 -20 -6 -18 -64z"/>
<path d="M1090 1455 c0 -10 10 -15 30 -15 29 0 30 -1 30 -50 0 -41 3 -50 18
-50 14 0 16 8 14 50 -4 50 -4 50 27 50 21 0 31 5 31 15 0 12 -15 15 -75 15
-60 0 -75 -3 -75 -15z"/>
<path d="M1285 1405 c0 -55 3 -65 18 -65 12 0 17 8 17 25 0 23 4 25 46 25 44
0 46 -1 42 -25 -4 -19 -1 -25 13 -25 17 0 19 8 19 65 0 59 -2 65 -20 65 -16 0
-19 -5 -14 -24 5 -22 2 -24 -40 -28 -44 -3 -46 -2 -46 24 0 20 -5 28 -17 28
-15 0 -18 -10 -18 -65z"/>
<path d="M1835 1428 c25 -30 35 -50 32 -65 -3 -17 0 -23 14 -23 14 0 19 7 19
26 0 14 14 44 31 65 l31 39 -27 0 c-14 0 -24 -4 -21 -8 2 -4 -4 -18 -14 -31
l-18 -24 -13 24 c-7 13 -12 27 -11 32 1 4 -12 7 -29 7 l-31 0 37 -42z"/>
<path d="M2023 1455 c-44 -31 -17 -65 51 -65 25 0 36 -4 36 -15 0 -17 -51 -21
-80 -5 -13 7 -19 6 -23 -4 -7 -18 13 -26 68 -26 80 0 91 58 13 75 -25 5 -49
13 -53 17 -12 12 33 18 60 8 19 -7 32 -7 38 -1 15 15 6 20 -44 27 -32 4 -50 1
-66 -11z"/>
<path d="M2190 1455 c0 -10 10 -15 31 -15 l32 0 -6 -50 c-5 -45 -4 -50 13 -50
17 0 20 7 20 50 0 46 2 50 24 50 13 0 26 7 30 15 4 13 -7 15 -69 15 -60 0 -75
-3 -75 -15z"/>
<path d="M2385 1406 l0 -65 68 -3 c54 -2 67 0 67 12 0 12 -11 14 -50 12 -44
-4 -50 -2 -50 16 0 18 4 19 35 12 31 -7 35 -6 35 12 0 18 -4 19 -35 14 -29 -6
-35 -4 -35 11 0 15 7 17 50 15 41 -3 50 -1 50 12 0 13 -12 16 -67 16 l-68 0 0
-64z"/>
<path d="M2580 1405 c0 -56 3 -65 18 -65 15 0 17 7 14 43 -5 46 0 45 33 -9
l22 -36 26 43 26 44 1 -42 c0 -34 4 -43 18 -43 15 0 17 8 14 65 -4 79 -24 87
-61 24 l-23 -41 -19 28 c-10 16 -19 35 -19 42 0 6 -11 12 -25 12 -24 0 -25 -2
-25 -65z"/>
</g>
</svg>
