<?xml version="1.0" encoding="UTF-8" standalone="no"?>
<!-- Created with Inkscape (http://www.inkscape.org/) -->

<svg
   xmlns:dc="http://purl.org/dc/elements/1.1/"
   xmlns:cc="http://creativecommons.org/ns#"
   xmlns:rdf="http://www.w3.org/1999/02/22-rdf-syntax-ns#"
   xmlns:svg="http://www.w3.org/2000/svg"
   xmlns="http://www.w3.org/2000/svg"
   xmlns:sodipodi="http://sodipodi.sourceforge.net/DTD/sodipodi-0.dtd"
   xmlns:inkscape="http://www.inkscape.org/namespaces/inkscape"
   width="1000"
   height="360.92996"
   viewBox="0 0 264.58333 95.496055"
   version="1.1"
   id="svg8"
   inkscape:version="0.92.4 (5da689c313, 2019-01-14)"
   sodipodi:docname="drawing.svg">
  <defs
     id="defs2" />
  <sodipodi:namedview
     id="base"
     pagecolor="#ffffff"
     bordercolor="#666666"
     borderopacity="1.0"
     inkscape:pageopacity="0.82352941"
     inkscape:pageshadow="2"
     inkscape:zoom="0.49497475"
     inkscape:cx="417.64852"
     inkscape:cy="-47.078119"
     inkscape:document-units="px"
     inkscape:current-layer="layer1"
     showgrid="false"
     units="px"
     inkscape:window-width="1920"
     inkscape:window-height="1017"
     inkscape:window-x="1912"
     inkscape:window-y="-8"
     inkscape:window-maximized="1"
     inkscape:pagecheckerboard="true"
     fit-margin-top="0"
     fit-margin-left="0"
     fit-margin-right="0"
     fit-margin-bottom="0" />
  <metadata
     id="metadata5">
    <rdf:RDF>
      <cc:Work
         rdf:about="">
        <dc:format>image/svg+xml</dc:format>
        <dc:type
           rdf:resource="http://purl.org/dc/dcmitype/StillImage" />
        <dc:title></dc:title>
      </cc:Work>
    </rdf:RDF>
  </metadata>
  <g
     inkscape:label="Layer 1"
     inkscape:groupmode="layer"
     id="layer1"
     transform="translate(59.495085,-24.240366)">
    <g
       id="g2491"
       transform="matrix(2.5453012,0,0,-2.5453012,120.72802,42.323168)">
      <path
         d="m 0,0 c -5.404,-0.394 -6.974,-0.303 -10.512,-3.047 0.823,1.123 0.732,1.03 1.121,1.534 0.373,0.484 0.504,0.665 0.84,1.065 -0.583,0.01 -1.671,0.004 -2.214,0.004 -1.59,-1.592 -3.464,-3.573 -4.386,-4.387 -1.129,-0.999 -1.577,-0.685 -1.381,-0.253 0.166,0.368 2.061,1.983 2.533,2.823 0.3,0.534 0.25,1.06 0.12,1.292 -0.928,1.42 -2.914,-0.625 -4.579,-2.027 -0.487,-0.409 -1.377,-0.746 -1.658,-0.206 -0.141,0.499 0.422,1.243 0.929,1.68 0.006,0.003 -0.057,-0.182 -0.067,-0.21 -0.153,-0.405 0.042,-0.687 0.244,-0.7 0.678,-0.046 1.444,0.764 1.52,1.298 0.091,0.64 -0.35,0.685 -0.584,0.689 -1.263,0.023 -2.01,-0.933 -2.825,-1.861 1.088,2.018 -0.848,2.211 -2.045,1.239 -1.578,-1.282 -2.814,-2.66 -4.36,-4.118 -0.879,-0.827 -1.776,-0.968 -1.131,-0.05 1.221,1.462 2.357,2.761 2.621,3.14 1.233,1.762 -0.247,1.91 -1.61,1.195 -1.071,-0.563 -2.212,-1.584 -3.058,-2.465 -0.022,-0.024 -0.254,-0.275 -0.189,-0.196 0.973,1.208 1.139,1.79 1.082,2.213 -0.109,0.913 -0.934,1.085 -1.981,0.561 -0.805,-0.402 -2.247,-1.804 -3.496,-3.178 -0.959,-1.056 -2.733,-2.35 -3.556,-1.784 -0.161,0.111 -0.333,0.323 -0.161,0.796 2.905,1.018 4.133,2.457 4.526,3.127 0.302,0.482 0.268,1.093 -0.079,1.294 -1.393,0.806 -4.417,-1.435 -5.637,-3.916 -1.972,-0.818 -3.288,-1.211 -5.544,-1.914 3.143,0.38 5.31,0.909 5.437,0.946 -0.018,-0.59 -0.09,-0.744 0.217,-1.081 1.089,-1.189 3.454,0.189 4.792,1.525 2.757,2.755 3.356,3.465 3.881,3.077 0.712,-0.528 -2.55,-3.341 -3.76,-4.934 0.635,-0.007 1.492,-0.007 2.072,0 1.72,2.079 2.42,2.647 4.08,4.085 1.584,1.372 1.694,0.995 1.317,0.485 -0.457,-0.632 -1.758,-1.897 -2.426,-3.117 -1.17,-2.139 1.69,-1.814 3.368,-0.162 1.353,1.332 2.047,2.05 3.329,3.165 1.291,1.122 1.372,0.416 0.654,-0.498 -1.038,-1.319 -1.917,-2.584 -3.074,-3.958 0.543,-0.007 1.039,-0.007 1.647,0 0.753,1.088 1.536,2.209 2.381,3.217 0.405,0.484 0.591,0.647 1.077,1.047 -0.801,-1.593 0.989,-2.175 2.164,-1.265 0.934,0.723 1.516,1.379 2.081,1.803 0.668,0.501 1.342,0.231 0.908,-0.384 -0.324,-0.454 -1.433,-1.392 -2.141,-2.24 -0.528,-0.633 -0.966,-1.8 -0.291,-2.127 0.668,-0.323 1.9,0.281 2.589,0.854 0.801,0.667 1.979,1.788 3.468,3.436 0.009,0.009 0.667,0.79 0.61,0.702 -1.374,-2.151 -1.24,-1.936 -2.317,-3.488 -1.196,-0.803 -3.859,-3.059 -5.195,-4.333 -2.462,-2.346 -0.966,-3.596 0.253,-3.079 2.197,0.931 5.491,5.85 6.637,7.509 4.95,3.311 5.539,3.656 10.945,3.979 L -1.465,-2.31 c -5.698,-0.383 -7.586,-2.001 -8.512,-3.681 -0.999,-1.814 -0.058,-4.454 3.04,-4.063 3.257,0.411 5.216,4.851 6.251,6.652 1.308,0.124 3.297,0.688 4.75,1.294 -1.159,-0.849 -1.791,-1.766 -1.776,-3.188 0.023,-2.008 2.505,-2.229 4.097,-0.857 1.249,1.079 1.984,1.856 3.278,3.318 1.624,1.841 2.026,0.949 1.39,0.051 -0.514,-0.726 -2.768,-3.531 -3.158,-4.045 0.503,0 1.125,-0.007 1.624,0 1.474,2.068 1.998,2.895 3.283,3.967 -0.972,-2.161 1.943,-1.752 2.83,-0.541 -0.817,-1.05 -1.282,-2.547 -0.333,-3.305 1.309,-0.912 2.996,0.575 4.026,2.27 -0.847,-1.563 -0.425,-2.558 1.212,-2.815 13.382,-2.104 25.215,-21.067 -42.13,-21.245 -24.745,-0.066 -33.244,3.18 -42.712,6.084 5.161,-3.008 17.214,-8.089 42.712,-7.999 69.437,0.244 57.571,20.996 45.557,23.863 -1.583,0.377 -2.293,0.649 -2.899,0.762 -1.106,0.207 -0.022,1.717 0.85,3.195 1.046,1.775 2.553,4.28 3.547,6.028 L 23.871,3.434 c -1.308,-2.14 -2.248,-3.727 -3.581,-5.975 0.323,0.864 0.216,1.572 -0.381,1.906 -0.595,0.332 -1.307,0.207 -1.927,-0.051 -0.605,-0.252 -1.043,-0.63 -1.531,-1.079 -0.467,-0.423 -0.798,-0.797 -1.403,-1.312 -0.375,-0.319 -1.214,-0.569 -1.539,-0.196 -0.193,0.22 0.028,1.241 0.864,1.763 -0.185,-0.247 -0.15,-0.782 0.018,-0.865 0.302,-0.146 0.595,-0.057 0.835,0.135 0.298,0.24 1.127,0.977 0.806,1.56 -0.269,0.49 -1.407,0.075 -1.848,-0.199 -0.52,-0.321 -1.084,-0.856 -1.523,-1.415 0.468,0.968 0.528,1.711 -0.336,1.82 -1.343,0.169 -2.039,-0.852 -3.4,-2.143 0,0 -0.183,-0.221 -0.162,-0.177 0.506,1.01 -0.068,2.069 -0.529,2.248 C 7.584,-1.251 7.135,-1.77 6.496,-2.412 l 0.139,-0.109 c 0.404,0.422 0.605,0.651 0.97,0.694 0.476,0.053 0.829,-0.47 0.416,-1.279 -0.227,-0.45 -1.338,-2.123 -2.606,-2.653 -0.978,-0.409 -1.909,0.023 -1.756,1.341 0.125,1.057 1.049,2.713 3.331,3.419 l 0.271,0.555 C 6.32,-0.343 5.355,-1.099 3.135,-1.594 2.715,-1.688 1.308,-2.154 -0.132,-2.23 c 0.064,0.12 0.766,1.131 0.766,1.131 1.488,0.121 2.029,0.363 3.342,0.653 1.051,0.232 1.963,0.547 3.202,1.194 C 5.866,0.541 5.559,0.553 4.253,0.406 2.909,0.257 2.023,0.101 1.239,0.07 3.065,2.599 3.939,3.095 6.312,4.763 3.092,3.71 1.494,2.058 0,0 m -48.858,-2.638 c 0.119,0.224 0.563,0.889 0.671,1.099 l 1.92,0.213 c -0.126,-0.221 -0.43,-0.888 -0.543,-1.099 -0.366,-0.014 -1.723,-0.184 -2.048,-0.213 m -10.021,-4.78 c 0.085,1.638 3.393,2.97 7.774,3.306 -2.792,-4.781 -7.936,-6.437 -7.774,-3.306 m 18.828,11.961 c 4.375,3.098 3.272,-0.438 0.837,-2.402 -1.696,-1.368 -3.186,-1.546 -4.569,-1.818 2.084,3.014 2.927,3.65 3.732,4.22 m -8.565,-4.623 c -4.189,-0.515 -5.342,-0.68 -9.113,-1.698 -17.526,-4.728 -27.075,-24.52 36.025,-24.82 22.593,-0.107 41.53,3.12 49.92,7.424 -13.723,-2.821 -29.669,-5.279 -49.809,-5.279 -63.045,0 -47.987,17.436 -37.127,20.869 2.67,0.844 4.111,1.3 9.119,1.969 m 0.012,0.037 c 0,0 -0.61,-0.936 -0.813,-1.214 -6.173,-0.849 -9.925,-2.019 -9.612,-5.258 0.175,-1.804 2.565,-2.895 5.551,-1.27 2.226,1.212 3.833,3.028 5.029,5.348 0.372,0.048 1.862,0.211 2.188,0.24 -3.553,-7.043 1.329,-7.469 4.066,-5.154 2.038,1.725 2.269,4.498 0.42,4.978 -1.623,0.422 -2.855,-0.951 -3.021,-2.058 1.079,1.351 1.588,1.301 2.077,1.155 1.134,-0.338 0.631,-2.551 -0.446,-3.405 -1.815,-1.437 -2.585,-0.539 -2.585,0.73 0,1.245 0.707,2.694 1.318,3.93 1.607,0.191 4.385,1.024 7.037,3.062 -3.088,-1.236 -5.101,-1.646 -6.686,-1.779 0.152,0.292 0.396,0.831 0.533,1.075 3.653,0.371 7.022,2.264 8.7,5.655 0.825,1.668 -0.261,3.299 -3.206,1.752 -1.925,-1.012 -3.525,-2.034 -6.15,-6.044 -0.367,-0.027 -2.182,-0.191 -2.182,-0.191 2.189,3.269 1.906,3.341 5.235,6.777 -0.425,-0.138 -1.088,-0.358 -1.508,-0.522 -0.971,-0.381 -1.391,-0.535 -3.12,-1.349 -0.487,-0.229 -1.681,-0.693 -1.227,0.168 0.856,1.624 -0.882,1.896 -1.82,1.988 -1.852,0.181 -5.076,-0.12 -7.425,-1.654 -2.397,-1.567 -2.201,-4.386 -0.458,-4.902 1.934,-0.572 4.186,0.721 5.413,2.229 -5.303,-4.111 -8.638,0.944 -2.552,2.89 1.265,0.406 2.881,0.654 3.671,0.569 0.592,-0.063 1.211,-0.118 1.436,-0.287 0.599,-0.448 0.105,-0.989 0.105,-0.989 -0.136,-0.262 -0.579,-0.989 0.169,-1.386 1.498,-0.794 3.353,0.915 4.725,1.54 -1.666,-1.666 -1.964,-2.127 -3.889,-5.126 z m 43.972,-6.668 c -2.34,-1.635 -3.943,0.121 -3.299,1.815 0.495,1.241 2.686,2.764 6.96,3.056 -1.148,-2.132 -1.769,-3.551 -3.661,-4.871 M 3.608,6.929 C 1.562,7.128 -1.065,7.39 -2.92,6.247 -4.198,5.461 -4.855,4.696 -4.94,3.316 -4.966,2.839 -4.724,1.685 -3.887,1.23 -3.064,0.784 -2.142,0.987 -1.316,1.321 0.174,1.922 1.171,3.085 2.567,4.709 1.206,3.462 -1.075,1.724 -2.795,2.37 -4.569,3.035 -3.742,6.868 1.428,6.082 5.606,5.447 9.065,4.764 14.662,7.006 11.876,6.619 8.218,6.481 3.608,6.929 M -16.875,-8.953 c 1.825,1.496 2.434,1.936 2.917,2.42 -0.435,-0.652 -3.899,-5.756 -4.948,-5.272 -0.346,0.16 0.162,1.318 2.031,2.852 m 1.102,-8.338 0.705,1.386 0.127,-0.055 c 0,-0.069 0.014,-0.128 0.053,-0.185 0.255,-0.378 1.523,-0.732 2.331,-0.732 0.564,0 2.064,0.126 2.064,0.823 0,1.397 -5.203,-0.354 -5.203,2.451 0,0.952 0.986,1.902 3.112,1.902 1.782,0 2.64,-0.573 3.077,-0.573 0.127,0 0.205,0.023 0.255,0.069 l 0.154,-0.092 -0.883,-1.431 -0.128,0.046 c -0.013,0.103 -0.053,0.194 -0.102,0.263 -0.269,0.356 -1.347,0.733 -2.333,0.733 -0.756,0 -1.692,-0.195 -1.692,-0.699 0,-1.454 5.202,0.241 5.202,-2.508 0,-1.58 -2.114,-1.969 -3.498,-1.969 -1.973,0 -2.511,0.571 -2.896,0.571 -0.063,0 -0.128,-0.044 -0.167,-0.091 z m -6.699,2.394 v 1.527 c 0,0.107 -0.09,0.162 -0.221,0.162 v 0.161 h 1.548 v -0.161 c -0.09,0 -0.181,-0.055 -0.181,-0.162 v -4.08 c 0,-0.107 0.091,-0.161 0.181,-0.161 v -0.161 h -1.548 v 0.161 c 0.131,0 0.221,0.054 0.221,0.161 v 1.691 h -3.237 v -1.691 c 0,-0.107 0.09,-0.161 0.181,-0.161 v -0.161 h -1.519 v 0.161 c 0.1,0 0.191,0.054 0.191,0.161 v 4.08 c 0,0.107 -0.091,0.162 -0.191,0.162 v 0.161 h 1.519 v -0.161 c -0.091,0 -0.181,-0.055 -0.181,-0.162 v -1.527 z m -8.388,-2.553 c 0,-0.107 0.091,-0.161 0.222,-0.161 v -0.161 h -1.549 v 0.161 c 0.091,0 0.181,0.054 0.181,0.161 v 3.578 h -1.659 c -0.121,0 -0.262,-0.055 -0.262,-0.215 h -0.181 v 1.255 h 0.181 c 0,-0.161 0.141,-0.215 0.262,-0.215 h 4.464 c 0.121,0 0.262,0.054 0.262,0.215 h 0.181 v -1.255 h -0.181 c 0,0.16 -0.141,0.215 -0.262,0.215 h -1.659 z m 52.336,-0.322 v 0.161 c 0.111,0 0.202,0.054 0.202,0.161 v 4.099 c 0,0.107 -0.091,0.143 -0.202,0.143 v 0.161 h 1.881 v -0.161 c -0.07,0 -0.161,-0.036 -0.161,-0.109 0,-0.062 0.07,-0.161 0.132,-0.269 l 1.436,-2.335 1.449,2.308 c 0.091,0.153 0.14,0.234 0.14,0.306 0,0.071 -0.049,0.099 -0.13,0.099 v 0.161 h 1.861 v -0.161 c -0.112,0 -0.202,-0.036 -0.202,-0.143 v -4.099 c 0,-0.107 0.09,-0.161 0.202,-0.161 v -0.161 h -1.579 v 0.161 c 0.18,0 0.271,0.054 0.271,0.161 v 2.984 h -0.021 l -2.02,-3.306 h -0.031 l -1.981,3.315 h -0.018 v -2.993 c 0,-0.107 0.088,-0.161 0.281,-0.161 v -0.161 z m -2.216,3.755 h -0.18 c 0,0.126 -0.101,0.198 -0.381,0.198 H 15.44 v -1.115 h 1.97 c 0.261,0 0.422,0.037 0.422,0.306 h 0.181 v -1.401 h -0.181 c 0,0.27 -0.161,0.323 -0.422,0.323 h -1.97 v -1.24 h 3.359 c 0.201,0 0.341,0.09 0.341,0.234 h 0.18 v -1.258 h -0.18 c 0,0.179 -0.14,0.198 -0.341,0.198 h -4.688 v 0.161 c 0.091,0 0.183,0.054 0.183,0.161 v 4.08 c 0,0.107 -0.092,0.162 -0.183,0.162 v 0.161 h 4.588 c 0.28,0 0.381,0.091 0.381,0.215 h 0.18 z m -9.152,-3.433 c 0,-0.107 0.091,-0.161 0.221,-0.161 v -0.161 H 8.78 v 0.161 c 0.091,0 0.182,0.054 0.182,0.161 v 3.578 h -1.66 c -0.12,0 -0.261,-0.055 -0.261,-0.215 H 6.859 v 1.255 h 0.182 c 0,-0.161 0.141,-0.215 0.261,-0.215 h 4.464 c 0.121,0 0.261,0.054 0.261,0.215 h 0.182 v -1.255 h -0.182 c 0,0.16 -0.14,0.215 -0.261,0.215 h -1.658 z m -10.282,0.072 0.554,1.088 0.101,-0.046 c 0,-0.053 0.008,-0.099 0.039,-0.143 0.202,-0.297 1.198,-0.575 1.83,-0.575 0.444,0 1.62,0.099 1.62,0.647 0,1.097 -4.084,-0.279 -4.084,1.923 0,0.745 0.775,1.491 2.443,1.491 1.399,0 2.072,-0.448 2.415,-0.448 0.101,0 0.161,0.018 0.2,0.053 l 0.12,-0.072 -0.691,-1.123 -0.102,0.036 c -0.011,0.081 -0.04,0.153 -0.081,0.207 -0.209,0.28 -1.055,0.575 -1.828,0.575 -0.594,0 -1.328,-0.153 -1.328,-0.548 0,-1.141 4.082,0.189 4.082,-1.968 0,-1.24 -1.657,-1.545 -2.745,-1.545 -1.55,0 -1.971,0.448 -2.274,0.448 -0.049,0 -0.099,-0.035 -0.13,-0.072 z m -7.453,4.331 h 2.09 v -0.161 c -0.12,0 -0.25,-0.018 -0.25,-0.135 0,-0.143 0.884,-1.194 1.237,-1.697 l 1.177,1.446 c 0.11,0.144 0.18,0.215 0.18,0.287 0,0.081 -0.161,0.099 -0.271,0.099 v 0.161 h 1.759 v -0.161 c -0.23,0 -0.332,-0.055 -0.663,-0.476 l -1.71,-2.167 v -1.599 c 0,-0.107 0.092,-0.161 0.231,-0.161 v -0.161 h -1.588 v 0.161 c 0.121,0 0.212,0.054 0.212,0.161 v 1.599 l -1.942,2.428 c -0.092,0.116 -0.332,0.215 -0.462,0.215 z m -26.895,-4.923 c 0,0.179 -0.141,0.198 -0.342,0.198 h -4.786 v 0.161 c 0.211,0 0.302,0.054 0.302,0.161 v 4.08 c 0,0.107 -0.091,0.162 -0.302,0.162 v 0.161 h 1.729 v -0.161 c -0.191,0 -0.281,-0.055 -0.281,-0.162 v -3.576 h 3.338 c 0.201,0 0.342,0.09 0.342,0.234 h 0.181 v -1.258 z m -10.986,2.03 h 1.79 l -0.844,1.673 z m -2.001,-1.832 v 0.161 c 0.171,0.018 0.262,0.17 0.353,0.341 l 1.86,3.496 c 0.09,0.153 0.181,0.296 0.181,0.386 0,0.117 -0.121,0.162 -0.222,0.18 v 0.161 h 1.699 v -0.161 c -0.09,-0.018 -0.211,-0.055 -0.211,-0.18 0,-0.09 0.051,-0.179 0.142,-0.333 l 2.09,-3.657 c 0.071,-0.125 0.181,-0.179 0.332,-0.233 v -0.161 h -1.769 v 0.161 c 0.05,0 0.161,0.035 0.161,0.108 0,0.053 -0.02,0.136 -0.081,0.233 l -0.382,0.666 h -2.453 l -0.362,-0.638 c -0.061,-0.117 -0.101,-0.216 -0.101,-0.269 0,-0.055 0.091,-0.1 0.191,-0.1 v -0.161 z m -1.624,3.755 h -0.181 c 0,0.126 -0.1,0.198 -0.382,0.198 h -3.258 v -1.115 h 1.971 c 0.262,0 0.422,0.037 0.422,0.306 h 0.181 v -1.401 h -0.181 c 0,0.27 -0.16,0.323 -0.422,0.323 h -1.971 v -1.24 h 3.359 c 0.201,0 0.342,0.09 0.342,0.234 h 0.181 v -1.258 h -0.181 c 0,0.179 -0.141,0.198 -0.342,0.198 h -4.686 v 0.161 c 0.091,0 0.181,0.054 0.181,0.161 v 4.08 c 0,0.107 -0.09,0.162 -0.181,0.162 v 0.161 h 4.585 c 0.282,0 0.382,0.091 0.382,0.215 h 0.181 z M -58,-14.005 v 1.947 c 0,0.138 -0.115,0.207 -0.282,0.207 v 0.206 h 1.974 v -0.206 c -0.115,0 -0.231,-0.069 -0.231,-0.207 v -5.199 c 0,-0.136 0.116,-0.206 0.231,-0.206 v -0.206 h -1.974 v 0.206 c 0.167,0 0.282,0.07 0.282,0.206 v 2.153 h -4.125 v -2.153 c 0,-0.136 0.115,-0.206 0.231,-0.206 v -0.206 h -1.936 v 0.206 c 0.129,0 0.244,0.07 0.244,0.206 v 5.199 c 0,0.138 -0.115,0.207 -0.244,0.207 v 0.206 h 1.936 v -0.206 c -0.116,0 -0.231,-0.069 -0.231,-0.207 v -1.947 z m 77.368,12.206 c 0.425,-1.09 -1.819,-3.44 -2.132,-3.678 -0.632,-0.484 -1.075,-0.472 -1.293,-0.179 -0.236,0.322 -0.087,1.063 0.158,1.589 0.669,1.427 1.825,2.723 2.871,2.571 0,0 0.315,-0.097 0.396,-0.303 m -55.625,0.288 c 0.553,0.329 1.269,0.573 1.246,0.139 -0.03,-0.575 -1.125,-1.467 -1.866,-1.917 -0.385,-0.207 -0.915,-0.5 -1.704,-0.766 0.514,1.207 1.593,2.108 2.324,2.544"
         style="fill:#10427a;fill-opacity:1;fill-rule:nonzero;stroke:none"
         id="path2493"
         inkscape:connector-curvature="0" />
    </g>
  </g>
</svg>
