<?xml version="1.0" encoding="UTF-8"?>
<svg version="1.1" xmlns="http://www.w3.org/2000/svg" width="583" height="617">
<path d="M0 0 C192.39 0 384.78 0 583 0 C583 203.61 583 407.22 583 617 C390.61 617 198.22 617 0 617 C0 413.39 0 209.78 0 0 Z " fill="#FEFEFE" transform="translate(0,0)"/>
<path d="M0 0 C11.18920174 7.72167294 18.5716901 17.45523767 21.125 31 C21.50164641 33.24634626 21.86409047 35.49537358 22.1875 37.75 C23.71503906 38.1521875 23.71503906 38.1521875 25.2734375 38.5625 C36.4346469 41.60949683 46.78192683 45.71073297 57.1875 50.75 C57.83960449 51.06308105 58.49170898 51.37616211 59.16357422 51.69873047 C74.47015225 59.14890462 87.86998297 69.05668147 100.1875 80.75 C101.5542201 81.92635551 102.92811509 83.09448517 104.3125 84.25 C107.1875 86.75 107.1875 86.75 108.1875 88.75 C110.83477917 88.28283309 113.20260356 87.74392574 115.703125 86.73828125 C126.37145816 83.71239752 140.75991949 84.06309893 150.65234375 89.14453125 C162.27631377 96.50578191 171.40806589 106.44696794 174.7734375 120.1328125 C176.73148354 132.50914122 174.83861066 144.79307981 167.99609375 155.35546875 C163.64359329 161.11806655 159.15942656 166.39743427 152.1875 168.75 C152.39246094 169.83796875 152.59742188 170.9259375 152.80859375 172.046875 C153.08103213 173.53119443 153.35315003 175.0155727 153.625 176.5 C153.75970703 177.21027344 153.89441406 177.92054688 154.03320312 178.65234375 C158.14514918 201.31819271 157.33213255 225.17655484 153.1875 247.75 C153.93257813 248.018125 154.67765625 248.28625 155.4453125 248.5625 C164.3082683 252.40058912 170.71262298 261.13589843 174.51171875 269.75390625 C178.4642832 281.0568537 179.10613542 293.6458079 174.1875 304.75 C167.92695443 317.67240816 158.44605391 325.67611149 145.1875 330.75 C133.02264926 333.03843727 122.7393308 331.62947541 111.1875 327.75 C110.95546875 328.30558594 110.7234375 328.86117188 110.484375 329.43359375 C104.88948737 339.42687196 93.20873178 347.01642266 84.1875 353.75 C83.34574219 354.38679688 82.50398438 355.02359375 81.63671875 355.6796875 C71.52361965 363.05630096 60.38890579 368.92457515 49 374.0625 C47.87150635 374.57683594 47.87150635 374.57683594 46.72021484 375.1015625 C42.10122096 377.13162391 37.7938457 378.26151636 32.8125 379.1875 C29.65288339 379.88691723 29.65288339 379.88691723 27.1875 381.75 C25.48303288 385.95465363 24.7079713 389.95327753 23.984375 394.41015625 C22.32602232 404.53795295 16.03139356 412.43062493 8.1875 418.75 C-3.37763314 426.42713966 -15.21066282 428.18984089 -28.8125 426.75 C-40.94237854 424.00192425 -50.52859582 416.90033486 -57.2734375 406.52734375 C-61.47442847 398.94636766 -64.67052271 391.50183165 -63.8125 382.75 C-65.7615625 382.440625 -65.7615625 382.440625 -67.75 382.125 C-87.41488815 378.09824871 -106.71295505 368.60450365 -122.8125 356.75 C-123.86566406 355.98042969 -124.91882813 355.21085937 -126.00390625 354.41796875 C-135.23519898 347.55115384 -143.72342987 339.93423566 -151.8125 331.75 C-153.41683809 332.22859241 -155.02096416 332.70789558 -156.625 333.1875 C-157.51832031 333.45433594 -158.41164062 333.72117187 -159.33203125 333.99609375 C-161.16723055 334.55387873 -162.99283726 335.14344575 -164.8125 335.75 C-178.76649848 337.18276044 -190.80102382 335.54971205 -202.25 326.9375 C-210.38124742 319.91326195 -217.78338031 309.66272366 -219.05126953 298.68212891 C-219.67244294 288.10842803 -219.20742279 279.13061773 -213.8125 269.75 C-213.35488281 268.93144531 -212.89726562 268.11289062 -212.42578125 267.26953125 C-208.34698105 260.59817859 -202.97526095 255.04487004 -195.8125 251.75 C-196.19803922 246.96119709 -196.58958734 242.19127498 -197.32421875 237.44140625 C-200.47162888 216.70421468 -199.18450937 195.50508197 -196.8125 174.75 C-197.41360596 174.36473145 -198.01471191 173.97946289 -198.6340332 173.58251953 C-209.55270683 166.4681196 -218.00146845 156.88761491 -220.8125 143.75 C-222.16694592 129.76148825 -220.64907158 117.81047682 -212 106.3125 C-205.10152706 98.32683808 -194.73380452 90.62353973 -183.86767578 89.55957031 C-181.72064544 89.48189996 -179.58573854 89.47706507 -177.4375 89.5 C-176.36242187 89.48839844 -176.36242187 89.48839844 -175.265625 89.4765625 C-169.02267017 89.49910024 -163.6134368 90.90248407 -157.63671875 92.7109375 C-154.60196807 93.06245882 -154.60196807 93.06245882 -152.20703125 90.5390625 C-151.32970465 89.49818364 -150.46988869 88.4423771 -149.625 87.375 C-148.66616075 86.25006261 -147.70119062 85.13032491 -146.73046875 84.015625 C-146.24497559 83.45810547 -145.75948242 82.90058594 -145.25927734 82.32617188 C-141.56046146 78.29654728 -137.12483598 75.08495214 -132.8125 71.75 C-131.8740625 70.97269531 -130.935625 70.19539063 -129.96875 69.39453125 C-117.36559334 59.17882824 -103.15427562 51.1937203 -88.125 45.125 C-87.33665771 44.80644043 -86.54831543 44.48788086 -85.73608398 44.15966797 C-80.19485765 42.03405753 -74.65663398 40.75176388 -68.8125 39.75 C-68.874375 38.821875 -68.93625 37.89375 -69 36.9375 C-68.93177084 25.63420274 -63.65342413 14.45473981 -55.9375 6.375 C-40.60256089 -7.77588544 -18.13655934 -11.01059878 0 0 Z " fill="#FDFEFE" transform="translate(313.8125,98.25)"/>
<path d="M0 0 C11.18920174 7.72167294 18.5716901 17.45523767 21.125 31 C21.50164641 33.24634626 21.86409047 35.49537358 22.1875 37.75 C23.71503906 38.1521875 23.71503906 38.1521875 25.2734375 38.5625 C36.4346469 41.60949683 46.78192683 45.71073297 57.1875 50.75 C57.83960449 51.06308105 58.49170898 51.37616211 59.16357422 51.69873047 C74.47015225 59.14890462 87.86998297 69.05668147 100.1875 80.75 C101.5542201 81.92635551 102.92811509 83.09448517 104.3125 84.25 C107.1875 86.75 107.1875 86.75 108.1875 88.75 C110.83477917 88.28283309 113.20260356 87.74392574 115.703125 86.73828125 C126.37145816 83.71239752 140.75991949 84.06309893 150.65234375 89.14453125 C162.27631377 96.50578191 171.40806589 106.44696794 174.7734375 120.1328125 C176.73148354 132.50914122 174.83861066 144.79307981 167.99609375 155.35546875 C163.64359329 161.11806655 159.15942656 166.39743427 152.1875 168.75 C152.39246094 169.83796875 152.59742188 170.9259375 152.80859375 172.046875 C153.08103213 173.53119443 153.35315003 175.0155727 153.625 176.5 C153.75970703 177.21027344 153.89441406 177.92054688 154.03320312 178.65234375 C158.14514918 201.31819271 157.33213255 225.17655484 153.1875 247.75 C153.93257813 248.018125 154.67765625 248.28625 155.4453125 248.5625 C164.3082683 252.40058912 170.71262298 261.13589843 174.51171875 269.75390625 C178.4642832 281.0568537 179.10613542 293.6458079 174.1875 304.75 C167.92695443 317.67240816 158.44605391 325.67611149 145.1875 330.75 C133.02264926 333.03843727 122.7393308 331.62947541 111.1875 327.75 C110.95546875 328.30558594 110.7234375 328.86117188 110.484375 329.43359375 C104.88948737 339.42687196 93.20873178 347.01642266 84.1875 353.75 C83.34574219 354.38679688 82.50398438 355.02359375 81.63671875 355.6796875 C71.52361965 363.05630096 60.38890579 368.92457515 49 374.0625 C47.87150635 374.57683594 47.87150635 374.57683594 46.72021484 375.1015625 C42.10122096 377.13162391 37.7938457 378.26151636 32.8125 379.1875 C29.65288339 379.88691723 29.65288339 379.88691723 27.1875 381.75 C25.48303288 385.95465363 24.7079713 389.95327753 23.984375 394.41015625 C22.32602232 404.53795295 16.03139356 412.43062493 8.1875 418.75 C-3.37763314 426.42713966 -15.21066282 428.18984089 -28.8125 426.75 C-40.94237854 424.00192425 -50.52859582 416.90033486 -57.2734375 406.52734375 C-61.47442847 398.94636766 -64.67052271 391.50183165 -63.8125 382.75 C-65.7615625 382.440625 -65.7615625 382.440625 -67.75 382.125 C-87.41488815 378.09824871 -106.71295505 368.60450365 -122.8125 356.75 C-123.86566406 355.98042969 -124.91882813 355.21085937 -126.00390625 354.41796875 C-135.23519898 347.55115384 -143.72342987 339.93423566 -151.8125 331.75 C-153.41683809 332.22859241 -155.02096416 332.70789558 -156.625 333.1875 C-157.51832031 333.45433594 -158.41164062 333.72117187 -159.33203125 333.99609375 C-161.16723055 334.55387873 -162.99283726 335.14344575 -164.8125 335.75 C-178.76649848 337.18276044 -190.80102382 335.54971205 -202.25 326.9375 C-210.38124742 319.91326195 -217.78338031 309.66272366 -219.05126953 298.68212891 C-219.67244294 288.10842803 -219.20742279 279.13061773 -213.8125 269.75 C-213.35488281 268.93144531 -212.89726562 268.11289062 -212.42578125 267.26953125 C-208.34698105 260.59817859 -202.97526095 255.04487004 -195.8125 251.75 C-196.19803922 246.96119709 -196.58958734 242.19127498 -197.32421875 237.44140625 C-200.47162888 216.70421468 -199.18450937 195.50508197 -196.8125 174.75 C-197.41360596 174.36473145 -198.01471191 173.97946289 -198.6340332 173.58251953 C-209.55270683 166.4681196 -218.00146845 156.88761491 -220.8125 143.75 C-222.16694592 129.76148825 -220.64907158 117.81047682 -212 106.3125 C-205.10152706 98.32683808 -194.73380452 90.62353973 -183.86767578 89.55957031 C-181.72064544 89.48189996 -179.58573854 89.47706507 -177.4375 89.5 C-176.36242187 89.48839844 -176.36242187 89.48839844 -175.265625 89.4765625 C-169.02267017 89.49910024 -163.6134368 90.90248407 -157.63671875 92.7109375 C-154.60196807 93.06245882 -154.60196807 93.06245882 -152.20703125 90.5390625 C-151.32970465 89.49818364 -150.46988869 88.4423771 -149.625 87.375 C-148.66616075 86.25006261 -147.70119062 85.13032491 -146.73046875 84.015625 C-146.24497559 83.45810547 -145.75948242 82.90058594 -145.25927734 82.32617188 C-141.56046146 78.29654728 -137.12483598 75.08495214 -132.8125 71.75 C-131.8740625 70.97269531 -130.935625 70.19539063 -129.96875 69.39453125 C-117.36559334 59.17882824 -103.15427562 51.1937203 -88.125 45.125 C-87.33665771 44.80644043 -86.54831543 44.48788086 -85.73608398 44.15966797 C-80.19485765 42.03405753 -74.65663398 40.75176388 -68.8125 39.75 C-68.874375 38.821875 -68.93625 37.89375 -69 36.9375 C-68.93177084 25.63420274 -63.65342413 14.45473981 -55.9375 6.375 C-40.60256089 -7.77588544 -18.13655934 -11.01059878 0 0 Z M19.1875 49.75 C18.97996094 50.43964844 18.77242187 51.12929687 18.55859375 51.83984375 C14.93331722 62.89769559 8.4472098 71.92247974 -1.96875 77.4140625 C-13.25924701 82.77959149 -25.3335 85.31082277 -37.5625 81.1875 C-53.20594951 74.56642748 -59.89114587 65.51419031 -66.8125 50.75 C-97.77388709 57.29690123 -124.04237656 77.82068005 -145.8125 99.75 C-144.49538024 102.59647683 -142.99990557 104.84378117 -141 107.25 C-134.03670365 116.3637261 -130.86961723 127.36556356 -131.8125 138.75 C-133.76070213 150.83545728 -138.80519192 162.27598846 -148.8125 169.75 C-155.77836371 173.94711706 -162.91433877 177.65509194 -171.140625 178.06640625 C-172.33945313 178.12924805 -172.33945313 178.12924805 -173.5625 178.19335938 C-174.3875 178.23267578 -175.2125 178.27199219 -176.0625 178.3125 C-176.90296875 178.35568359 -177.7434375 178.39886719 -178.609375 178.44335938 C-180.67690671 178.54908543 -182.74468281 178.65001295 -184.8125 178.75 C-186.73556181 188.8573575 -187.17037067 198.63171037 -187.125 208.875 C-187.12450653 209.64092468 -187.12401306 210.40684937 -187.12350464 211.19598389 C-188.2391381 230.10555158 -188.2391381 230.10555158 -182.8125 246.75 C-180.83654321 246.84520134 -178.86005787 246.93420685 -176.88256836 246.98901367 C-162.31620177 247.42680462 -150.78743616 251.16347887 -140.5625 262 C-131.90595171 272.27749558 -128.91965706 283.49624258 -129.8125 296.75 C-130.93326596 304.34630264 -134.84946693 315.04712227 -140.59765625 320.41796875 C-142.02748448 321.68048079 -142.02748448 321.68048079 -141.78515625 323.625 C-132.19131999 344.58502782 -97.22261981 359.82548124 -77.2578125 367.2578125 C-72.20833357 369.02673824 -67.14949955 370.26036701 -61.8125 370.75 C-61.6165625 370.07195312 -61.420625 369.39390625 -61.21875 368.6953125 C-57.41073711 356.84451376 -50.5179675 348.98796174 -39.8125 342.75 C-39.11253906 342.31558594 -38.41257812 341.88117188 -37.69140625 341.43359375 C-28.35690474 336.65818923 -14.93827014 337.16369514 -4.99609375 339.73828125 C-2.11750284 340.90196694 0.51090113 342.18221289 3.1875 343.75 C4.26 344.348125 5.3325 344.94625 6.4375 345.5625 C15.19004312 352.52475021 19.66882833 359.69595553 24.1875 369.75 C54.9884125 362.76491185 80.51974222 344.01963994 102.1875 321.75 C100.84952971 318.86380695 99.31017604 316.53113075 97.3125 314.0625 C89.52611382 303.82625086 87.21064291 292.41861535 88.1875 279.75 C90.3151527 268.0811547 96.72617838 257.40145889 106.4375 250.5625 C115.21372441 245.01806093 123.66344971 242.55891134 134 242.6875 C134.69287109 242.69201172 135.38574219 242.69652344 136.09960938 242.70117188 C137.79561068 242.71286844 139.49156703 242.73080076 141.1875 242.75 C144.69049219 232.00749061 144.42396956 220.88330567 144.4375 209.6875 C144.43917175 208.95788055 144.44084351 208.22826111 144.44256592 207.47653198 C144.44403486 196.78633515 144.37497033 186.05810358 141.1875 175.75 C139.23877654 173.34190657 139.23877654 173.34190657 135.625 173.66015625 C134.14569871 173.70685158 132.66652985 173.75787898 131.1875 173.8125 C118.30708602 174.01979269 107.89442698 170.39991129 98.375 161.375 C88.97061995 151.22003563 85.38949559 139.10300987 85.80078125 125.33203125 C86.95648281 114.62719963 92.36159731 105.83995875 99.1875 97.75 C89.64245229 76.90397598 55.88790704 61.93081812 35.98046875 54.046875 C30.34471991 51.95822687 25.17084807 50.4772992 19.1875 49.75 Z " fill="#39A9E0" transform="translate(313.8125,98.25)"/>
<path d="M0 0 C7.8862811 6.30902488 12.96136303 13.40878588 14.2265625 23.578125 C14.64647648 33.61185901 12.25778577 42.232397 6 50.1875 C-1.01629291 57.56360281 -9.00461453 60.30349866 -19.0625 60.5625 C-29.41172082 60.36537198 -36.79277805 57.68642151 -44.1875 50.25 C-51.17301693 40.95090375 -53.25873937 31.77269011 -52.1875 20.25 C-50.25981769 11.67303377 -45.0774724 4.64236664 -37.87890625 -0.3515625 C-35.6881514 -1.61503326 -33.49423573 -2.71609585 -31.1875 -3.75 C-30.259375 -4.183125 -29.33125 -4.61625 -28.375 -5.0625 C-17.63880358 -7.37815021 -9.41013457 -5.16634839 0 0 Z " fill="#FDFEFE" transform="translate(463.1875,200.75)"/>
<path d="M0 0 C7.61061815 5.44192873 13.93455709 12.68961888 16 22 C17.19631738 32.41671471 14.92724442 41.25637195 8.875 49.8125 C3.15003321 56.68246015 -5.15241256 61.36181152 -14.078125 62.3359375 C-26.01130125 62.4828978 -33.21782459 59.5648038 -41.8671875 51.30859375 C-44.6194694 48.32947542 -46.30118699 45.68076152 -48 42 C-48.350625 41.27425781 -48.70125 40.54851562 -49.0625 39.80078125 C-51.81213549 31.58624523 -51.15877781 21.2476989 -47.5625 13.4375 C-43.21523561 5.99816727 -36.81646594 -0.18966953 -28.7109375 -3.375 C-19.1811119 -5.57207795 -8.46782802 -5.16887168 0 0 Z " fill="#FDFEFE" transform="translate(155,204)"/>
<path d="M0 0 C6.26570529 4.84419065 11.31853095 12.94205166 12.8984375 20.68359375 C13.86260415 31.71015418 11.5518117 40.52210431 4.921875 49.41796875 C-1.02142247 56.07262614 -8.03763856 59.136711 -16.86328125 60.08984375 C-27.42466514 60.3420559 -35.23662221 58.83470907 -43.4765625 51.59765625 C-50.30733445 44.44041358 -53.2916995 38.09790271 -53.5390625 28.18359375 C-53.19437948 17.05366781 -50.147195 9.46284781 -42.0625 1.734375 C-29.21635856 -9.09179013 -13.95145987 -8.73911148 0 0 Z " fill="#FDFEFE" transform="translate(315.1015625,453.31640625)"/>
<path d="M0 0 C6.67831659 7.45444528 9.91974793 15.83337843 9.69140625 25.74609375 C8.89191253 35.06083015 5.21928659 43.36700032 -1.81640625 49.625 C-9.34709044 55.26414656 -17.43004042 58.37700422 -26.91796875 58.01953125 C-36.28265023 56.57667662 -44.45752527 51.80768331 -50.5546875 44.61328125 C-56.40558283 35.28271676 -58.05342568 25.97065179 -56.09375 15.04296875 C-53.43349405 6.06069278 -47.49846954 -0.59950546 -39.5546875 -5.38671875 C-26.38367979 -11.83371297 -11.03688142 -9.74019863 0 0 Z " fill="#FDFEFE" transform="translate(163.5546875,365.38671875)"/>
<path d="M0 0 C5.92468477 4.54931152 10.58612499 11.48131937 12.09375 18.80078125 C13.25275166 29.95776429 11.97606017 39.25450006 5.1796875 48.3671875 C-1.03091152 55.22143042 -8.23502714 59.09737376 -17.43359375 60.23828125 C-27.99507066 60.6052381 -35.22247286 58.35257712 -43.28125 51.55078125 C-47.34670526 47.66374723 -50.01972431 44.08744045 -51.90625 38.80078125 C-52.31875 37.72828125 -52.73125 36.65578125 -53.15625 35.55078125 C-54.98159173 26.4240726 -54.73055452 17.93206872 -49.90625 9.80078125 C-44.62001401 2.57978289 -38.41082346 -3.57041394 -29.51953125 -5.796875 C-18.53313053 -7.48835374 -9.45631725 -5.94895368 0 0 Z " fill="#FDFEFE" transform="translate(310.90625,110.19921875)"/>
<path d="M0 0 C7.29296582 5.16585079 13.57411202 11.88174047 15.8125 20.7109375 C17.28702998 32.78682959 15.1366549 41.32723297 7.9140625 51.34375 C5.73760862 53.79529471 3.76218052 55.25730692 0.9375 56.8984375 C0.11507812 57.38699219 -0.70734375 57.87554687 -1.5546875 58.37890625 C-9.82333429 62.56230174 -19.07592853 63.20428486 -28 60.5859375 C-35.86975569 57.5014545 -43.48602055 51.33550213 -47.1875 43.62890625 C-50.58080767 34.83567148 -51.91180905 25.59979646 -48.6875 16.5234375 C-44.28523969 6.88186738 -36.78575075 0.86010263 -27.4375 -3.6015625 C-18.11004116 -5.57467879 -8.31330534 -4.89891208 0 0 Z " fill="#FDFEFE" transform="translate(463.1875,356.2890625)"/>
<path d="M0 0 C5.4140625 -0.061875 5.4140625 -0.061875 10.9375 -0.125 C12.05632568 -0.14320801 13.17515137 -0.16141602 14.32788086 -0.18017578 C24.0977724 -0.2337189 32.17665782 0.82274565 40 7 C45.42485084 12.84214706 45.59079266 18.53757036 45.41015625 26.25 C44.66098198 33.0995933 41.22241575 36.16409133 36.125 40.375 C28.29725681 44.44542646 20.62748458 44.25247199 12 44.125 C8.04 44.08375 4.08 44.0425 0 44 C0 29.48 0 14.96 0 0 Z " fill="#3BAAE1" transform="translate(342,287)"/>
<path d="M0 0 C4.62 0 9.24 0 14 0 C14 14.19 14 28.38 14 43 C1 43 1 43 -2.0625 40.8046875 C-2.701875 39.83789062 -3.34125 38.87109375 -4 37.875 C-4.66 36.92367187 -5.32 35.97234375 -6 34.9921875 C-6.66 34.00476563 -7.32 33.01734375 -8 32 C-9.65 30.02 -11.3 28.04 -13 26 C-13.33 31.61 -13.66 37.22 -14 43 C-18.62 43 -23.24 43 -28 43 C-28 29.14 -28 15.28 -28 1 C-15 1 -15 1 -11.17578125 3.95703125 C-10.18072107 5.21099013 -9.22571045 6.49773602 -8.3125 7.8125 C-7.81556641 8.45509766 -7.31863281 9.09769531 -6.80664062 9.75976562 C-4.75576215 12.43784103 -2.87130667 15.19304 -1 18 C-0.67 12.06 -0.34 6.12 0 0 Z " fill="#37A8E0" transform="translate(205,287)"/>
<path d="M0 0 C2.46915669 1.66193239 4.24080465 3.07542416 6.25 5.1875 C4.6669423 9.4617558 1.74431596 11.45281794 -1.75 14.1875 C-3.75 13.1875 -5.75 12.1875 -7.75 11.1875 C-12.52235191 10.53118441 -15.74951847 10.51370632 -19.8125 13.25 C-22.24484049 16.93774203 -22.37070813 18.84254309 -21.75 23.1875 C-20.59360194 25.50029611 -19.57590172 27.36159828 -17.75 29.1875 C-16.06816052 29.42037008 -14.3787584 29.60014166 -12.6875 29.75 C-11.058125 29.894375 -9.42875 30.03875 -7.75 30.1875 C-7.75 26.5575 -7.75 22.9275 -7.75 19.1875 C-3.46 19.1875 0.83 19.1875 5.25 19.1875 C5.357834 22.12597653 5.43721916 25.06051151 5.5 28 C5.55027344 29.25006836 5.55027344 29.25006836 5.6015625 30.52539062 C5.69999578 36.65286216 5.69999578 36.65286216 3.609375 39.13671875 C-5.11093674 43.02043375 -15.76852004 44.31066914 -24.94140625 41.0546875 C-30.988294 37.61219701 -34.5361297 33.82911089 -36.75 27.1875 C-36.92241708 24.75387528 -37.01665768 22.31429404 -37.0625 19.875 C-37.09988281 18.57949219 -37.13726562 17.28398437 -37.17578125 15.94921875 C-36.5325064 10.26597394 -33.64824742 6.58881939 -29.375 2.9375 C-28.83101562 2.45796875 -28.28703125 1.9784375 -27.7265625 1.484375 C-20.2278747 -3.43571265 -8.02138709 -3.89141641 0 0 Z " fill="#38A9E0" transform="translate(261.75,288.8125)"/>
<path d="M0 0 C4.62 0 9.24 0 14 0 C14.04898437 1.91425781 14.09796875 3.82851563 14.1484375 5.80078125 C14.22346136 8.30470244 14.29900935 10.80860796 14.375 13.3125 C14.4059375 14.57513672 14.436875 15.83777344 14.46875 17.13867188 C14.50742187 18.34716797 14.54609375 19.55566406 14.5859375 20.80078125 C14.6173584 21.91622314 14.6487793 23.03166504 14.68115234 24.1809082 C14.805249 27.20368786 14.805249 27.20368786 17 30 C20.5 30.5 20.5 30.5 24 30 C26.32452624 26.51321064 26.29773734 24.93032429 26.4140625 20.80078125 C26.45273437 19.59228516 26.49140625 18.38378906 26.53125 17.13867188 C26.5621875 15.87603516 26.593125 14.61339844 26.625 13.3125 C26.66367187 12.03826172 26.70234375 10.76402344 26.7421875 9.45117188 C26.83657398 6.30102306 26.91938035 3.1505312 27 0 C31.62 0 36.24 0 41 0 C41.09238892 4.12670505 41.17184732 8.25073905 41.21972656 12.37792969 C41.2397063 13.77844473 41.2669002 15.17887782 41.30175781 16.57910156 C41.65602292 31.18732733 41.65602292 31.18732733 37 38 C29.40178336 44.04756019 21.25703577 43.79189982 12 43 C6.79559277 41.3155547 3.44266357 38.2856339 0.79394531 33.45483398 C-1.09296943 27.62060037 -0.39527241 21.13858689 -0.25 15.0625 C-0.22990977 13.60093585 -0.21166344 12.13934514 -0.1953125 10.67773438 C-0.15492178 7.11729212 -0.07661733 3.56057754 0 0 Z " fill="#36A8E0" transform="translate(273,288)"/>
<path d="M0 0 C11.55 0 23.1 0 35 0 C35 3.63 35 7.26 35 11 C28.07 11 21.14 11 14 11 C14 12.65 14 14.3 14 16 C19.94 16 25.88 16 32 16 C32 19.3 32 22.6 32 26 C26.06 26 20.12 26 14 26 C14 27.98 14 29.96 14 32 C20.93 32 27.86 32 35 32 C35 35.3 35 38.6 35 42 C23.45 42 11.9 42 0 42 C0 28.14 0 14.28 0 0 Z " fill="#36A8E0" transform="translate(393,288)"/>
<path d="M0 0 C4.62 0 9.24 0 14 0 C14 13.86 14 27.72 14 42 C9.38 42 4.76 42 0 42 C0 28.14 0 14.28 0 0 Z " fill="#35A8E0" transform="translate(321,288)"/>
<path d="M0 0 C4.62 0 9.24 0 14 0 C14 13.86 14 27.72 14 42 C9.38 42 4.76 42 0 42 C0 28.14 0 14.28 0 0 Z " fill="#35A8E0" transform="translate(156,288)"/>
<path d="M0 0 C10.46428571 0 10.46428571 0 14 3 C16.33067577 6.21855225 16.46741137 9.10490526 16 13 C12.87692308 18.70769231 12.87692308 18.70769231 9 20 C6.03 20 3.06 20 0 20 C0 13.4 0 6.8 0 0 Z " fill="#FBFDFE" transform="translate(357,299)"/>
</svg>
