<?xml version="1.0" encoding="UTF-8"?>
<svg version="1.1" xmlns="http://www.w3.org/2000/svg" width="200" height="200">
<path d="M0 0 C66 0 132 0 200 0 C200 66 200 132 200 200 C134 200 68 200 0 200 C0 134 0 68 0 0 Z " fill="#0180C4" transform="translate(0,0)"/>
<path d="M0 0 C1.10472153 -0.00953201 2.20944305 -0.01906403 3.34764099 -0.02888489 C4.53624222 -0.02797348 5.72484344 -0.02706207 6.94946289 -0.02612305 C8.17492325 -0.03040817 9.40038361 -0.0346933 10.66297913 -0.03910828 C13.2544798 -0.04485111 15.84599659 -0.0453522 18.4375 -0.04101562 C22.4033558 -0.03785674 26.36846501 -0.06131306 30.33422852 -0.08666992 C32.8518057 -0.088943 35.36938489 -0.08964637 37.88696289 -0.08862305 C39.07353989 -0.09783279 40.26011688 -0.10704254 41.48265076 -0.11653137 C43.14446129 -0.10718819 43.14446129 -0.10718819 44.83984375 -0.09765625 C46.29734291 -0.09860039 46.29734291 -0.09860039 47.7842865 -0.0995636 C51.89336553 0.46988734 54.4093779 2.17006652 57.27285767 5.11170959 C58.81190384 7.85884907 58.86521577 9.73921468 58.87280273 12.88183594 C58.88225922 14.00657822 58.8917157 15.1313205 58.90145874 16.29014587 C58.89538605 17.50062088 58.88931335 18.71109589 58.88305664 19.95825195 C58.88592682 21.20590836 58.888797 22.45356476 58.89175415 23.73902893 C58.89379595 26.37793181 58.88976738 29.01600137 58.87573242 31.65478516 C58.85865783 35.02864406 58.86847346 38.40178605 58.88644981 41.77561855 C58.89993147 45.00318829 58.89047585 48.23067284 58.88305664 51.45825195 C58.88912933 52.66670273 58.89520203 53.8751535 58.90145874 55.120224 C58.88727402 56.81206566 58.88727402 56.81206566 58.87280273 58.53808594 C58.87041595 59.52751694 58.86802917 60.51694794 58.86557007 61.53636169 C58.41558695 64.77086544 57.38415597 66.63929482 55.48461914 69.2746582 C49.89244295 73.5008766 43.28477231 72.60907185 36.60961914 72.4621582 C34.86165039 72.44185547 34.86165039 72.44185547 33.07836914 72.42114258 C30.21330796 72.38591642 27.34920537 72.33665535 24.48461914 72.2746582 C24.48051025 71.39729004 24.47640137 70.51992187 24.47216797 69.6159668 C24.44508565 66.33878943 24.39590016 63.06345361 24.33203125 59.78686523 C24.30893388 58.37291884 24.29447495 56.95880241 24.2890625 55.54467773 C24.61646325 46.43227158 24.61646325 46.43227158 21.12133789 38.3762207 C17.06669054 35.14451659 13.89729897 35.11260038 8.84790039 34.95825195 C7.54916992 34.91635742 6.25043945 34.87446289 4.91235352 34.83129883 C3.54061153 34.79148833 2.1688667 34.75177604 0.79711914 34.7121582 C-0.58635731 34.66894985 -1.96982113 34.62533482 -3.35327148 34.58129883 C-6.74053805 34.47507793 -10.12787885 34.37303463 -13.51538086 34.2746582 C-13.63194869 30.06655936 -13.70275697 25.85887825 -13.76538086 21.6496582 C-13.79889648 20.45985352 -13.83241211 19.27004883 -13.86694336 18.04418945 C-13.9918981 6.86074055 -13.9918981 6.86074055 -9.51538086 2.2746582 C-6.295703 0.25506871 -3.76836987 0.01788329 0 0 Z " fill="#FCFEFE" transform="translate(117.515380859375,23.725341796875)"/>
<path d="M0 0 C1.10156937 -0.01283524 2.20313873 -0.02567047 3.33808899 -0.03889465 C5.12402718 -0.04997505 5.12402718 -0.04997505 6.94604492 -0.0612793 C8.17054855 -0.06935104 9.39505219 -0.07742279 10.65666199 -0.08573914 C13.24993473 -0.09957832 15.84322568 -0.11030121 18.43652344 -0.11816406 C22.40033479 -0.13538432 26.36331382 -0.17927484 30.3269043 -0.22338867 C32.84577837 -0.23351493 35.36465953 -0.24203124 37.88354492 -0.2487793 C39.06809769 -0.26628738 40.25265045 -0.28379547 41.47309875 -0.30183411 C51.95064017 -0.27424451 51.95064017 -0.27424451 56.61401367 4.17700195 C58.96480885 7.40292297 58.84773291 10.3376398 58.80932617 14.25512695 C58.80288086 15.4152832 58.79643555 16.57543945 58.78979492 17.77075195 C58.7646582 19.5805957 58.7646582 19.5805957 58.73901367 21.42700195 C58.72999023 22.6490332 58.7209668 23.87106445 58.71166992 25.13012695 C58.68810881 28.14594977 58.65521074 31.16137687 58.61401367 34.17700195 C57.29796143 34.18316528 57.29796143 34.18316528 55.95532227 34.18945312 C52.6781449 34.21653544 49.40280908 34.26572094 46.1262207 34.32958984 C44.71227431 34.35268721 43.29815788 34.36714615 41.8840332 34.37255859 C32.75321556 34.0404044 32.75321556 34.0404044 24.71557617 37.6027832 C21.46589906 41.58333565 21.44794063 43.82348522 21.29760742 48.93481445 C21.27682632 49.59786591 21.25604523 50.26091736 21.2346344 50.94406128 C21.16922136 53.0632689 21.11029262 55.18260095 21.05151367 57.30200195 C21.00832058 58.73821277 20.96470603 60.17441097 20.9206543 61.6105957 C20.81354868 65.13259789 20.71225792 68.6547402 20.61401367 72.17700195 C16.40591483 72.29356979 12.19823371 72.36437806 7.98901367 72.42700195 C6.79920898 72.46051758 5.6094043 72.4940332 4.38354492 72.52856445 C-6.79990398 72.65351919 -6.79990398 72.65351919 -11.38598633 68.17700195 C-13.41641584 64.94290267 -13.65151564 62.37142825 -13.69238281 58.58569336 C-13.70837021 57.46417877 -13.7243576 56.34266418 -13.74082947 55.18716431 C-13.74619217 53.97982635 -13.75155487 52.7724884 -13.75708008 51.52856445 C-13.76610855 50.28327972 -13.77513702 49.037995 -13.78443909 47.75497437 C-13.79894833 45.12043801 -13.80862496 42.48633548 -13.81152344 39.85180664 C-13.81583605 37.15511906 -13.83671766 34.45938379 -13.87304688 31.76293945 C-13.92182616 27.87201807 -13.93730626 23.98225985 -13.94458008 20.09106445 C-13.9641124 18.88777496 -13.98364471 17.68448547 -14.00376892 16.44473267 C-13.95352442 7.12106779 -13.95352442 7.12106779 -11.03857422 3.43237305 C-7.33101661 0.28001067 -4.70709432 0.04776705 0 0 Z " fill="#FBFDFD" transform="translate(37.385986328125,23.822998046875)"/>
<path d="M0 0 C4.02058602 -0.11686443 8.04073082 -0.18747388 12.0625 -0.25 C13.19623047 -0.28351563 14.32996094 -0.31703125 15.49804688 -0.3515625 C22.21306112 -0.4298717 26.65284295 -0.24212737 32 4 C34.05832401 7.18810261 34.25684435 9.76164098 34.2746582 13.51538086 C34.28419022 14.62010239 34.29372223 15.72482391 34.30354309 16.86302185 C34.30263168 18.05162308 34.30172028 19.2402243 34.30078125 20.46484375 C34.30506638 21.69030411 34.3093515 22.91576447 34.31376648 24.17835999 C34.31950931 26.76986066 34.3200104 29.36137745 34.31567383 31.95288086 C34.31251495 35.91873666 34.33597127 39.88384587 34.36132812 43.84960938 C34.3636012 46.36718656 34.36430458 48.88476575 34.36328125 51.40234375 C34.372491 52.58892075 34.38170074 53.77549774 34.39118958 54.99803162 C34.38496078 56.1059053 34.37873199 57.21377899 34.37231445 58.35522461 C34.37294388 59.32689072 34.3735733 60.29855682 34.3742218 61.29966736 C33.7694595 65.66354829 32.143638 68.12441523 28.66430664 70.78823853 C25.67179521 72.14927183 23.64759809 72.3801102 20.37109375 72.38818359 C19.26644775 72.39764008 18.16180176 72.40709656 17.02368164 72.4168396 C15.8402417 72.41076691 14.65680176 72.40469421 13.4375 72.3984375 C12.21345459 72.40130768 10.98940918 72.40417786 9.72827148 72.40713501 C7.14273617 72.40917466 4.5571854 72.40365179 1.97167969 72.39111328 C-1.98537712 72.37505933 -5.94141246 72.3909665 -9.8984375 72.41015625 C-12.41146059 72.4081738 -14.92448304 72.4043301 -17.4375 72.3984375 C-18.62093994 72.40451019 -19.80437988 72.41058289 -21.02368164 72.4168396 C-22.12832764 72.40738312 -23.23297363 72.39792664 -24.37109375 72.38818359 C-25.33974365 72.38579681 -26.30839355 72.38341003 -27.30639648 72.38095093 C-31.59495838 71.77442824 -34.212144 70.04249927 -36.80078125 66.6171875 C-38.61629747 61.14107018 -38.31349672 55.84977421 -38.1875 50.125 C-38.17396484 48.9596875 -38.16042969 47.794375 -38.14648438 46.59375 C-38.11125821 43.72868882 -38.06199715 40.86458623 -38 38 C-37.14768799 37.98541748 -36.29537598 37.97083496 -35.41723633 37.95581055 C-32.23928825 37.89456715 -29.06197454 37.82037971 -25.88452148 37.73754883 C-24.51224042 37.70440194 -23.13982638 37.67633829 -21.76733398 37.65356445 C-19.78862234 37.61983234 -17.81028624 37.5659851 -15.83203125 37.51171875 C-14.64327393 37.48553467 -13.4545166 37.45935059 -12.22973633 37.43237305 C-7.59300237 36.81164163 -5.10969226 35.40883595 -2.21948242 31.73950195 C-0.7330054 28.40021093 -0.56869391 25.81870358 -0.48828125 22.16796875 C-0.45283203 20.87568359 -0.41738281 19.58339844 -0.38085938 18.25195312 C-0.35776319 16.89714066 -0.33498065 15.54232282 -0.3125 14.1875 C-0.27930239 12.81311883 -0.24481047 11.43876829 -0.20898438 10.06445312 C-0.12658736 6.70971766 -0.05740605 3.35524096 0 0 Z " fill="#FAFDFE" transform="translate(142,104)"/>
<path d="M0 0 C1.73540039 0.01450195 1.73540039 0.01450195 3.50585938 0.02929688 C4.70404297 0.05443359 5.90222656 0.07957031 7.13671875 0.10546875 C8.96299805 0.12577148 8.96299805 0.12577148 10.82617188 0.14648438 C13.8259722 0.18177614 16.8248685 0.23108394 19.82421875 0.29296875 C19.83880127 1.14528076 19.85338379 1.99759277 19.8684082 2.87573242 C19.9296516 6.0536805 20.00383904 9.23099421 20.08666992 12.40844727 C20.11981681 13.78072833 20.14788046 15.15314237 20.1706543 16.52563477 C20.20438641 18.50434641 20.25823365 20.48268251 20.3125 22.4609375 C20.33868408 23.64969482 20.36486816 24.83845215 20.3918457 26.06323242 C20.98089488 30.46330672 22.49458741 32.94241146 25.57714844 36.07348633 C28.69950694 37.76798663 31.23644134 37.72966838 34.77734375 37.8046875 C35.43756531 37.8226387 36.09778687 37.8405899 36.77801514 37.85908508 C38.87668564 37.91305684 40.97513052 37.94703918 43.07421875 37.98046875 C44.50133339 38.0136537 45.92841831 38.04814446 47.35546875 38.08398438 C50.84483527 38.16877345 54.33428066 38.23564763 57.82421875 38.29296875 C57.94108318 42.31355477 58.01169263 46.33369957 58.07421875 50.35546875 C58.10773438 51.48919922 58.14125 52.62292969 58.17578125 53.79101562 C58.25409045 60.50602987 58.06634612 64.9458117 53.82421875 70.29296875 C50.62216377 72.36223285 48.00366268 72.5586598 44.23291016 72.59936523 C43.11139557 72.61535263 41.98988098 72.63134003 40.8343811 72.64781189 C39.62704315 72.65317459 38.4197052 72.65853729 37.17578125 72.6640625 C35.93049652 72.67309097 34.68521179 72.68211945 33.40219116 72.69142151 C30.7676548 72.70593075 28.13355228 72.71560739 25.49902344 72.71850586 C22.80233586 72.72281848 20.10660058 72.74370008 17.41015625 72.7800293 C13.51923487 72.82880858 9.62947664 72.84428868 5.73828125 72.8515625 C4.53499176 72.87109482 3.33170227 72.89062714 2.09194946 72.91075134 C-7.23171541 72.86050684 -7.23171541 72.86050684 -10.92041016 69.94555664 C-14.08042259 66.22900164 -14.30380856 63.60913615 -14.33691406 58.89111328 C-14.34652161 57.78631622 -14.35612915 56.68151917 -14.36602783 55.54324341 C-14.37027771 54.3494809 -14.37452759 53.15571838 -14.37890625 51.92578125 C-14.38460632 50.69890594 -14.3903064 49.47203064 -14.3961792 48.20797729 C-14.40563169 45.61050276 -14.41216416 43.01301622 -14.41601562 40.41552734 C-14.42572531 36.44086826 -14.45674903 32.46672528 -14.48828125 28.4921875 C-14.49481086 25.97005516 -14.5000615 23.44791911 -14.50390625 20.92578125 C-14.51625305 19.7360672 -14.52859985 18.54635315 -14.5413208 17.32058716 C-14.5383197 16.20948578 -14.5353186 15.0983844 -14.53222656 13.95361328 C-14.53587219 12.97893097 -14.53951782 12.00424866 -14.54327393 11.00003052 C-13.96529307 6.74244941 -12.23226104 4.11656799 -8.87426758 1.4987793 C-5.69658954 0.07884337 -3.47183462 -0.0513079 0 0 Z " fill="#FDFEFE" transform="translate(38.17578125,103.70703125)"/>
<path d="M0 0 C4.56237931 -0.08719631 9.12454386 -0.14045922 13.6875 -0.1875 C14.98107422 -0.21263672 16.27464844 -0.23777344 17.60742188 -0.26367188 C18.85458984 -0.27333984 20.10175781 -0.28300781 21.38671875 -0.29296875 C22.53358154 -0.3086792 23.68044434 -0.32438965 24.86206055 -0.34057617 C29.59031432 0.17260472 31.95624902 1.96883372 35.28808594 5.26049805 C37.43528668 8.69657043 37.46164133 10.80185471 37.390625 14.83203125 C37.37773437 16.12431641 37.36484375 17.41660156 37.3515625 18.74804688 C37.31814634 20.10287546 37.28428662 21.45769317 37.25 22.8125 C37.22992034 24.18682317 37.21167213 25.56117439 37.1953125 26.93554688 C37.14821732 30.29107856 37.08245135 33.64518127 37 37 C34.20822431 34.20822431 34.68786516 32.36816428 34.5859375 28.4609375 C34.52792969 26.50800781 34.52792969 26.50800781 34.46875 24.515625 C34.43729237 23.13542138 34.40604509 21.75521296 34.375 20.375 C34.33682066 18.98695459 34.29776895 17.59893289 34.2578125 16.2109375 C34.16327057 12.80742815 34.07772103 9.40392835 34 6 C33.0409375 5.814375 33.0409375 5.814375 32.0625 5.625 C31.0415625 5.315625 31.0415625 5.315625 30 5 C29.67 4.34 29.34 3.68 29 3 C14.15 2.505 14.15 2.505 -1 2 C-0.67 1.34 -0.34 0.68 0 0 Z " fill="#3996C5" transform="translate(105,58)"/>
<path d="M0 0 C0.99 0.495 0.99 0.495 2 1 C1.99555878 1.7052179 1.99111755 2.41043579 1.98654175 3.13702393 C1.94644503 9.78745691 1.91600544 16.4378561 1.89637566 23.08838272 C1.88594448 26.50737928 1.87179757 29.92627584 1.84912109 33.34521484 C1.82320667 37.277006 1.81352168 41.20875685 1.8046875 45.140625 C1.79436493 46.36678528 1.78404236 47.59294556 1.77340698 48.85626221 C1.77325592 49.99714294 1.77310486 51.13802368 1.77294922 52.31347656 C1.768508 53.31719299 1.76406677 54.32090942 1.75949097 55.3550415 C2.00934027 58.10271806 2.51806442 59.69195484 4 62 C7.76550282 64.90705906 10.69801236 65.40042683 15.39453125 65.51171875 C17.19760742 65.56489258 17.19760742 65.56489258 19.03710938 65.61914062 C20.28298828 65.64169922 21.52886719 65.66425781 22.8125 65.6875 C24.07771484 65.72166016 25.34292969 65.75582031 26.64648438 65.79101562 C29.76423445 65.87337129 32.88170759 65.94256529 36 66 C36 66.33 36 66.66 36 67 C31.94323508 67.04954711 27.88658806 67.085789 23.82958984 67.10986328 C22.45032685 67.11990253 21.07108504 67.13353677 19.69189453 67.15087891 C17.7061486 67.17521754 15.7202455 67.18543255 13.734375 67.1953125 C11.94338379 67.21102295 11.94338379 67.21102295 10.11621094 67.22705078 C7.08272153 67.00602719 5.56481163 66.5248507 3 65 C2.01 64.67 1.02 64.34 0 64 C0 42.88 0 21.76 0 0 Z " fill="#1A79AB" transform="translate(23,30)"/>
<path d="M0 0 C0.33 0 0.66 0 1 0 C1.02505615 0.70084717 1.0501123 1.40169434 1.07592773 2.1237793 C1.19226545 5.31185488 1.31482044 8.49966242 1.4375 11.6875 C1.47681641 12.79029297 1.51613281 13.89308594 1.55664062 15.02929688 C1.59853516 16.09599609 1.64042969 17.16269531 1.68359375 18.26171875 C1.72025146 19.24100342 1.75690918 20.22028809 1.79467773 21.22924805 C2.14626715 25.97382384 2.44206417 28.7514499 6 32 C6 32.66 6 33.32 6 34 C15.9 34.33 25.8 34.66 36 35 C36.33 35.66 36.66 36.32 37 37 C32.99848192 37.14935324 28.99806236 37.2576761 24.99438477 37.32958984 C23.63537303 37.35959295 22.27655219 37.40041185 20.91821289 37.45263672 C8.18504882 37.9296043 8.18504882 37.9296043 3.62890625 34.1640625 C-0.08137308 30.34034258 -0.12100186 26.74141101 -0.09765625 21.58203125 C-0.09443359 20.32841797 -0.09121094 19.07480469 -0.08789062 17.78320312 C-0.07951172 16.47287109 -0.07113281 15.16253906 -0.0625 13.8125 C-0.05748317 12.47721519 -0.05292059 11.14192859 -0.04882812 9.80664062 C-0.03702695 6.53771527 -0.02056297 3.26888009 0 0 Z " fill="#499ECB" transform="translate(58,105)"/>
<path d="M0 0 C1.875 0.25 1.875 0.25 4 1 C6.381536 4.45556204 6.23130932 7.63073757 6.1953125 11.734375 C6.18886719 13.02988281 6.18242187 14.32539062 6.17578125 15.66015625 C6.15907193 17.02344019 6.14214206 18.38672144 6.125 19.75 C6.1149634 21.12889985 6.10583873 22.50780665 6.09765625 23.88671875 C6.07408093 27.25798882 6.0411727 30.62890636 6 34 C21.01991184 33.28295318 21.01991184 33.28295318 36 32 C33.94766315 34.2477975 32.99332739 35.0022242 30 36 C28.08093083 36.08266486 26.15910526 36.10740663 24.23828125 36.09765625 C23.12001953 36.09443359 22.00175781 36.09121094 20.84960938 36.08789062 C19.68236328 36.07951172 18.51511719 36.07113281 17.3125 36.0625 C16.13365234 36.05798828 14.95480469 36.05347656 13.74023438 36.04882812 C10.82677211 36.03703273 7.91341137 36.0205727 5 36 C4.9906543 35.12263184 4.98130859 34.24526367 4.97167969 33.34130859 C4.92748397 30.06432578 4.86579348 26.78861857 4.79248047 23.51220703 C4.76437608 22.09826552 4.74310933 20.68416998 4.72900391 19.27001953 C4.70742544 17.22869616 4.66070914 15.18920401 4.609375 13.1484375 C4.5779541 11.31031494 4.5779541 11.31031494 4.54589844 9.43505859 C3.87901233 5.23868671 2.55928923 3.33064295 0 0 Z " fill="#CAEAF5" transform="translate(137,60)"/>
<path d="M0 0 C1.10156937 -0.01283524 2.20313873 -0.02567047 3.33808899 -0.03889465 C5.12402718 -0.04997505 5.12402718 -0.04997505 6.94604492 -0.0612793 C8.17054855 -0.06935104 9.39505219 -0.07742279 10.65666199 -0.08573914 C13.24993473 -0.09957832 15.84322568 -0.11030121 18.43652344 -0.11816406 C22.40033479 -0.13538432 26.36331382 -0.17927484 30.3269043 -0.22338867 C32.84577837 -0.23351493 35.36465953 -0.24203124 37.88354492 -0.2487793 C39.06809769 -0.26628738 40.25265045 -0.28379547 41.47309875 -0.30183411 C47.7678103 -0.28525879 51.90970695 -0.22530994 56.61401367 4.17700195 C57.48901367 6.42700195 57.48901367 6.42700195 57.61401367 8.17700195 C56.62401367 7.84700195 55.63401367 7.51700195 54.61401367 7.17700195 C54.11901367 5.69200195 54.11901367 5.69200195 53.61401367 4.17700195 C50.53299366 2.08885903 47.92907561 1.92442382 44.26635742 1.91821289 C43.19844971 1.91190857 42.13054199 1.90560425 41.03027344 1.89910889 C39.30828735 1.90518158 39.30828735 1.90518158 37.55151367 1.91137695 C36.36807373 1.9094635 35.18463379 1.90755005 33.96533203 1.90557861 C31.46378364 1.90421791 28.96222817 1.90790632 26.46069336 1.91625977 C22.62882648 1.92696059 18.79742845 1.91636026 14.96557617 1.90356445 C12.53588764 1.90488607 10.10619939 1.9074485 7.67651367 1.91137695 C6.52852295 1.90732849 5.38053223 1.90328003 4.19775391 1.89910889 C3.12984619 1.90541321 2.06193848 1.91171753 0.96166992 1.91821289 C0.02331299 1.91980408 -0.91504395 1.92139526 -1.88183594 1.92303467 C-6.10644351 2.35148822 -8.57697669 4.08709135 -11.38598633 7.17700195 C-11.38598633 4.17700195 -11.38598633 4.17700195 -10.07348633 2.55200195 C-6.92424353 -0.01404774 -3.89624146 0.03953861 0 0 Z " fill="#D9F9FD" transform="translate(37.385986328125,23.822998046875)"/>
<path d="M0 0 C0.66 0 1.32 0 2 0 C1.99333817 0.71330475 1.98667633 1.4266095 1.97981262 2.16152954 C1.91958114 8.89961189 1.87396466 15.63761857 1.84456348 22.37590981 C1.82893958 25.83975378 1.80776205 29.30337439 1.77368164 32.76708984 C1.7347054 36.75355309 1.72026363 40.7399274 1.70703125 44.7265625 C1.69154739 45.96427399 1.67606354 47.20198547 1.66011047 48.47720337 C1.62003109 56.71401292 1.62003109 56.71401292 5 64 C3.68 64 2.36 64 1 64 C-0.07619365 60.77141906 -0.12052496 58.45460721 -0.11352539 55.05981445 C-0.11344986 53.83877518 -0.11337433 52.6177359 -0.11329651 51.35969543 C-0.10813522 50.04087875 -0.10297394 48.72206207 -0.09765625 47.36328125 C-0.0957908 45.99993441 -0.0943675 44.63658689 -0.09336853 43.27323914 C-0.08955332 39.68771509 -0.07973155 36.10223165 -0.06866455 32.51672363 C-0.05842901 28.8568578 -0.05386632 25.1969854 -0.04882812 21.53710938 C-0.03810838 14.35805442 -0.02104393 7.1790329 0 0 Z " fill="#1C7CAE" transform="translate(23,110)"/>
<path d="M0 0 C1.43007439 2.86014878 0.67800284 5.25866822 0.29345703 8.33935547 C-0.22790553 13.06631823 -0.37074702 17.81268432 -0.5625 22.5625 C-0.60568359 23.57119141 -0.64886719 24.57988281 -0.69335938 25.61914062 C-0.79829618 28.07932575 -0.90045701 30.53959175 -1 33 C-1.66 33 -2.32 33 -3 33 C-3.07431978 28.94328317 -3.12868133 24.88683154 -3.16479492 20.82958984 C-3.17985422 19.45028782 -3.20030613 18.07103347 -3.22631836 16.69189453 C-3.26282415 14.70626597 -3.27814853 12.72028382 -3.29296875 10.734375 C-3.3086792 9.54038086 -3.32438965 8.34638672 -3.34057617 7.11621094 C-2.97432368 3.76506629 -2.2746046 2.42414608 0 0 Z " fill="#3192C4" transform="translate(61,62)"/>
<path d="M0 0 C0.33 0 0.66 0 1 0 C1.01213028 1.02024261 1.01213028 1.02024261 1.02450562 2.06109619 C1.11049598 9.13385872 1.20999747 16.20633921 1.31738281 23.27880859 C1.35568967 25.91905993 1.39053949 28.55936376 1.421875 31.19970703 C1.46748789 34.99270401 1.52548956 38.78533905 1.5859375 42.578125 C1.59748871 43.76053772 1.60903992 44.94295044 1.62094116 46.16119385 C1.64081085 47.26203308 1.66068054 48.36287231 1.68115234 49.49707031 C1.70113785 50.94935028 1.70113785 50.94935028 1.7215271 52.43096924 C2.01447451 55.1335335 2.51515774 56.73495481 4 59 C4.99 59.66 5.98 60.32 7 61 C7 61.66 7 62.32 7 63 C3.12911377 61.53173281 1.8275884 59.6625686 0 56 C-0.36076355 53.27275085 -0.36076355 53.27275085 -0.34057617 50.29174805 C-0.34034958 49.17096359 -0.34012299 48.05017914 -0.33988953 46.89543152 C-0.32440567 45.6963063 -0.30892181 44.49718109 -0.29296875 43.26171875 C-0.28872391 42.02581497 -0.28447906 40.78991119 -0.28010559 39.51655579 C-0.26617779 36.24323918 -0.23925977 32.97037092 -0.20599365 29.69720459 C-0.17521247 26.35221485 -0.16183918 23.00720553 -0.14648438 19.66210938 C-0.11342643 13.10789819 -0.06323464 6.55398575 0 0 Z " fill="#DEFBFE" transform="translate(24,112)"/>
<path d="M0 0 C0.67957764 0.4844458 1.35915527 0.9688916 2.05932617 1.46801758 C5.60327056 3.31428167 8.06754377 3.42696902 12.05078125 3.51171875 C12.70958786 3.52966995 13.36839447 3.54762115 14.04716492 3.56611633 C16.13554631 3.61996656 18.2237026 3.65403108 20.3125 3.6875 C21.7350572 3.7206957 23.15758479 3.75518744 24.58007812 3.79101562 C28.05341317 3.87810216 31.52574799 3.93837718 35 4 C35 12.25 35 20.5 35 29 C34.67 29 34.34 29 34 29 C34 21.08 34 13.16 34 5 C31.79699219 5.01160156 29.59398437 5.02320313 27.32421875 5.03515625 C25.18953597 5.04295599 23.05485478 5.04902753 20.92016602 5.05493164 C19.43708587 5.05995903 17.95401067 5.06678185 16.47094727 5.07543945 C14.33869199 5.08757482 12.20650227 5.09324425 10.07421875 5.09765625 C8.79119873 5.10289307 7.50817871 5.10812988 6.1862793 5.11352539 C3 5 3 5 0 4 C0 2.68 0 1.36 0 0 Z " fill="#C2E6F3" transform="translate(61,138)"/>
<path d="M0 0 C1.73540039 0.01450195 1.73540039 0.01450195 3.50585938 0.02929688 C4.70404297 0.05443359 5.90222656 0.07957031 7.13671875 0.10546875 C8.96299805 0.12577148 8.96299805 0.12577148 10.82617188 0.14648438 C13.8259722 0.18177614 16.8248685 0.23108394 19.82421875 0.29296875 C19.82421875 0.62296875 19.82421875 0.95296875 19.82421875 1.29296875 C19.09307861 1.33784424 18.36193848 1.38271973 17.60864258 1.42895508 C14.2836324 1.64077445 10.96033985 1.87290683 7.63671875 2.10546875 C6.48623047 2.17572266 5.33574219 2.24597656 4.15039062 2.31835938 C3.03857422 2.39892578 1.92675781 2.47949219 0.78125 2.5625 C-0.2399292 2.63057861 -1.2611084 2.69865723 -2.31323242 2.76879883 C-5.52969303 3.3577746 -7.53450651 4.38834203 -10.17578125 6.29296875 C-10.50578125 6.95296875 -10.83578125 7.61296875 -11.17578125 8.29296875 C-11.83578125 8.29296875 -12.49578125 8.29296875 -13.17578125 8.29296875 C-12.25632159 5.20024082 -11.59323704 3.6065595 -8.97973633 1.64331055 C-5.72328921 0.07505552 -3.59899336 -0.05318709 0 0 Z " fill="#B2DAEA" transform="translate(38.17578125,103.70703125)"/>
<path d="M0 0 C-0.1875 2.25 -0.1875 2.25 -1 5 C-2.2375 5.69609375 -2.2375 5.69609375 -3.5 6.40625 C-7.57593226 10.63502972 -6.78299403 15.59796685 -6.8125 21.25 C-6.83763672 22.37664063 -6.86277344 23.50328125 -6.88867188 24.6640625 C-6.94754892 27.44305908 -6.98382525 30.22048033 -7 33 C-7.33 33 -7.66 33 -8 33 C-8.11656783 28.79190116 -8.18737611 24.58422004 -8.25 20.375 C-8.28351563 19.18519531 -8.31703125 17.99539062 -8.3515625 16.76953125 C-8.47498083 5.72359087 -8.47498083 5.72359087 -4 1 C-2 0 -2 0 0 0 Z " fill="#BADDEC" transform="translate(112,25)"/>
<path d="M0 0 C1.1446875 1.175625 1.1446875 1.175625 2.3125 2.375 C6.41109159 6.3782755 8.57635932 7.25567209 14.19921875 7.4140625 C15.40771484 7.45273438 16.61621094 7.49140625 17.86132812 7.53125 C19.7552832 7.57765625 19.7552832 7.57765625 21.6875 7.625 C22.96173828 7.66367188 24.23597656 7.70234375 25.54882812 7.7421875 C28.69907292 7.83657686 31.84930991 7.9221583 35 8 C35 8.33 35 8.66 35 9 C30.94323508 9.04954711 26.88658806 9.085789 22.82958984 9.10986328 C21.45032685 9.11990253 20.07108504 9.13353677 18.69189453 9.15087891 C16.7061486 9.17521754 14.7202455 9.18543255 12.734375 9.1953125 C10.94338379 9.21102295 10.94338379 9.21102295 9.11621094 9.22705078 C6.08272153 9.00602719 4.56481163 8.5248507 2 7 C1.01 6.67 0.02 6.34 -1 6 C-1.042721 4.33388095 -1.04063832 2.66617115 -1 1 C-0.67 0.67 -0.34 0.34 0 0 Z " fill="#127AB3" transform="translate(24,88)"/>
<path d="M0 0 C0.33 0 0.66 0 1 0 C1.103125 0.763125 1.20625 1.52625 1.3125 2.3125 C2.05600892 5.21894395 2.84858032 6.03566029 5 8 C5 8.66 5 9.32 5 10 C5.99 10 6.98 10 8 10 C8 10.66 8 11.32 8 12 C5.36638744 11.62376963 3.92779828 10.94785432 1.75 9.375 C-0.61110785 6.17063934 -0.29868478 3.88290217 0 0 Z " fill="#2283B8" transform="translate(59,129)"/>
<path d="M0 0 C1.875 0.25 1.875 0.25 4 1 C6.39522585 4.45977068 6.20715429 7.64228534 6.125 11.75 C6.10695312 12.92046875 6.08890625 14.0909375 6.0703125 15.296875 C6.03550781 16.63492188 6.03550781 16.63492188 6 18 C5.67 18 5.34 18 5 18 C4.97421875 17.20335938 4.9484375 16.40671875 4.921875 15.5859375 C4.57910663 9.18240118 4.23755897 4.92103622 0 0 Z " fill="#DBF8FC" transform="translate(137,60)"/>
<path d="M0 0 C2.66666667 2.66666667 5.33333333 5.33333333 8 8 C5.36 7.67 2.72 7.34 0 7 C-0.93423645 3.98968256 -1.04449911 3.13349732 0 0 Z " fill="#1E86BE" transform="translate(24,88)"/>
<path d="M0 0 C2.1875 -0.3125 2.1875 -0.3125 5 0 C7.8125 2.5 7.8125 2.5 10 5 C9.34 6.32 8.68 7.64 8 9 C8 7.68 8 6.36 8 5 C7.360625 4.87625 6.72125 4.7525 6.0625 4.625 C5.381875 4.41875 4.70125 4.2125 4 4 C3.67 3.34 3.34 2.68 3 2 C2.01 1.34 1.02 0.68 0 0 Z " fill="#2284B9" transform="translate(131,59)"/>
<path d="M0 0 C0.66 0.33 1.32 0.66 2 1 C0.38405168 3.04119788 -1.2856382 5.04072937 -3 7 C-3.66 7 -4.32 7 -5 7 C-3.75023244 3.34683329 -3.32901247 2.21934164 0 0 Z " fill="#D1F1FB" transform="translate(30,105)"/>
</svg>
