<?xml version="1.0" encoding="UTF-8"?>
<svg version="1.1" xmlns="http://www.w3.org/2000/svg" width="400" height="400">
<path d="M0 0 C132 0 264 0 400 0 C400 132 400 264 400 400 C268 400 136 400 0 400 C0 268 0 136 0 0 Z " fill="#FEFEFE" transform="translate(0,0)"/>
<path d="M0 0 C1.19882813 0.0604248 2.39765625 0.12084961 3.6328125 0.18310547 C38.56753676 2.19615619 73.11944777 9.52918923 107 18 C108.08595459 18.26651367 109.17190918 18.53302734 110.29077148 18.80761719 C111.34852783 19.06833008 112.40628418 19.32904297 113.49609375 19.59765625 C114.43380615 19.828479 115.37151855 20.05930176 116.33764648 20.29711914 C120.29251895 21.34123449 124.14417541 22.64104696 128 24 C128.99 24.33 129.98 24.66 131 25 C131.24310371 32.97901114 130.32235332 40.66214121 129.25 48.5625 C129.15974548 49.23118103 129.06949097 49.89986206 128.97650146 50.58880615 C127.61080151 60.61684295 125.88089075 70.28206572 123 80 C122.58674376 81.51774077 122.17539879 83.0360028 121.765625 84.5546875 C114.52104253 110.73111483 102.9515903 136.93728965 87 159 C86.20023649 160.14472661 85.40215306 161.29062826 84.60546875 162.4375 C79.38922932 169.90326793 73.89089652 177.04836328 68 184 C67.51176758 184.5784668 67.02353516 185.15693359 66.52050781 185.75292969 C64.9342338 187.63029925 63.34326529 189.50356105 61.75 191.375 C61.2545166 191.95830078 60.7590332 192.54160156 60.24853516 193.14257812 C57.29995843 196.58208841 54.21633052 199.80540144 51 203 C50.06857298 204.11281018 49.14975113 205.23642603 48.25 206.375 C45.36613106 209.77723525 42.15975937 212.3358561 38.59765625 215 C36.15948104 216.87721159 33.82089325 218.84135326 31.49291992 220.8527832 C19.41949598 231.27925147 6.39052126 240.35262723 -7 249 C-7.86367187 249.6084375 -8.72734375 250.216875 -9.6171875 250.84375 C-12 252 -12 252 -14.48046875 251.8984375 C-17.46023245 250.8358861 -19.7100557 249.42867427 -22.3125 247.625 C-23.36179688 246.90183594 -24.41109375 246.17867187 -25.4921875 245.43359375 C-26.05647461 245.04026855 -26.62076172 244.64694336 -27.20214844 244.24169922 C-29.08214322 242.94326719 -30.97995202 241.67481068 -32.8828125 240.41015625 C-41.7716118 234.46561686 -49.98419464 228.0708075 -58 221 C-59.06927734 220.07960938 -59.06927734 220.07960938 -60.16015625 219.140625 C-62.12481281 217.44626 -64.06590202 215.72918425 -66 214 C-66.98226562 213.12214844 -67.96453125 212.24429688 -68.9765625 211.33984375 C-70.04744975 210.37303208 -71.11776184 209.40558294 -72.1875 208.4375 C-72.68709229 207.99019531 -73.18668457 207.54289063 -73.70141602 207.08203125 C-77.1540588 203.93689036 -80.06249623 200.61152004 -83 197 C-83.763125 196.236875 -84.52625 195.47375 -85.3125 194.6875 C-102.24278103 177.75721897 -115.26231734 157.73933145 -127 137 C-127.37431152 136.33935547 -127.74862305 135.67871094 -128.13427734 134.99804688 C-132.36339592 127.47040419 -136.02044304 119.9162096 -138.984375 111.78515625 C-139.76676199 109.63961038 -140.64520711 107.5289278 -141.5625 105.4375 C-148.14796585 89.68964687 -152.2311216 72.80363079 -155 56 C-155.20625 54.84113281 -155.4125 53.68226563 -155.625 52.48828125 C-157.13654157 43.2825732 -157.20255979 34.29524378 -157 25 C-152.3384128 23.17192659 -147.64687626 21.51858975 -142.875 20 C-141.41707031 19.5359375 -141.41707031 19.5359375 -139.9296875 19.0625 C-135.28331985 17.72455436 -130.53813398 16.81028753 -125.80908203 15.81640625 C-122.06953983 15.01490458 -118.34736017 14.15883564 -114.625 13.28125 C-100.77090368 10.03446288 -87.07290423 7.15168264 -72.91796875 5.5078125 C-69.21935509 5.24656828 -69.21935509 5.24656828 -67 4 C-64.33365566 3.63066957 -61.67971774 3.31032102 -59.00390625 3.02734375 C-57.78664856 2.89581406 -57.78664856 2.89581406 -56.5447998 2.7616272 C-37.65873078 0.75465157 -19.01003939 -0.96535356 0 0 Z " fill="#49766C" transform="translate(213,96)"/>
<path d="M0 0 C0.75536041 0.12360901 1.51072083 0.24721802 2.28897095 0.37457275 C10.34660604 1.70357406 18.28675539 3.21950746 26.19335938 5.29223633 C29.5703953 6.14455737 32.93594849 6.69930221 36.375 7.25 C44.07065825 8.58232083 51.26352823 10.95976076 58.625 13.5234375 C62.7355115 14.95391042 66.88463384 16.12231906 71.09375 17.2265625 C74.26749342 18.07600559 77.41520888 18.99473036 80.5625 19.9375 C81.60019531 20.246875 82.63789063 20.55625 83.70703125 20.875 C84.71121094 21.225625 85.71539062 21.57625 86.75 21.9375 C87.84699219 22.30875 88.94398438 22.68 90.07421875 23.0625 C92.75 24.9375 92.75 24.9375 93.60546875 28.45703125 C93.68250931 29.94931035 93.72842778 31.44338929 93.75 32.9375 C93.8111499 34.14092041 93.8111499 34.14092041 93.87353516 35.36865234 C94.87320367 57.85055918 91.8256066 80.30507111 85.75 101.9375 C85.38225361 103.55948077 85.02603559 105.18417181 84.6875 106.8125 C82.10638809 118.69919959 77.45804253 129.77081885 72.75 140.9375 C72.26144531 142.12601563 71.77289063 143.31453125 71.26953125 144.5390625 C68.8151588 150.43208015 66.34144817 155.94414967 62.78515625 161.25 C61.30014446 163.6708494 60.49938255 166.21247254 59.75 168.9375 C59.09 168.9375 58.43 168.9375 57.75 168.9375 C57.48960937 169.64390625 57.22921875 170.3503125 56.9609375 171.078125 C50.33662487 186.72005031 38.30768245 201.34342878 27.2265625 214.05078125 C24.41292293 217.33040213 21.82161033 220.73392463 19.28515625 224.23046875 C17.75 225.9375 17.75 225.9375 15.68359375 226.92578125 C13.60921754 227.7696594 13.60921754 227.7696594 12.84204102 229.77124023 C11.62721264 232.18107081 10.24491036 233.70112832 8.34375 235.609375 C7.68246094 236.27324219 7.02117187 236.93710937 6.33984375 237.62109375 C5.65019531 238.30300781 4.96054687 238.98492187 4.25 239.6875 C3.56035156 240.38488281 2.87070312 241.08226562 2.16015625 241.80078125 C1.49886719 242.45949219 0.83757812 243.11820313 0.15625 243.796875 C-0.44896484 244.39983398 -1.05417969 245.00279297 -1.67773438 245.62402344 C-3.25 246.9375 -3.25 246.9375 -5.25 246.9375 C-5.46914063 247.50597656 -5.68828125 248.07445312 -5.9140625 248.66015625 C-7.67244534 251.65763343 -9.8820106 253.25341168 -12.625 255.375 C-15.59770093 257.6786429 -18.08146247 259.72607299 -20.4296875 262.671875 C-22.25 264.9375 -22.25 264.9375 -25 265.75 C-26.11375 265.8428125 -26.11375 265.8428125 -27.25 265.9375 C-27.25 266.5975 -27.25 267.2575 -27.25 267.9375 C-29.50814848 269.73576445 -31.76277739 271.4121801 -34.125 273.0625 C-34.77597656 273.53042969 -35.42695313 273.99835938 -36.09765625 274.48046875 C-40.98587828 277.9375 -40.98587828 277.9375 -43.25 277.9375 C-43.25 278.5975 -43.25 279.2575 -43.25 279.9375 C-48.66176471 283.9375 -48.66176471 283.9375 -51.25 283.9375 C-51.25 284.5975 -51.25 285.2575 -51.25 285.9375 C-52.21421875 286.48019531 -53.1784375 287.02289063 -54.171875 287.58203125 C-55.44799877 288.3045425 -56.72403588 289.02720683 -58 289.75 C-58.63421875 290.10642578 -59.2684375 290.46285156 -59.921875 290.83007812 C-66.4333996 294.1414228 -66.4333996 294.1414228 -70.25 299.9375 C-72.56 300.2675 -74.87 300.5975 -77.25 300.9375 C-77.25 300.2775 -77.25 299.6175 -77.25 298.9375 C-77.806875 298.834375 -78.36375 298.73125 -78.9375 298.625 C-81.7269101 297.79571592 -83.8639064 296.59450944 -86.25 294.9375 C-86.25 294.2775 -86.25 293.6175 -86.25 292.9375 C-87.24 292.9375 -88.23 292.9375 -89.25 292.9375 C-89.25 292.2775 -89.25 291.6175 -89.25 290.9375 C-91.23 290.2775 -93.21 289.6175 -95.25 288.9375 C-95.25 288.2775 -95.25 287.6175 -95.25 286.9375 C-96.50683594 286.5971875 -96.50683594 286.5971875 -97.7890625 286.25 C-101.9173268 284.68442799 -105.08125519 282.52687512 -108.625 279.9375 C-109.26566406 279.48632812 -109.90632812 279.03515625 -110.56640625 278.5703125 C-112.16930122 277.41513446 -113.71541233 276.18198754 -115.25 274.9375 C-115.25 274.2775 -115.25 273.6175 -115.25 272.9375 C-116.3328125 272.5971875 -116.3328125 272.5971875 -117.4375 272.25 C-120.7990428 270.68128003 -122.67088997 268.58108778 -125.25 265.9375 C-126.425625 265.256875 -126.425625 265.256875 -127.625 264.5625 C-130.09086371 263.03601294 -131.68843008 261.56936689 -133.6875 259.5 C-136.66454372 256.41895475 -139.63106755 254.20985293 -143.25 251.9375 C-143.91 251.2775 -144.57 250.6175 -145.25 249.9375 C-145.25 248.9475 -145.25 247.9575 -145.25 246.9375 C-146.3328125 246.56625 -146.3328125 246.56625 -147.4375 246.1875 C-153.03147059 243.70129085 -156.59891683 239.70419192 -160.25 234.9375 C-160.58 233.9475 -160.91 232.9575 -161.25 231.9375 C-162.24 231.6075 -163.23 231.2775 -164.25 230.9375 C-165.62482707 229.30489286 -166.95647667 227.63524938 -168.25 225.9375 C-169.24585354 224.93337067 -170.24630773 223.93379405 -171.25 222.9375 C-174.39024033 219.45482047 -177.46628209 215.92867265 -180.375 212.25 C-182.2617135 209.82162868 -182.2617135 209.82162868 -184.8125 207.5 C-187.4126971 204.76645945 -188.59652827 202.31058234 -190.25 198.9375 C-191.63451416 196.96509983 -193.09486573 195.06448209 -194.56640625 193.15625 C-197.02336635 189.91830722 -199.32261257 186.57519955 -201.63671875 183.234375 C-203.18400754 180.97222717 -203.18400754 180.97222717 -204.76953125 179.078125 C-206.34337752 176.80248448 -207.34292255 174.47150203 -208.38818359 171.91845703 C-210.04121932 168.11881627 -212.0947364 164.51847199 -214.0625 160.875 C-217.63111674 154.1802905 -220.92102466 147.50058492 -223.78491211 140.47119141 C-224.72034659 138.21498765 -225.68469435 135.97041222 -226.68603516 133.74267578 C-230.43851758 125.3711813 -233.12055514 117.03734541 -235.375 108.125 C-235.71687326 106.8015068 -236.05940969 105.47818473 -236.40258789 104.1550293 C-237.36714101 100.41970356 -238.30963387 96.6789903 -239.25 92.9375 C-239.49057129 91.99680664 -239.73114258 91.05611328 -239.97900391 90.08691406 C-243.91707039 74.65599921 -244.38654273 60.08815925 -244.3125 44.25 C-244.30747491 42.37304807 -244.30291379 40.49609484 -244.29882812 38.61914062 C-244.28790258 34.05856113 -244.27069357 29.49804521 -244.25 24.9375 C-238.15958194 22.04704977 -232.28281573 19.43470135 -225.75 17.75 C-222.00507054 16.77648405 -219.48202517 16.09218345 -216.25 13.9375 C-214.15625 13.41015625 -214.15625 13.41015625 -211.75 13 C-208.08614564 12.32131207 -204.52476309 11.50842535 -200.9375 10.5 C-186.26999105 6.4119968 -170.58120353 2.06050319 -155.25 2.9375 C-155.25 2.2775 -155.25 1.6175 -155.25 0.9375 C-145.2805796 -0.69228351 -135.28871037 -1.96118873 -125.25 -3.0625 C-124.13939209 -3.18625 -124.13939209 -3.18625 -123.00634766 -3.3125 C-80.81687819 -7.96287855 -41.73102586 -6.86230351 0 0 Z M-137.1262207 22.48193359 C-140.82498534 23.27534603 -144.57116632 23.76379231 -148.3125 24.3125 C-157.42612152 25.70427081 -166.31660271 27.67893883 -175.25 29.9375 C-177.37327986 30.47221232 -179.4965611 31.00691904 -181.61987305 31.54150391 C-182.98359446 31.88513143 -184.34704543 32.22983428 -185.71020508 32.57568359 C-189.33346886 33.48751034 -192.9538655 34.30700893 -196.625 35 C-204.43400775 36.49366927 -211.85428322 39.06138792 -219.25 41.9375 C-220.47310903 66.33173007 -214.86034879 90.21604764 -207.3125 113.25 C-206.98862305 114.24080566 -206.66474609 115.23161133 -206.33105469 116.25244141 C-204.05125041 123.02959544 -201.33329259 129.48846153 -198.25 135.9375 C-197.91411865 136.64253662 -197.5782373 137.34757324 -197.23217773 138.07397461 C-190.7413279 151.51966797 -183.48794898 164.47593745 -175.25 176.9375 C-174.74339844 177.70964844 -174.23679688 178.48179687 -173.71484375 179.27734375 C-169.0221778 186.2068087 -163.71811042 192.6251681 -158.40625 199.08203125 C-155.82230305 202.22352628 -153.3088839 205.4133061 -150.8125 208.625 C-148.75217993 211.21548611 -146.77406553 213.49731025 -144.1875 215.5625 C-141.72219034 217.55572909 -139.99994006 219.33981583 -138 221.75 C-134.62076475 225.72998818 -130.83026956 228.83106543 -126.6796875 231.98046875 C-124.00413705 234.1355343 -121.66758392 236.49780404 -119.25 238.9375 C-111.06267959 246.36082254 -102.46500239 252.75716077 -93.15820312 258.70263672 C-91.19484388 259.97319341 -89.26041464 261.28040496 -87.328125 262.59765625 C-86.07306843 263.44033024 -84.81786558 264.28278642 -83.5625 265.125 C-82.98636963 265.52412598 -82.41023926 265.92325195 -81.81665039 266.33447266 C-78.76049318 268.38762873 -78.76049318 268.38762873 -75.203125 268.8671875 C-66.21210253 264.5874608 -58.17858782 258.90427058 -50.25 252.9375 C-48.96441806 251.9948973 -47.67789983 251.05357071 -46.390625 250.11328125 C-39.11879666 244.77133081 -32.20151972 239.3447074 -25.6796875 233.09375 C-23.25 230.9375 -23.25 230.9375 -20.16015625 228.9296875 C-17.31971274 226.98522282 -15.77264449 225.3487403 -13.8125 222.5625 C-11.67998326 219.68803542 -9.67667759 217.28831314 -6.875 215.0625 C-2.86107162 211.8084467 0.18220033 207.92064194 3.38671875 203.88671875 C4.89439505 202.00523841 6.43591448 200.15005601 8.01953125 198.33203125 C27.04012587 176.47254191 41.06294123 150.8221349 51.87768555 124.06420898 C52.66185337 122.15240212 53.49772884 120.2619995 54.33984375 118.375 C55.94111895 114.47161448 57.09812953 110.56994133 58.1875 106.5 C58.40140381 105.70561523 58.61530762 104.91123047 58.83569336 104.09277344 C59.27131641 102.46821859 59.70468827 100.84305833 60.13574219 99.21728516 C60.67246976 97.22524935 61.24354039 95.24253098 61.8203125 93.26171875 C64.35797852 84.12012658 65.73654196 74.8860117 67 65.5 C67.17539307 64.20739258 67.35078613 62.91478516 67.53149414 61.58300781 C68.38060581 54.97680767 68.95291124 48.59733668 68.75 41.9375 C68.01394531 41.74414062 67.27789062 41.55078125 66.51953125 41.3515625 C65.05580078 40.96097656 65.05580078 40.96097656 63.5625 40.5625 C62.59957031 40.30726562 61.63664062 40.05203125 60.64453125 39.7890625 C57.75 38.9375 57.75 38.9375 55.5 38 C40.60959725 32.24688985 23.98974151 29.87109419 8.375 26.75 C7.53722015 26.58191833 6.69944031 26.41383667 5.83627319 26.24066162 C-11.09404847 22.85579803 -27.97333157 19.75916818 -45.1875 18.25 C-45.89365448 18.18779266 -46.59980896 18.12558533 -47.32736206 18.06149292 C-76.88576092 15.51243815 -108.01103945 16.06923075 -137.1262207 22.48193359 Z " fill="#FCE1A2" transform="translate(275.25,79.0625)"/>
<path d="M0 0 C41.55276658 0 80.78536914 6.94554381 121 17 C122.62893188 17.39977051 122.62893188 17.39977051 124.29077148 17.80761719 C125.34852783 18.06833008 126.40628418 18.32904297 127.49609375 18.59765625 C128.43380615 18.828479 129.37151855 19.05930176 130.33764648 19.29711914 C134.29251895 20.34123449 138.14417541 21.64104696 142 23 C142.99 23.33 143.98 23.66 145 24 C145.24310371 31.97901114 144.32235332 39.66214121 143.25 47.5625 C143.15974548 48.23118103 143.06949097 48.89986206 142.97650146 49.58880615 C141.61080151 59.61684295 139.88089075 69.28206572 137 79 C136.58674376 80.51774077 136.17539879 82.0360028 135.765625 83.5546875 C128.52104253 109.73111483 116.9515903 135.93728965 101 158 C100.20023649 159.14472661 99.40215306 160.29062826 98.60546875 161.4375 C93.38922932 168.90326793 87.89089652 176.04836328 82 183 C81.51176758 183.5784668 81.02353516 184.15693359 80.52050781 184.75292969 C78.9342338 186.63029925 77.34326529 188.50356105 75.75 190.375 C75.2545166 190.95830078 74.7590332 191.54160156 74.24853516 192.14257812 C71.29995843 195.58208841 68.21633052 198.80540144 65 202 C64.06857298 203.11281018 63.14975113 204.23642603 62.25 205.375 C59.36613106 208.77723525 56.15975937 211.3358561 52.59765625 214 C50.15948104 215.87721159 47.82089325 217.84135326 45.49291992 219.8527832 C10.58367552 250 10.58367552 250 0 250 C0 211.72 0 173.44 0 134 C3.25188151 137.25188151 4.16375199 139.45320522 5.7890625 143.70703125 C6.31482761 145.06484917 6.84121457 146.42242644 7.36816406 147.77978516 C7.63681274 148.47815491 7.90546143 149.17652466 8.18225098 149.89605713 C9.48328836 153.24342687 10.84943404 156.56360484 12.2109375 159.88671875 C13.0016448 161.83376161 13.79068618 163.7814738 14.57958984 165.72924805 C15.11825195 167.05540175 15.65934139 168.38057166 16.20263672 169.70483398 C17.00354425 171.65873538 17.79556714 173.61603552 18.5859375 175.57421875 C19.28275635 177.28484497 19.28275635 177.28484497 19.99365234 179.0300293 C21 182 21 182 21 186 C24.92024871 183.82443856 28.03652685 181.30315009 31.3125 178.25 C34.58700372 175.22163347 37.86775328 172.22004543 41.25 169.3125 C44.41214412 166.56896966 47.35608065 163.66854015 50.28515625 160.6796875 C51.95842049 159.04072708 53.69310703 157.55147639 55.5 156.0625 C59.44579524 152.72777924 62.67662642 148.94243337 66 145 C66.80179687 144.08605469 67.60359375 143.17210937 68.4296875 142.23046875 C86.24217558 121.83054478 100.80081005 99.33110316 108 73 C108.32484375 71.84242188 108.6496875 70.68484375 108.984375 69.4921875 C111.02887439 61.48777952 111.39565349 54.46085118 112 46 C83.29 46.495 83.29 46.495 54 47 C57.63 50.96 61.26 54.92 65 59 C69.0625 64.1875 69.0625 64.1875 70.66015625 66.35546875 C71.91917936 68.13081748 71.91917936 68.13081748 74 69 C70.74317817 89.58910353 49.62060879 110.15028611 33.59375 122.0390625 C32 123 32 123 30 123 C28.51221073 119.77473823 27.03631893 116.5441667 25.5625 113.3125 C25.14162109 112.40048828 24.72074219 111.48847656 24.28710938 110.54882812 C23.88427734 109.66259766 23.48144531 108.77636719 23.06640625 107.86328125 C22.5086853 106.64572144 22.5086853 106.64572144 21.93969727 105.40356445 C20.63904397 102.07674405 19.62831929 99.38794569 20.57324219 95.859375 C20.89454102 95.16328125 21.21583984 94.4671875 21.546875 93.75 C22.0728125 92.58984375 22.0728125 92.58984375 22.609375 91.40625 C22.98578125 90.6121875 23.3621875 89.818125 23.75 89 C24.1109375 88.2059375 24.471875 87.411875 24.84375 86.59375 C26.70906822 82.5387104 28.68910079 78.85149868 31 75 C20.77 75 10.54 75 0 75 C0 50.25 0 25.5 0 0 Z " fill="#08584C" transform="translate(199,97)"/>
<path d="M0 0 C19.47 0 38.94 0 59 0 C59 2 59 2 56.8515625 4.25 C55.44003906 5.61125 55.44003906 5.61125 54 7 C52.09799524 8.97520998 50.23571068 10.98593404 48.375 13 C47.65957031 13.76183594 47.65957031 13.76183594 46.9296875 14.5390625 C44.19566136 17.50092415 41.66695672 20.31141492 40 24 C41.03520273 40.72250563 59.04029307 57.88617798 70.875 68.5 C72.24292713 69.67495169 73.61698777 70.84284259 75 72 C75.94875 72.804375 76.8975 73.60875 77.875 74.4375 C80.00757127 76.17320248 80.00757127 76.17320248 83 77 C83.13341797 75.75863281 83.13341797 75.75863281 83.26953125 74.4921875 C84.2869574 69.6281288 86.46224088 65.49337795 88.73632812 61.09765625 C90.87008385 56.60508334 91.32944797 53.75646502 89.78930664 48.99072266 C88.45579578 45.627454 86.98236242 42.36586081 85.375 39.125 C82 32.24107143 82 32.24107143 82 30 C101.47 30 120.94 30 141 30 C140.22704708 33.09181168 139.46537174 35.34066578 138.1171875 38.15234375 C137.75496094 38.92900391 137.39273438 39.70566406 137.01953125 40.50585938 C136.25658961 42.12678488 135.48573941 43.7440115 134.70703125 45.35742188 C132.63033714 49.75152676 132.63033714 49.75152676 132.00390625 54.4921875 C133.57462585 58.44670509 135.27773379 62.32513029 137.0625 66.1875 C137.80673128 67.80445378 138.54778111 69.42287689 139.28515625 71.04296875 C139.77834351 72.11067505 139.77834351 72.11067505 140.28149414 73.19995117 C141 75 141 75 141 77 C154.36491245 67.7473683 166.12589617 56.7050996 175 43 C175.55171875 42.15824219 176.1034375 41.31648438 176.671875 40.44921875 C180.17243757 34.87777882 182.76390132 29.18215518 185 23 C184.01 22.67 183.02 22.34 182 22 C180.56197818 20.4089357 179.19674665 18.7513985 177.875 17.0625 C173.97469698 12.16310458 169.89821937 7.49995057 165.65234375 2.8984375 C164 1 164 1 164 0 C183.47 0 202.94 0 223 0 C223 35.86218671 205.30493046 69.17939459 181 95 C179.8488151 96.3078087 178.70298835 97.62035286 177.5625 98.9375 C176.37532855 100.29195471 175.18780637 101.64610206 174 103 C173.2884375 103.81726563 172.576875 104.63453125 171.84375 105.4765625 C167.75880919 110.10709472 163.61710143 114.37351322 158.8984375 118.35546875 C157.00552006 119.99521822 155.25250038 121.71181523 153.5 123.5 C150.45788305 126.59051426 147.27850775 129.46521762 143.98828125 132.2890625 C142.65833495 133.43349566 141.34311594 134.59526021 140.04296875 135.7734375 C139.43066406 136.32257813 138.81835938 136.87171875 138.1875 137.4375 C137.37345703 138.17806641 137.37345703 138.17806641 136.54296875 138.93359375 C135 140 135 140 132 140 C131.6596875 139.00484375 131.319375 138.0096875 130.96875 136.984375 C127.26745916 126.27284711 123.19915843 115.74029039 118.91650391 105.24853516 C118.08720298 103.21394231 117.26678482 101.17604692 116.44921875 99.13671875 C116.01222656 98.06035156 115.57523437 96.98398438 115.125 95.875 C114.75632812 94.96492188 114.38765625 94.05484375 114.0078125 93.1171875 C113.07372772 90.85069783 113.07372772 90.85069783 111 89 C106.78058161 98.91660544 102.87512704 108.94518507 99 119 C98.51566592 120.25392206 98.03129389 121.50782946 97.546875 122.76171875 C95.33532191 128.49710192 93.14597315 134.23975628 91 140 C77.30776327 133.72827252 65.68446586 119.76122289 55.125 109.25 C54.07300415 108.20501343 54.07300415 108.20501343 52.99975586 107.13891602 C39.42457475 93.52179139 27.95700765 78.42586766 18 62 C17.59507324 61.34225586 17.19014648 60.68451172 16.77294922 60.00683594 C5.70131293 41.73840759 0 21.25381729 0 0 Z " fill="#FBFDFD" transform="translate(88,143)"/>
<path d="M0 0 C24.1219837 -0.15342604 47.63370447 1.59255394 71.4375 5.4375 C72.3778006 5.58857208 73.3181012 5.73964417 74.28689575 5.89529419 C83.47911845 7.38779887 92.56979943 8.9820442 101.57739258 11.37670898 C104.90631629 12.23317802 108.23100231 12.76901671 111.625 13.3125 C119.32065825 14.64482083 126.51352823 17.02226076 133.875 19.5859375 C137.9855115 21.01641042 142.13463384 22.18481906 146.34375 23.2890625 C149.51749342 24.13850559 152.66520888 25.05723036 155.8125 26 C156.85019531 26.309375 157.88789063 26.61875 158.95703125 26.9375 C160.46330078 27.4634375 160.46330078 27.4634375 162 28 C163.09699219 28.37125 164.19398438 28.7425 165.32421875 29.125 C168 31 168 31 168.85546875 34.51953125 C168.93250931 36.01181035 168.97842778 37.50588929 169 39 C169.0611499 40.20342041 169.0611499 40.20342041 169.12353516 41.43115234 C170.12320367 63.91305918 167.0756066 86.36757111 161 108 C160.63225361 109.62198077 160.27603559 111.24667181 159.9375 112.875 C157.35638809 124.76169959 152.70804253 135.83331885 148 147 C147.51144531 148.18851563 147.02289063 149.37703125 146.51953125 150.6015625 C144.0651588 156.49458015 141.59144817 162.00664967 138.03515625 167.3125 C136.55014446 169.7333494 135.74938255 172.27497254 135 175 C134.34 175 133.68 175 133 175 C132.73960937 175.70640625 132.47921875 176.4128125 132.2109375 177.140625 C125.58662487 192.78255031 113.55768245 207.40592878 102.4765625 220.11328125 C99.66292293 223.39290213 97.07161033 226.79642463 94.53515625 230.29296875 C93 232 93 232 90.93359375 232.98828125 C88.85921754 233.8321594 88.85921754 233.8321594 88.09204102 235.83374023 C86.87721264 238.24357081 85.49491036 239.76362832 83.59375 241.671875 C82.93246094 242.33574219 82.27117187 242.99960937 81.58984375 243.68359375 C80.90019531 244.36550781 80.21054687 245.04742187 79.5 245.75 C78.46552734 246.79607422 78.46552734 246.79607422 77.41015625 247.86328125 C76.74886719 248.52199219 76.08757812 249.18070313 75.40625 249.859375 C74.80103516 250.46233398 74.19582031 251.06529297 73.57226562 251.68652344 C72 253 72 253 70 253 C69.78085937 253.56847656 69.56171875 254.13695312 69.3359375 254.72265625 C67.57755466 257.72013343 65.3679894 259.31591168 62.625 261.4375 C59.65229907 263.7411429 57.16853753 265.78857299 54.8203125 268.734375 C53 271 53 271 50.25 271.8125 C49.13625 271.9053125 49.13625 271.9053125 48 272 C48 272.66 48 273.32 48 274 C45.74185152 275.79826445 43.48722261 277.4746801 41.125 279.125 C40.47402344 279.59292969 39.82304687 280.06085938 39.15234375 280.54296875 C34.26412172 284 34.26412172 284 32 284 C32 284.66 32 285.32 32 286 C26.58823529 290 26.58823529 290 24 290 C24 290.66 24 291.32 24 292 C23.09378906 292.50789063 22.18757813 293.01578125 21.25390625 293.5390625 C14.32210358 297.44784488 7.53102783 301.43864723 1 306 C0.34 305.67 -0.32 305.34 -1 305 C-3.37171117 278.98415282 -3.37171117 278.98415282 0.29492188 272.82470703 C3.67684864 269.68477326 7.75873949 268.19150152 12.07714844 266.72607422 C14.89193497 265.66320282 17.06680037 264.0180861 19.4375 262.1875 C20.30246094 261.53910156 21.16742188 260.89070313 22.05859375 260.22265625 C23.02925781 259.48917969 23.99992187 258.75570313 25 258 C26.28150935 257.05977504 27.56414027 256.12107758 28.84765625 255.18359375 C36.17603404 249.80174845 43.15268368 244.31213608 49.765625 238.05859375 C55.25616698 233 55.25616698 233 58 233 C58.3403125 232.195625 58.3403125 232.195625 58.6875 231.375 C61.04742429 227.10466081 63.96107878 223.82641461 67.75 220.8125 C71.62171605 217.71117643 74.52427204 213.8488793 77.6015625 209.984375 C79.12340452 208.09074747 80.67757368 206.22230374 82.2734375 204.390625 C101.29085301 182.53007428 115.31331884 156.88370061 126.12768555 130.12670898 C126.91185337 128.21490212 127.74772884 126.3244995 128.58984375 124.4375 C130.19111895 120.53411448 131.34812953 116.63244133 132.4375 112.5625 C132.75835571 111.37092285 132.75835571 111.37092285 133.08569336 110.15527344 C133.52131641 108.53071859 133.95468827 106.90555833 134.38574219 105.27978516 C134.92246976 103.28774935 135.49354039 101.30503098 136.0703125 99.32421875 C140.68911194 82.68563023 142.15513464 65.12556832 144 48 C142.89591797 47.81824219 142.89591797 47.81824219 141.76953125 47.6328125 C140.30580078 47.38144531 140.30580078 47.38144531 138.8125 47.125 C137.84957031 46.96257812 136.88664063 46.80015625 135.89453125 46.6328125 C133 46 133 46 130.75 45.09375 C115.95204602 39.20820012 99.20059882 36.9257703 83.625 33.8125 C82.78722015 33.64441833 81.94944031 33.47633667 81.08627319 33.30316162 C75.39750649 32.16581174 69.70213209 31.06823118 64 30 C63.26811462 29.86095245 62.53622925 29.72190491 61.78216553 29.5786438 C48.55409172 27.09532731 35.28086736 25.89829747 21.875 24.8125 C19.7408289 24.63413848 17.60671378 24.45510589 15.47265625 24.27539062 C10.31577257 23.84131624 5.15803912 23.4209336 0 23 C0 15.41 0 7.82 0 0 Z " fill="#FCC747" transform="translate(200,73)"/>
<path d="M0 0 C4.85765056 1.26676902 9.52724765 1.3897704 14.52734375 1.53125 C16.40898577 1.59104525 18.29051166 1.65465517 20.171875 1.72265625 C20.9966333 1.74658447 21.8213916 1.7705127 22.67114258 1.79516602 C24.71484375 1.96875 24.71484375 1.96875 26.71484375 2.96875 C26.71484375 3.95875 26.71484375 4.94875 26.71484375 5.96875 C20.16335665 6.1927985 14.15118683 5.32505831 7.71484375 4.15625 C-20.92428515 -0.76930128 -47.7260462 -1.61991513 -76.66015625 0.34375 C-78.06921738 0.43816376 -78.06921738 0.43816376 -79.50674438 0.53448486 C-92.69220131 1.4322849 -92.69220131 1.4322849 -105.73144531 3.50927734 C-110.92970321 4.44456619 -116.20981125 4.71761228 -121.47265625 5.09375 C-123.18678711 5.22330078 -123.18678711 5.22330078 -124.93554688 5.35546875 C-127.71840871 5.56505667 -130.50154597 5.76939415 -133.28515625 5.96875 C-133.28515625 6.62875 -133.28515625 7.28875 -133.28515625 7.96875 C-141.20515625 8.46375 -141.20515625 8.46375 -149.28515625 8.96875 C-140.2979994 4.47517158 -130.29156509 3.79122774 -120.41015625 3.03125 C-113.64957079 2.51129355 -107.26411112 1.71045658 -100.72265625 -0.09375 C-93.84413524 -1.97496766 -87.40722341 -2.755146 -80.28515625 -3.03125 C-78.47519041 -3.13287541 -76.66530117 -3.2358694 -74.85546875 -3.33984375 C-19.87392634 -6.23866415 -19.87392634 -6.23866415 0 0 Z " fill="#FEFCE7" transform="translate(253.28515625,74.03125)"/>
<path d="M0 0 C0.66 0.33 1.32 0.66 2 1 C1.505 1.4125 1.01 1.825 0.5 2.25 C-1.43386092 4.12202338 -1.43386092 4.12202338 -1 8 C-1.59167969 8.24234375 -2.18335938 8.4846875 -2.79296875 8.734375 C-6.46275959 10.29089314 -9.57668632 11.65544236 -12.6875 14.1875 C-15 16 -15 16 -18.1875 16.5 C-19.5796875 16.7475 -19.5796875 16.7475 -21 17 C-22.43637698 18.95163118 -22.43637698 18.95163118 -23 21 C-24.32 21 -25.64 21 -27 21 C-27 22.65 -27 24.3 -27 26 C-28.98 26 -30.96 26 -33 26 C-32.86116581 29.43782031 -32.71272946 32.87516029 -32.5625 36.3125 C-32.52318359 37.28896484 -32.48386719 38.26542969 -32.44335938 39.27148438 C-32.40146484 40.20927734 -32.35957031 41.14707031 -32.31640625 42.11328125 C-32.27974854 42.97735596 -32.24309082 43.84143066 -32.20532227 44.73168945 C-32.07252646 47.1647826 -32.07252646 47.1647826 -31 50 C-29.01508358 49.73323796 -29.01508358 49.73323796 -27 49 C-26.67 48.01 -26.34 47.02 -26 46 C-24.15234375 45.26953125 -24.15234375 45.26953125 -21.9375 44.8125 C-21.20402344 44.65394531 -20.47054687 44.49539063 -19.71484375 44.33203125 C-19.14894531 44.22246094 -18.58304688 44.11289062 -18 44 C-18 43.01 -18 42.02 -18 41 C-15.09399739 39.74335022 -13.20395416 39 -10 39 C-10 39.66 -10 40.32 -10 41 C-10.90621094 41.50789063 -11.81242187 42.01578125 -12.74609375 42.5390625 C-19.67789642 46.44784488 -26.46897217 50.43864723 -33 55 C-33.66 54.67 -34.32 54.34 -35 54 C-37.37171117 27.98415282 -37.37171117 27.98415282 -33.70507812 21.82470703 C-30.32850804 18.68974664 -26.26512103 17.20847784 -21.95361328 15.74804688 C-18.9745886 14.60736559 -16.64158231 12.80807887 -14.125 10.875 C-13.26519531 10.23304688 -12.40539062 9.59109375 -11.51953125 8.9296875 C-7.66201012 5.97524496 -3.81253411 3.01237263 0 0 Z " fill="#EDC85B" transform="translate(234,324)"/>
<path d="M0 0 C1.39538254 -0.05472088 2.79140897 -0.09311538 4.1875 -0.125 C4.96480469 -0.14820312 5.74210937 -0.17140625 6.54296875 -0.1953125 C9.37513213 0.02981972 11.38173952 0.90905813 14 2 C16.26184389 2.57805624 18.53355021 3.11856671 20.8125 3.625 C21.97394531 3.88539062 23.13539063 4.14578125 24.33203125 4.4140625 C25.21246094 4.60742188 26.09289062 4.80078125 27 5 C27 5.66 27 6.32 27 7 C27.99 6.67 28.98 6.34 30 6 C32.35188447 6.59793673 34.68925595 7.25881795 37 8 C37.495 11.96 37.495 11.96 38 16 C38.66 16 39.32 16 40 16 C40.04962653 20.03845412 40.08582632 24.07678887 40.10986328 28.11547852 C40.11988926 29.48790583 40.13351356 30.86031195 40.15087891 32.23266602 C40.17527627 34.21100527 40.18544484 36.18950367 40.1953125 38.16796875 C40.21102295 39.95110474 40.21102295 39.95110474 40.22705078 41.77026367 C40.00170281 44.97577794 39.2927746 47.09203894 38 50 C37.76472057 52.16029299 37.60143452 54.3293012 37.5 56.5 C37.2994007 60.79282494 36.81096043 64.08598875 35 68 C34.67 68 34.34 68 34 68 C34.14260966 65.49977963 34.28901464 62.9998729 34.4375 60.5 C34.47681641 59.80390625 34.51613281 59.1078125 34.55664062 58.390625 C34.61948242 57.34648437 34.61948242 57.34648437 34.68359375 56.28125 C34.72025146 55.65283203 34.75690918 55.02441406 34.79467773 54.37695312 C34.97253597 52.31794267 35.23547491 50.26661817 35.51367188 48.21875 C36.02488238 44.20539122 36.11398202 40.26754063 36.09765625 36.21875 C36.0962413 35.51979614 36.09482635 34.82084229 36.09336853 34.10070801 C36.0878367 31.90042571 36.07529777 29.70025077 36.0625 27.5 C36.05747616 25.99479315 36.05291482 24.48958468 36.04882812 22.984375 C36.03788977 19.32288265 36.02067359 15.66145183 36 12 C35.07888428 11.69368652 34.15776855 11.38737305 33.20874023 11.07177734 C31.02256437 10.34155502 28.83980105 9.6010544 26.66015625 8.8515625 C17.8542933 5.84934647 9.01855011 3.28981627 0 1 C0 0.67 0 0.34 0 0 Z " fill="#FCF6D3" transform="translate(332,92)"/>
<path d="M0 0 C0 3.94720688 -1.52509109 5.01555103 -4 8 C-4.70885894 9.31138904 -5.39456452 10.63777017 -6 12 C-6.66 12 -7.32 12 -8 12 C-9.50660662 13.56247728 -9.50660662 13.56247728 -11 15.5 C-12.5625 17.46875 -12.5625 17.46875 -14 19 C-14.66 19 -15.32 19 -16 19 C-16.2165625 20.1446875 -16.2165625 20.1446875 -16.4375 21.3125 C-17.65938568 27.15039824 -20.46672965 29.64767753 -24.75 33.625 C-26.25659086 35.09616618 -26.25659086 35.09616618 -27 38 C-27.99 38 -28.98 38 -30 38 C-30.33 38.66 -30.66 39.32 -31 40 C-32.32 39.67 -33.64 39.34 -35 39 C-35.433125 39.66 -35.86625 40.32 -36.3125 41 C-36.869375 41.66 -37.42625 42.32 -38 43 C-38.99 43 -39.98 43 -41 43 C-41.33 43.99 -41.66 44.98 -42 46 C-43.32 45.67 -44.64 45.34 -46 45 C-43.79211695 43.10364017 -41.58370715 41.20789959 -39.375 39.3125 C-38.75753906 38.78205078 -38.14007813 38.25160156 -37.50390625 37.70507812 C-36.27089242 36.64728205 -35.0361996 35.59143981 -33.79980469 34.53759766 C-32.6179683 33.52793873 -31.44133363 32.51215272 -30.27050781 31.48974609 C-26.22067901 28 -26.22067901 28 -24 28 C-23.6596875 27.195625 -23.6596875 27.195625 -23.3125 26.375 C-20.58246521 21.43493704 -17.11982512 18.08444489 -12.75 14.625 C-9.44769581 11.55857468 -6.7534753 7.94526913 -3.953125 4.42578125 C-2 2 -2 2 0 0 Z " fill="#EAC753" transform="translate(282,278)"/>
<path d="M0 0 C-1.625 2.0625 -1.625 2.0625 -4 4 C-7.25 3.75 -7.25 3.75 -10 3 C-10 3.66 -10 4.32 -10 5 C-13.31114834 6.12880057 -16.58978257 7.21302675 -20 8 C-20.92278035 11.14038556 -21.12877022 13.95866728 -21.1328125 17.2265625 C-21.13490723 18.25056152 -21.13700195 19.27456055 -21.13916016 20.32958984 C-21.1344873 21.4170752 -21.12981445 22.50456055 -21.125 23.625 C-21.12161621 24.73697754 -21.11823242 25.84895508 -21.11474609 26.99462891 C-21.07271026 33.79368005 -20.95314327 40.58342862 -20.625 47.375 C-20.59422363 48.11057129 -20.56344727 48.84614258 -20.53173828 49.60400391 C-20.32390511 53.21478185 -20.05482592 54.91776112 -18 58 C-15.64192042 64.85589803 -15.78181908 71.83639318 -16 79 C-18.19764034 75.22557736 -19.08148548 71.14877527 -20.0625 66.9375 C-20.23587891 66.23689453 -20.40925781 65.53628906 -20.58789062 64.81445312 C-23.57728428 52.13530071 -23.12298928 39.25149847 -23.0625 26.3125 C-23.05747491 24.43554807 -23.05291379 22.55859484 -23.04882812 20.68164062 C-23.03790258 16.12106113 -23.02069357 11.56054521 -23 7 C-21.23613395 6.19301107 -19.47170229 5.38725835 -17.70703125 4.58203125 C-16.23327026 3.90877808 -16.23327026 3.90877808 -14.72973633 3.22192383 C-9.60578738 0.92826812 -5.64263926 -0.26869711 0 0 Z " fill="#F6E4B5" transform="translate(54,97)"/>
<path d="M0 0 C19.47 0 38.94 0 59 0 C59 16.17287234 59 16.17287234 57.125 23.1875 C56.95097656 23.91001953 56.77695312 24.63253906 56.59765625 25.37695312 C55.76139918 28.71268966 54.92460937 31.11308594 53 34 C53.40952176 30.1095433 53.79447327 26.64429223 54.98681641 22.90649414 C56.22037398 18.65025896 56.44365437 14.47146574 56.625 10.0625 C56.66367187 9.28326172 56.70234375 8.50402344 56.7421875 7.70117188 C56.83544127 5.80112621 56.91875962 3.90059722 57 2 C56.40087296 2.01474869 55.80174591 2.02949738 55.1844635 2.04469299 C48.97214889 2.1966277 42.75969852 2.34149393 36.54711914 2.48217773 C34.22578716 2.53568563 31.90449658 2.59102145 29.58325195 2.64819336 C26.25481093 2.72985982 22.92627837 2.80504119 19.59765625 2.87890625 C18.55287613 2.90594131 17.50809601 2.93297638 16.43165588 2.96083069 C15.47073532 2.98092697 14.50981476 3.00102325 13.51977539 3.02172852 C12.24403404 3.05170677 12.24403404 3.05170677 10.94252014 3.08229065 C9 3 9 3 8 2 C6.65252916 1.76924918 5.29622435 1.58846937 3.9375 1.4375 C2.638125 1.293125 1.33875 1.14875 0 1 C0 0.67 0 0.34 0 0 Z " fill="#D3EDEB" transform="translate(252,143)"/>
<path d="M0 0 C2.90092502 2.90092502 3.55461795 3.96517325 4.6875 7.6875 C4.93886719 8.49574219 5.19023437 9.30398437 5.44921875 10.13671875 C5.63097656 10.75160156 5.81273437 11.36648437 6 12 C4.68 11.34 3.36 10.68 2 10 C2 44.65 2 79.3 2 115 C1.01 115.495 1.01 115.495 0 116 C0 77.72 0 39.44 0 0 Z " fill="#27655A" transform="translate(199,231)"/>
<path d="M0 0 C8.78849585 1.89866031 17.52314059 3.97016326 26 7 C27.09441406 7.37125 28.18882812 7.7425 29.31640625 8.125 C32 10 32 10 32.859375 13.5 C32.9371771 14.99871415 32.98133562 16.49938382 33 18 C33.03544922 18.82886719 33.07089844 19.65773438 33.10742188 20.51171875 C33.65727536 35.88517334 32.29517103 50.81280444 30 66 C29.67 66 29.34 66 29 66 C28.97315688 63.18743719 28.95323812 60.37512759 28.9375 57.5625 C28.92912109 56.76005859 28.92074219 55.95761719 28.91210938 55.13085938 C28.9034857 53.08704779 28.9477185 51.04316098 29 49 C29.33 48.67 29.66 48.34 30 48 C30.16010481 45.26298822 30.25946828 42.5483241 30.31640625 39.80859375 C30.33718735 38.98875504 30.35796844 38.16891632 30.37937927 37.32423401 C30.44496494 34.69541099 30.50380126 32.06648496 30.5625 29.4375 C30.60567667 27.65949439 30.64929067 25.88149935 30.69335938 24.10351562 C30.80065543 19.73578366 30.90189704 15.36794773 31 11 C30.38511719 10.87882812 29.77023437 10.75765625 29.13671875 10.6328125 C27.92435547 10.38144531 27.92435547 10.38144531 26.6875 10.125 C25.88699219 9.96257812 25.08648437 9.80015625 24.26171875 9.6328125 C22 9 22 9 19 7 C16.72461677 6.33386665 16.72461677 6.33386665 14.3125 5.875 C13.50425781 5.70742187 12.69601562 5.53984375 11.86328125 5.3671875 C11.24839844 5.24601562 10.63351562 5.12484375 10 5 C10 4.34 10 3.68 10 3 C9.36191406 2.95101562 8.72382813 2.90203125 8.06640625 2.8515625 C7.24011719 2.77679688 6.41382813 2.70203125 5.5625 2.625 C4.73878906 2.55539063 3.91507812 2.48578125 3.06640625 2.4140625 C2.38449219 2.27742188 1.70257813 2.14078125 1 2 C0.67 1.34 0.34 0.68 0 0 Z " fill="#EFCD70" transform="translate(336,94)"/>
<path d="M0 0 C3.91665108 -0.02904864 7.8332744 -0.04681517 11.75 -0.0625 C12.86117187 -0.07087891 13.97234375 -0.07925781 15.1171875 -0.08789062 C16.18710938 -0.09111328 17.25703125 -0.09433594 18.359375 -0.09765625 C19.34389648 -0.10289307 20.32841797 -0.10812988 21.34277344 -0.11352539 C23.75163284 -0.01061106 25.69150068 0.36059979 28 1 C29.32224418 1.19092821 30.64830326 1.35678456 31.9765625 1.5 C33.09937622 1.62266235 33.09937622 1.62266235 34.24487305 1.74780273 C35.03031494 1.83102783 35.81575684 1.91425293 36.625 2 C37.43171143 2.08902588 38.23842285 2.17805176 39.06958008 2.26977539 C43.27284846 2.72947483 47.4709945 3.11816651 51.6875 3.4375 C55.93710545 3.83521004 59.19162595 5.09581297 63 7 C63 7.66 63 8.32 63 9 C55.19000371 8.39872186 47.62243379 7.0422311 39.9375 5.5625 C26.66712572 3.08383814 13.46953821 1.75877214 0 1 C0 0.67 0 0.34 0 0 Z " fill="#D1BE5A" transform="translate(221,97)"/>
<path d="M0 0 C0 0.33 0 0.66 0 1 C-1.24499268 1.08040527 -2.48998535 1.16081055 -3.77270508 1.24365234 C-8.43801712 1.54665272 -13.10273793 1.8580605 -17.76733398 2.171875 C-19.77760137 2.30596804 -21.78801767 2.43784915 -23.79858398 2.56738281 C-37.72964418 3.39895294 -37.72964418 3.39895294 -51.5012207 5.54052734 C-56.67694607 6.49223376 -61.94425554 6.75026314 -67.1875 7.125 C-68.90163086 7.25455078 -68.90163086 7.25455078 -70.65039062 7.38671875 C-73.43325246 7.59630667 -76.21638972 7.80064415 -79 8 C-79 8.66 -79 9.32 -79 10 C-86.92 10.495 -86.92 10.495 -95 11 C-85.10598018 6.05299009 -73.69445636 5.52120611 -62.81689453 4.734375 C-58.78178684 4.42671709 -54.93804949 4.08031002 -51.02734375 3.01171875 C-46.0630875 1.65731836 -41.05409243 1.28188774 -35.9375 0.875 C-34.3896582 0.74762451 -34.3896582 0.74762451 -32.81054688 0.61767578 C-21.8748529 -0.2063145 -10.9590265 -0.20099795 0 0 Z " fill="#FBECC6" transform="translate(199,72)"/>
<path d="M0 0 C0.495 0.99 0.495 0.99 1 2 C-0.42936639 3.81892117 -1.86876965 5.62995881 -3.3125 7.4375 C-4.51326172 8.95150391 -4.51326172 8.95150391 -5.73828125 10.49609375 C-8 13 -8 13 -11 14 C-11.33 14.99 -11.66 15.98 -12 17 C-14.375 19.6875 -14.375 19.6875 -17 22 C-17.99 22 -18.98 22 -20 22 C-20.309375 23.1446875 -20.309375 23.1446875 -20.625 24.3125 C-22.43070271 27.84182802 -24.43768238 28.44148604 -28 30 C-30.16409277 31.86147558 -30.16409277 31.86147558 -30.8125 34.5 C-32 37 -32 37 -34.4375 38.3125 C-37 39 -37 39 -40 39 C-35.94966497 33.88378733 -31.65579573 29.94485551 -26.46484375 25.9921875 C-23.77347902 23.81691648 -21.41649324 21.47753393 -19 19 C-17.87643554 17.87356629 -16.75133503 16.74866338 -15.625 15.625 C-15.03203125 15.03203125 -14.4390625 14.4390625 -13.828125 13.828125 C-9.21875 9.21875 -4.609375 4.609375 0 0 Z " fill="#FDF4CC" transform="translate(293,304)"/>
<path d="M0 0 C21.56469764 -0.40816462 42.79807371 0.9383283 64 5 C64 5.33 64 5.66 64 6 C57.55865985 6.21959114 51.38201321 5.99091787 45 5.0625 C30.19332916 2.94405316 14.94016766 2.88905816 0 3 C0 2.01 0 1.02 0 0 Z " fill="#265731" transform="translate(200,97)"/>
<path d="M0 0 C0.66 1.32 1.32 2.64 2 4 C-17.47 4 -36.94 4 -57 4 C-53.23780159 2.1189008 -51.97490433 1.74405446 -48.00366211 1.69702148 C-46.51708351 1.67205849 -46.51708351 1.67205849 -45.00047302 1.64659119 C-43.93684036 1.63817703 -42.8732077 1.62976288 -41.77734375 1.62109375 C-40.1318026 1.59560204 -40.1318026 1.59560204 -38.45301819 1.56959534 C-34.94790396 1.51646275 -31.44280133 1.47616759 -27.9375 1.4375 C-24.4286886 1.39357084 -20.91996888 1.3468655 -17.41127014 1.29469299 C-15.22777687 1.26274403 -13.04420269 1.23585143 -10.86058044 1.21446228 C-9.87268021 1.20097244 -8.88477997 1.1874826 -7.86694336 1.17358398 C-6.99742538 1.16407211 -6.12790741 1.15456024 -5.23204041 1.14476013 C-2.8277167 1.08377581 -2.8277167 1.08377581 0 0 Z " fill="#1B5950" transform="translate(309,139)"/>
<path d="M0 0 C0 0.33 0 0.66 0 1 C-0.98742187 1.06058594 -1.97484375 1.12117188 -2.9921875 1.18359375 C-4.27351563 1.26738281 -5.55484375 1.35117188 -6.875 1.4375 C-8.15117187 1.51871094 -9.42734375 1.59992188 -10.7421875 1.68359375 C-13.88300152 1.79206027 -13.88300152 1.79206027 -16 3 C-17.74449221 3.1298779 -19.49340982 3.20252833 -21.2421875 3.24609375 C-22.30953125 3.27896484 -23.376875 3.31183594 -24.4765625 3.34570312 C-26.70304987 3.40584388 -28.92961352 3.46323759 -31.15625 3.51757812 C-37.680468 3.72389289 -43.85437244 4.35227835 -50.25048828 5.67993164 C-53.36882353 6.04293444 -55.94022123 5.64174819 -59 5 C-55.20379028 1.20379028 -48.71478092 1.87193822 -43.5625 1.375 C-42.9007074 1.30896576 -42.23891479 1.24293152 -41.55706787 1.17489624 C-27.6958352 -0.19018404 -13.92524366 -0.33106834 0 0 Z " fill="#698063" transform="translate(213,96)"/>
<path d="M0 0 C-5.32932432 1.70084819 -10.43109483 2.52013969 -16 3 C-16 2.34 -16 1.68 -16 1 C-13.8973294 0.63705686 -11.79278943 0.28493028 -9.6875 -0.0625 C-8.51574219 -0.25972656 -7.34398437 -0.45695312 -6.13671875 -0.66015625 C-3 -1 -3 -1 0 0 Z M-16 3 C-16.66 3.66 -17.32 4.32 -18 5 C-19.99750448 5 -21.99550368 4.99475258 -23.9921875 4.9375 C-26.12915241 4.88658763 -26.12915241 4.88658763 -28.4375 6 C-32.2458162 7.48617217 -35.95900909 7.15847023 -40 7 C-40 7.66 -40 8.32 -40 9 C-45.37578685 10.75623315 -50.30110255 11.39316874 -55.9375 11.625 C-56.71673828 11.66367188 -57.49597656 11.70234375 -58.29882812 11.7421875 C-60.19887379 11.83544127 -62.09940278 11.91875962 -64 12 C-60.46536221 9.64357481 -57.22404577 9.17209579 -53.125 8.5 C-48.52082511 7.73683076 -44.32733342 6.77933118 -40 5 C-32.0126356 3.28388192 -24.15115676 2.7059703 -16 3 Z " fill="#F7E5B8" transform="translate(136,79)"/>
<path d="M0 0 C0.33 0 0.66 0 1 0 C1.4994849 4.99484896 0.26395208 7.85351442 -2.05078125 12.109375 C-3.18120622 14.36092103 -3.57629881 16.52840972 -4 19 C-4.66 19.99 -5.32 20.98 -6 22 C-6.66 22 -7.32 22 -8 22 C-8.50336767 23.62395997 -9.00258976 25.24920541 -9.5 26.875 C-9.7784375 27.77992188 -10.056875 28.68484375 -10.34375 29.6171875 C-11.08850794 31.90944647 -11.08850794 31.90944647 -11 34 C-11.66 34 -12.32 34 -13 34 C-13 33.34 -13 32.68 -13 32 C-13.66 32 -14.32 32 -15 32 C-15.495 34.475 -15.495 34.475 -16 37 C-16.99 37 -17.98 37 -19 37 C-17.39516194 32.33138019 -15.02509806 27.90741833 -12 24 C-11.34 24 -10.68 24 -10 24 C-9.95875 23.21625 -9.9175 22.4325 -9.875 21.625 C-8.8288493 17.29094709 -6.85924694 14.28991101 -4.5 10.546875 C-2.49401166 7.14087396 -1.2476557 3.7429671 0 0 Z " fill="#FEF5CD" transform="translate(345,224)"/>
<path d="M0 0 C0.33 0.99 0.66 1.98 1 3 C1.66 3 2.32 3 3 3 C3.04962653 7.03845412 3.08582632 11.07678887 3.10986328 15.11547852 C3.11988926 16.48790583 3.13351356 17.86031195 3.15087891 19.23266602 C3.17527627 21.21100527 3.18544484 23.18950367 3.1953125 25.16796875 C3.20578613 26.35672607 3.21625977 27.5454834 3.22705078 28.77026367 C3.00170281 31.97577794 2.2927746 34.09203894 1 37 C0.76472057 39.16029299 0.60143452 41.3293012 0.5 43.5 C0.2994007 47.79282494 -0.18903957 51.08598875 -2 55 C-2.33 55 -2.66 55 -3 55 C-2.5343684 46.66764511 -1.95585593 38.35926134 -1.21386719 30.046875 C-0.32009412 19.99113839 0.29125218 10.09674221 0 0 Z " fill="#FEFCE5" transform="translate(369,105)"/>
<path d="M0 0 C-3.3 1.32 -6.6 2.64 -10 4 C-10.33 17.2 -10.66 30.4 -11 44 C-16.22252874 38.77747126 -14.1527791 24.24548245 -14.25 17 C-14.27143066 16.10434326 -14.29286133 15.20868652 -14.31494141 14.28588867 C-14.34122963 9.10467494 -13.94731312 5.46389171 -11 1 C-7.25680098 -0.87159951 -3.9585029 -1.31950097 0 0 Z " fill="#FEF8E2" transform="translate(42,100)"/>
<path d="M0 0 C19.47 0 38.94 0 59 0 C58.00424757 3.98300973 56.65362053 7.26137967 55 11 C54.67 11 54.34 11 54 11 C54.45822468 7.53058454 54.89131683 4.32604951 56 1 C39.5 1 23 1 6 1 C4.7763932 3.0745356 4.7763932 3.0745356 5 6 C5 7.66666667 5 9.33333333 5 11 C0 3.5 0 3.5 0 0 Z " fill="#E8FBF9" transform="translate(170,173)"/>
<path d="M0 0 C5.98813301 -0.09405445 11.9601592 -0.0946758 17.9375 0.3125 C18.79214844 0.37050781 19.64679688 0.42851563 20.52734375 0.48828125 C23.49628755 1.10270722 25.41650587 2.42743836 28 4 C31.38583255 5.12727363 34.79765956 6.07580407 38.234375 7.03515625 C41 8 41 8 42 10 C37.23208707 9.37574827 32.60785529 8.51505506 27.9296875 7.40625 C27.28556915 7.25466431 26.64145081 7.10307861 25.97781372 6.94689941 C23.94285051 6.46747478 21.90889407 5.98393819 19.875 5.5 C17.83378782 5.01684715 15.79237219 4.53457274 13.75076294 4.05310059 C11.90360839 3.61709923 10.05701239 3.17873355 8.21044922 2.74023438 C5.48052839 2.1107956 2.75051437 1.53081238 0 1 C0 0.67 0 0.34 0 0 Z " fill="#E1C65D" transform="translate(285,106)"/>
<path d="M0 0 C0 0.66 0 1.32 0 2 C0.639375 2.12375 1.27875 2.2475 1.9375 2.375 C2.618125 2.58125 3.29875 2.7875 4 3 C8.06147499 11.12294997 4.90316071 28.05759397 4 37 C3.67 37.66 3.34 38.32 3 39 C2.34 39 1.68 39 1 39 C0.79111486 31.89790526 1.60496642 25.03931818 2.5 18 C2.64308594 16.84371094 2.78617187 15.68742188 2.93359375 14.49609375 C3.28474243 11.66349443 3.64031962 8.83152642 4 6 C3.26394531 5.87882812 2.52789062 5.75765625 1.76953125 5.6328125 C0.79371094 5.46523437 -0.18210937 5.29765625 -1.1875 5.125 C-2.15042969 4.96257812 -3.11335938 4.80015625 -4.10546875 4.6328125 C-6.91032604 4.01960483 -9.37224747 3.14333657 -12 2 C-12 1.67 -12 1.34 -12 1 C-7.9472484 0.01751476 -4.16138263 -0.08159574 0 0 Z " fill="#DBC561" transform="translate(340,115)"/>
<path d="M0 0 C2.85442753 -0.05437005 5.70780076 -0.09384974 8.5625 -0.125 C9.36236328 -0.14175781 10.16222656 -0.15851563 10.98632812 -0.17578125 C16.07858076 -0.21735066 20.0793744 0.59027829 25 2 C28.59940198 2.35188792 32.19838356 2.46023722 35.8125 2.5625 C37.69414202 2.62229525 39.57566791 2.68590517 41.45703125 2.75390625 C42.28178955 2.77783447 43.10654785 2.8017627 43.95629883 2.82641602 C46 3 46 3 48 4 C48 4.99 48 5.98 48 7 C41.29039893 7.23962861 35.09378557 6.31339047 28.5 5.125 C19.0198261 3.47513548 9.56325225 2.06883407 0 1 C0 0.67 0 0.34 0 0 Z " fill="#FEF2C6" transform="translate(232,73)"/>
<path d="M0 0 C4.17316534 1.74244899 5.20255967 3.65095834 7.05078125 7.625 C8.66448298 11.6625747 9.86555722 15.80599942 11 20 C10.236875 19.175 9.47375 18.35 8.6875 17.5 C6.24565858 14.65944803 6.24565858 14.65944803 3 15 C3 13 3 13 4 12 C3.01 12 2.02 12 1 12 C0.34 12.99 -0.32 13.98 -1 15 C-1.02693575 12.87506859 -1.04636628 10.75004088 -1.0625 8.625 C-1.07410156 7.44164062 -1.08570313 6.25828125 -1.09765625 5.0390625 C-1 2 -1 2 0 0 Z " fill="#0E584E" transform="translate(201,241)"/>
<path d="M0 0 C0.33 0 0.66 0 1 0 C1.09765625 6.15234375 1.09765625 6.15234375 1 8 C0.67 8.33 0.34 8.66 0 9 C-0.57002729 11.56069253 -1.08524383 14.10940326 -1.5625 16.6875 C-1.70107422 17.39583984 -1.83964844 18.10417969 -1.98242188 18.83398438 C-2.593055 22.09169704 -3 25.03763291 -3 28.3671875 C-3 31.71371108 -4.27682286 33.1739895 -6 36 C-6.71923208 39.69523952 -6.71923208 39.69523952 -7 43 C-8.485 43.495 -8.485 43.495 -10 44 C-10 45.32 -10 46.64 -10 48 C-10.66 48 -11.32 48 -12 48 C-11.31865242 41.59533276 -9.64341549 35.7026349 -7.02734375 29.80859375 C-5.58009189 25.85203829 -4.82188766 21.81299077 -4 17.6875 C-2.80034691 11.75015445 -1.51216532 5.86639134 0 0 Z " fill="#FCF5CD" transform="translate(365,160)"/>
<path d="M0 0 C0.66 0.33 1.32 0.66 2 1 C1.505 1.4125 1.01 1.825 0.5 2.25 C-1.43386092 4.12202338 -1.43386092 4.12202338 -1 8 C-1.59167969 8.24234375 -2.18335938 8.4846875 -2.79296875 8.734375 C-6.46275959 10.29089314 -9.57668632 11.65544236 -12.6875 14.1875 C-15 16 -15 16 -18.1875 16.5 C-19.5796875 16.7475 -19.5796875 16.7475 -21 17 C-22.43637698 18.95163118 -22.43637698 18.95163118 -23 21 C-24.32 21 -25.64 21 -27 21 C-27.33 21.66 -27.66 22.32 -28 23 C-28.66 22.34 -29.32 21.68 -30 21 C-29.40316406 20.63390625 -28.80632812 20.2678125 -28.19140625 19.890625 C-21.96966757 16.00781632 -15.93085275 11.91272804 -9.9375 7.6875 C-8.81226929 6.89617676 -8.81226929 6.89617676 -7.66430664 6.08886719 C-6.95910889 5.5890332 -6.25391113 5.08919922 -5.52734375 4.57421875 C-4.89562256 4.12651123 -4.26390137 3.67880371 -3.61303711 3.2175293 C-1.86191808 1.95417348 -1.86191808 1.95417348 0 0 Z " fill="#DDC55E" transform="translate(234,324)"/>
<path d="M0 0 C2.72057073 2.72057073 3.27608408 5.83501566 4.3125 9.4375 C6.85530911 17.91922534 10.30480723 25.6741188 14.3125 33.5625 C16 37 16 37 16 39 C14.02 38.67 12.04 38.34 10 38 C9.95101562 37.37351563 9.90203125 36.74703125 9.8515625 36.1015625 C9.77679688 35.28429687 9.70203125 34.46703125 9.625 33.625 C9.55539063 32.81289062 9.48578125 32.00078125 9.4140625 31.1640625 C9.17107412 28.79665809 9.17107412 28.79665809 7 27 C6.13227743 23.90656904 5.46784792 20.79054401 4.78125 17.65234375 C4.5234375 16.77707031 4.265625 15.90179688 4 15 C3.34 14.67 2.68 14.34 2 14 C0.52819204 9.17574056 -0.25376143 5.07522852 0 0 Z " fill="#E7DEAB" transform="translate(66,186)"/>
<path d="M0 0 C0.33 0 0.66 0 1 0 C1.09289255 4.45884261 1.09970897 8.82397889 0.5 13.25 C0.10098621 16.24260345 -0.0939572 18.99336947 0 22 C-0.99 22 -1.98 22 -3 22 C-3.10957031 22.61746094 -3.21914063 23.23492187 -3.33203125 23.87109375 C-5.1153395 33.39656951 -8.32171171 42.05634473 -12 51 C-12.66 50.67 -13.32 50.34 -14 50 C-13.76925781 49.48695313 -13.53851563 48.97390625 -13.30078125 48.4453125 C-6.90934027 33.43932064 -2.46872555 16.09609056 0 0 Z " fill="#C7BD61" transform="translate(340,154)"/>
<path d="M0 0 C3.04192013 0.1415547 6.08346347 0.28809901 9.125 0.4375 C9.9809375 0.47681641 10.836875 0.51613281 11.71875 0.55664062 C16.21721792 0.78156402 20.56806207 1.13540883 25 2 C25 2.66 25 3.32 25 4 C26.175625 3.938125 27.35125 3.87625 28.5625 3.8125 C33.03960301 3.78855827 36.0241888 5.0120944 40 7 C40 7.33 40 7.66 40 8 C35.48019444 8.25110031 31.87074809 8.10633985 27.5625 6.6875 C21.44290386 4.67623087 15.19279764 3.70672548 8.85546875 2.6484375 C5.88883577 2.14949011 2.94446988 1.61319019 0 1 C0 0.67 0 0.34 0 0 Z " fill="#FDF5CF" transform="translate(280,80)"/>
<path d="M0 0 C2.52232216 2.52232216 2.85468199 4.50973428 3.8125 7.9375 C5.39753297 13.27964815 7.32092954 18.2052957 9.703125 23.234375 C11.10850384 26.23138772 12.40905373 29.2592695 13.6875 32.3125 C14.08324219 33.25738281 14.47898437 34.20226562 14.88671875 35.17578125 C16.03426998 38.08693752 17.03704906 41.02320644 18 44 C17.34 44 16.68 44 16 44 C15.67 42.35 15.34 40.7 15 39 C14.34 39 13.68 39 13 39 C10 32.5 10 32.5 10 28 C9.34 28 8.68 28 8 28 C7.80664062 27.21753906 7.61328125 26.43507812 7.4140625 25.62890625 C7.15367188 24.61699219 6.89328125 23.60507813 6.625 22.5625 C6.36976562 21.55316406 6.11453125 20.54382813 5.8515625 19.50390625 C5.27426046 16.84429676 5.27426046 16.84429676 3 16 C2.1484375 13.41796875 2.1484375 13.41796875 1.375 10.1875 C0.98441406 8.60001953 0.98441406 8.60001953 0.5859375 6.98046875 C0 4 0 4 0 0 Z " fill="#FEF7DE" transform="translate(41,192)"/>
<path d="M0 0 C6.60655738 1.77868852 6.60655738 1.77868852 9 3.125 C11.1896732 4.24216138 11.1896732 4.24216138 14.625 4 C15.73875 4 16.8525 4 18 4 C20 6 20 6 20.5 9.5625 C20.7475 11.2640625 20.7475 11.2640625 21 13 C21.66 13.33 22.32 13.66 23 14 C18.52470281 13.44982585 15.74057462 11.73895717 12.0625 9.1875 C11.06347656 8.50042969 10.06445312 7.81335938 9.03515625 7.10546875 C8.03355469 6.41066406 7.03195313 5.71585937 6 5 C4.87435819 4.26591364 3.7480765 3.53280732 2.62109375 2.80078125 C1.75613281 2.20652344 0.89117187 1.61226563 0 1 C0 0.67 0 0.34 0 0 Z " fill="#4F7462" transform="translate(178,334)"/>
<path d="M0 0 C0.33 0 0.66 0 1 0 C1 1.65 1 3.3 1 5 C0.01 5.33 -0.98 5.66 -2 6 C-2 7.65 -2 9.3 -2 11 C-3.98 11.33 -5.96 11.66 -8 12 C-8.061875 12.70125 -8.12375 13.4025 -8.1875 14.125 C-9.29201202 18.0332733 -11.28230992 20.00357248 -14 23 C-14.99 22.34 -15.98 21.68 -17 21 C-14.34125956 17.66027427 -11.67312829 14.32822058 -9 11 C-8.175 9.97261719 -7.35 8.94523437 -6.5 7.88671875 C-5.695625 6.89285156 -4.89125 5.89898437 -4.0625 4.875 C-3.31097656 3.94429688 -2.55945313 3.01359375 -1.78515625 2.0546875 C-1.19605469 1.37664062 -0.60695313 0.69859375 0 0 Z " fill="#FDF5D3" transform="translate(311,282)"/>
<path d="M0 0 C0.99 0.33 1.98 0.66 3 1 C-7.37357631 8.66742597 -7.37357631 8.66742597 -13 10 C-13.25 4.375 -13.25 4.375 -11 1 C-8.65234375 0.7421875 -8.65234375 0.7421875 -5.9375 0.875 C-4.29266222 0.94579646 -2.64635043 0.99419277 -1 1 C-0.67 0.67 -0.34 0.34 0 0 Z " fill="#135742" transform="translate(213,337)"/>
<path d="M0 0 C-7.14285221 5.70993961 -14.32979627 11.34050237 -21.75 16.6875 C-22.64356201 17.3379126 -22.64356201 17.3379126 -23.55517578 18.00146484 C-27.7589925 21 -27.7589925 21 -30 21 C-30 19 -30 19 -28.25 16.9375 C-25.98378791 14.98603959 -24.8336508 14.58627258 -22 14 C-21.67 13.34 -21.34 12.68 -21 12 C-18.4375 11.375 -18.4375 11.375 -16 11 C-16 10.01 -16 9.02 -16 8 C-14.35 7.67 -12.7 7.34 -11 7 C-10.67 5.68 -10.34 4.36 -10 3 C-8.68 3 -7.36 3 -6 3 C-6 2.01 -6 1.02 -6 0 C-3 -1 -3 -1 0 0 Z " fill="#2F5A2F" transform="translate(246,316)"/>
<path d="M0 0 C4.45879441 1.50578423 7.95069787 3.9687178 11.6875 6.75 C17.2795595 10.83644814 22.96873631 14.58135745 29 18 C28.01 18.66 27.02 19.32 26 20 C25.01 19.67 24.02 19.34 23 19 C23 18.01 23 17.02 23 16 C22.236875 15.896875 21.47375 15.79375 20.6875 15.6875 C17.73421485 14.93200845 17.04132166 14.13007477 15 12 C12.89667109 11.28552357 12.89667109 11.28552357 11 11 C11 10.01 11 9.02 11 8 C8.34771188 6.92474806 5.71631546 5.90543849 3 5 C3 4.34 3 3.68 3 3 C2.01 2.67 1.02 2.34 0 2 C0 1.34 0 0.68 0 0 Z " fill="#E9E1AE" transform="translate(169,329)"/>
<path d="M0 0 C0.66 0 1.32 0 2 0 C-0.07166081 6.84685471 -2.81964339 13.19471028 -5.9375 19.625 C-6.36740234 20.52734375 -6.79730469 21.4296875 -7.24023438 22.359375 C-9.64336119 27.36254645 -12.1780906 32.22043188 -15 37 C-15.66 37 -16.32 37 -17 37 C-16.530848 31.95661597 -15.16799258 29.85296395 -12 26 C-8.071486 19.57245747 -5.13027433 13.21926302 -3 6 C-2.34 6 -1.68 6 -1 6 C-0.67 4.02 -0.34 2.04 0 0 Z " fill="#305A2F" transform="translate(325,202)"/>
<path d="M0 0 C4.98946727 2.13834312 7.67593776 5.18587108 10 10 C10.66 10.33 11.32 10.66 12 11 C12.268125 11.61875 12.53625 12.2375 12.8125 12.875 C13.87647919 15.21958864 13.87647919 15.21958864 16.5 16.375 C19.74284857 18.48285157 19.97373927 20.36861588 21 24 C21.66 24.33 22.32 24.66 23 25 C22.67 25.66 22.34 26.32 22 27 C13.79704186 19.0533843 6.55404594 10.34558402 0 1 C0 0.67 0 0.34 0 0 Z " fill="#5D745B" transform="translate(108,266)"/>
<path d="M0 0 C11.00683821 1.22298202 21.3987642 3.85323548 32 7 C32 7.33 32 7.66 32 8 C28.46576998 8.1413692 25.57123103 8.19280043 22.19921875 7.0546875 C17.65275663 5.55585383 13.07760805 5.13864506 8.33984375 4.5625 C5.28225859 4.04753829 2.81164024 3.27560238 0 2 C0 1.34 0 0.68 0 0 Z " fill="#F1C960" transform="translate(304,86)"/>
<path d="M0 0 C2.88828318 1.44414159 3.04447814 3.6253551 4.08203125 6.52734375 C5.1379352 9.37154459 6.29174851 12.15453036 7.5 14.9375 C7.9021875 15.87464844 8.304375 16.81179687 8.71875 17.77734375 C9.8575732 20.32139953 9.8575732 20.32139953 13 21 C12.67 23.31 12.34 25.62 12 28 C8.58429236 23.67343699 6.36757314 18.95302111 4 14 C3.60039063 13.18273437 3.20078125 12.36546875 2.7890625 11.5234375 C-0.56825939 4.40401024 -0.56825939 4.40401024 0 0 Z " fill="#637B61" transform="translate(72,199)"/>
<path d="M0 0 C1.16853381 3.67253484 0.60998468 5.43899359 -1.04296875 8.93359375 C-2.51395158 12.10971586 -3.70044205 15.39491958 -4.9375 18.66796875 C-6.03455558 21.07584441 -7.38434358 22.91584701 -9 25 C-9.68753301 26.65816784 -10.35561283 28.32459336 -11 30 C-11.66 30.99 -12.32 31.98 -13 33 C-13.66 33 -14.32 33 -15 33 C-13.59492783 28.28760409 -11.57385704 24.14869782 -9.1875 19.875 C-5.65570919 13.42176201 -2.65947713 6.86605394 0 0 Z " fill="#CDC062" transform="translate(325,206)"/>
<path d="M0 0 C0.33 0 0.66 0 1 0 C1.11069824 0.75619629 1.22139648 1.51239258 1.33544922 2.29150391 C1.84303493 5.73685413 2.35893551 9.18091002 2.875 12.625 C3.04902344 13.81480469 3.22304688 15.00460938 3.40234375 16.23046875 C3.57636719 17.38417969 3.75039063 18.53789062 3.9296875 19.7265625 C4.08679199 20.78439941 4.24389648 21.84223633 4.40576172 22.93212891 C4.94251203 26.06625558 4.94251203 26.06625558 6.09033203 29.24365234 C7.03110211 32.09424124 7.05753329 33.25041343 6 36 C2.87213427 31.64818681 2.51978344 28.19783442 2 23 C1.67 22.67 1.34 22.34 1 22 C-0.28914575 14.69484075 -0.09350671 7.39741993 0 0 Z " fill="#D6D4A7" transform="translate(56,138)"/>
<path d="M0 0 C-0.125 1.8125 -0.125 1.8125 -1 4 C-2.96466413 5.06775224 -4.96855359 6.06553465 -7 7 C-7.515625 7.515625 -8.03125 8.03125 -8.5625 8.5625 C-10.4597208 10.4597208 -12.51714825 11.04505702 -15 12 C-15.66 12.66 -16.32 13.32 -17 14 C-18.98821313 14.39764263 -20.98944339 14.73775349 -23 15 C-18.37580801 9.55005944 -12.31136375 6.23492352 -6 3 C-5.34 3 -4.68 3 -4 3 C-4 2.34 -4 1.68 -4 1 C-2 0 -2 0 0 0 Z " fill="#FDF6D2" transform="translate(228,362)"/>
<path d="M0 0 C0.66 0.33 1.32 0.66 2 1 C2 1.66 2 2.32 2 3 C2.721875 3.226875 3.44375 3.45375 4.1875 3.6875 C8.56079847 5.72837262 11.27162738 8.43920153 13.3125 12.8125 C13.539375 13.534375 13.76625 14.25625 14 15 C10.83145253 14.42308522 9.21773541 13.58353113 6.984375 11.27734375 C6.45585937 10.73916016 5.92734375 10.20097656 5.3828125 9.64648438 C4.84398437 9.08251953 4.30515625 8.51855469 3.75 7.9375 C3.19570312 7.36966797 2.64140625 6.80183594 2.0703125 6.21679688 C0.70665786 4.81787531 -0.64760417 3.40980886 -2 2 C-1.34 1.34 -0.68 0.68 0 0 Z " fill="#5B7A74" transform="translate(147,197)"/>
<path d="M0 0 C1 3 1 3 -0.3125 6.625 C-2 10 -2 10 -4 11 C-4.495 12.2375 -4.495 12.2375 -5 13.5 C-6 16 -6 16 -8 17 C-8.33 17.99 -8.66 18.98 -9 20 C-8.34 20 -7.68 20 -7 20 C-7.33 20.99 -7.66 21.98 -8 23 C-11 23 -11 23 -14 22 C-12.98679687 20.49759766 -12.98679687 20.49759766 -11.953125 18.96484375 C-11.0519578 17.6224801 -10.15092321 16.28002742 -9.25 14.9375 C-8.8065625 14.28072266 -8.363125 13.62394531 -7.90625 12.94726562 C-5.0773291 8.72468516 -2.47191869 4.44136792 0 0 Z " fill="#D5C361" transform="translate(309,239)"/>
<path d="M0 0 C0.66 0.33 1.32 0.66 2 1 C-3.12882846 8.17490364 -8.42548201 15.16528512 -14 22 C-15 19 -15 19 -13.6875 16.3125 C-13.130625 15.549375 -12.57375 14.78625 -12 14 C-11.34 14 -10.68 14 -10 14 C-10 13.34 -10 12.68 -10 12 C-9.34 12 -8.68 12 -8 12 C-7.67 10.35 -7.34 8.7 -7 7 C-6.01 7 -5.02 7 -4 7 C-3.71125 6.21625 -3.4225 5.4325 -3.125 4.625 C-2 2 -2 2 0 0 Z " fill="#F1C962" transform="translate(313,276)"/>
<path d="M0 0 C3.62590381 1.55636242 6.16858915 3.7792923 9.0625 6.4375 C10.34833984 7.61119141 10.34833984 7.61119141 11.66015625 8.80859375 C13.47596434 10.50920867 15.25843926 12.22417904 17 14 C13.0118259 13.43026084 10.37553327 12.16380338 7 10 C6.2575 9.71125 5.515 9.4225 4.75 9.125 C3 8 3 8 2.375 5.4375 C2.25125 4.633125 2.1275 3.82875 2 3 C1.34 2.67 0.68 2.34 0 2 C0 1.34 0 0.68 0 0 Z " fill="#EFE4B0" transform="translate(135,300)"/>
<path d="M0 0 C0.99 0.33 1.98 0.66 3 1 C4.30480865 4.26202163 5.21066812 7.57956185 6 11 C6.66 11 7.32 11 8 11 C8.99 12.485 8.99 12.485 10 14 C10.66 14.66 11.32 15.32 12 16 C12 17.32 12 18.64 12 20 C8.01700287 18.67233429 6.96697327 16.19144446 4.9375 12.75 C4.58623047 12.17636719 4.23496094 11.60273438 3.87304688 11.01171875 C1.91914778 7.76876336 0.29111508 4.55892863 -1 1 C-0.67 0.67 -0.34 0.34 0 0 Z " fill="#5B755D" transform="translate(89,234)"/>
<path d="M0 0 C-3.52155964 2.34770643 -5.50771843 2.37669614 -9.6875 2.625 C-10.86699219 2.69976562 -12.04648438 2.77453125 -13.26171875 2.8515625 C-14.16535156 2.90054688 -15.06898437 2.94953125 -16 3 C-16 3.66 -16 4.32 -16 5 C-23.92 5.495 -23.92 5.495 -32 6 C-22.56919025 1.28459512 -10.51263586 -0.2628159 0 0 Z " fill="#FDF3D6" transform="translate(136,77)"/>
<path d="M0 0 C1.3267853 2.6535706 0.74631253 3.64471406 -0.125 6.4375 C-1.58940631 10.66875694 -2.98474236 11.94089352 -7 14 C-7.68753301 15.65816784 -8.35561283 17.32459336 -9 19 C-11.125 20.3125 -11.125 20.3125 -13 21 C-11.58640226 16.95696398 -9.63594388 13.91208947 -7.0625 10.5 C-4.50039522 7.09024561 -2.13488726 3.69422497 0 0 Z " fill="#FCF1C9" transform="translate(325,261)"/>
<path d="M0 0 C0 3.94720688 -1.52509109 5.01555103 -4 8 C-4.70885894 9.31138904 -5.39456452 10.63777017 -6 12 C-6.66 12 -7.32 12 -8 12 C-9.50660662 13.56247728 -9.50660662 13.56247728 -11 15.5 C-12.5625 17.46875 -12.5625 17.46875 -14 19 C-14.66 19 -15.32 19 -16 19 C-16.66 20.32 -17.32 21.64 -18 23 C-18.66 22.67 -19.32 22.34 -20 22 C-19.28972656 21.29875 -18.57945312 20.5975 -17.84765625 19.875 C-14.96307038 16.98939807 -12.19144705 14.00986168 -9.4375 11 C-8.96892578 10.49210937 -8.50035156 9.98421875 -8.01757812 9.4609375 C-5.21369162 6.40215222 -2.55441401 3.26964993 0 0 Z " fill="#C6BB5E" transform="translate(282,278)"/>
<path d="M0 0 C0 0.66 0 1.32 0 2 C-2.66442569 2.820522 -5.33117276 3.63152305 -8 4.4375 C-9.11568359 4.78264648 -9.11568359 4.78264648 -10.25390625 5.13476562 C-15.17915388 6.61233991 -19.88127871 7.4939446 -25 8 C-25 7.34 -25 6.68 -25 6 C-23.84242187 5.73445313 -22.68484375 5.46890625 -21.4921875 5.1953125 C-19.95309007 4.83869236 -18.41402952 4.48191309 -16.875 4.125 C-16.11445312 3.95097656 -15.35390625 3.77695313 -14.5703125 3.59765625 C-9.86721539 2.50296985 -4.75342581 0 0 0 Z " fill="#E8E0AF" transform="translate(81,112)"/>
<path d="M0 0 C0.66 0.33 1.32 0.66 2 1 C-0.77983844 4.60349428 -3.74141051 7.82496409 -7 11 C-7.804375 11.86625 -7.804375 11.86625 -8.625 12.75 C-10 14 -10 14 -13 15 C-13.99 14.34 -14.98 13.68 -16 13 C-15.29488281 12.61199219 -14.58976563 12.22398437 -13.86328125 11.82421875 C-10.63366852 9.76660736 -7.99353659 7.41569057 -5.1875 4.8125 C-4.68541016 4.34908203 -4.18332031 3.88566406 -3.66601562 3.40820312 C-2.44043171 2.27599703 -1.21970658 1.13853521 0 0 Z " fill="#215E54" transform="translate(236,270)"/>
<path d="M0 0 C0.66 0 1.32 0 2 0 C2.19335938 0.60328125 2.38671875 1.2065625 2.5859375 1.828125 C2.84632813 2.62734375 3.10671875 3.4265625 3.375 4.25 C3.63023437 5.03890625 3.88546875 5.8278125 4.1484375 6.640625 C4.95936916 8.88742648 5.78697252 10.94152913 7 13 C9.05000871 13.80528889 9.05000871 13.80528889 11 14 C9.6875 15.5 9.6875 15.5 8 17 C7.01 17 6.02 17 5 17 C4.16080602 14.73117913 3.32848276 12.46022973 2.5 10.1875 C2.26152344 9.54490234 2.02304688 8.90230469 1.77734375 8.24023438 C0.72931254 5.35066261 0 3.09923939 0 0 Z " fill="#D3EFED" transform="translate(215,266)"/>
<path d="M0 0 C0.33 0 0.66 0 1 0 C1.02893932 3.62498334 1.04677792 7.24993713 1.0625 10.875 C1.07087891 11.90753906 1.07925781 12.94007813 1.08789062 14.00390625 C1.09111328 14.99003906 1.09433594 15.97617188 1.09765625 16.9921875 C1.10289307 17.90339355 1.10812988 18.81459961 1.11352539 19.75341797 C1 22 1 22 0 24 C-0.66 24 -1.32 24 -2 24 C-2.10103455 18.39258264 -1.76082036 13.05193239 -1 7.5 C-0.90460938 6.77296875 -0.80921875 6.0459375 -0.7109375 5.296875 C-0.47853833 3.53064133 -0.23993362 1.76522594 0 0 Z " fill="#C0B75D" transform="translate(343,130)"/>
<path d="M0 0 C3.12704096 1.37535062 5.11698121 2.9454879 7.4375 5.4375 C10.10636715 8.20352077 12.67352535 10.05955646 16 12 C17.8125 14.1875 17.8125 14.1875 19 16 C17.35 15.34 15.7 14.68 14 14 C14 13.34 14 12.68 14 12 C13.236875 11.731875 12.47375 11.46375 11.6875 11.1875 C9.06241204 10.02757741 7.97535534 8.97535534 6 7 C5.319375 6.896875 4.63875 6.79375 3.9375 6.6875 C3.298125 6.460625 2.65875 6.23375 2 6 C0.75 2.9375 0.75 2.9375 0 0 Z " fill="#FEF6DF" transform="translate(136,334)"/>
<path d="M0 0 C0.99 0.33 1.98 0.66 3 1 C2.34 1 1.68 1 1 1 C0.7421875 1.59296875 0.484375 2.1859375 0.21875 2.796875 C-1.09769895 5.17660965 -2.42580782 6.50978792 -4.5 8.25 C-5.1084375 8.77078125 -5.716875 9.2915625 -6.34375 9.828125 C-8 11 -8 11 -10 11 C-10.33 9.68 -10.66 8.36 -11 7 C-10.37351562 6.66226562 -9.74703125 6.32453125 -9.1015625 5.9765625 C-8.28429687 5.53054688 -7.46703125 5.08453125 -6.625 4.625 C-5.40683594 3.96371094 -5.40683594 3.96371094 -4.1640625 3.2890625 C-1.89185698 2.0556107 -1.89185698 2.0556107 0 0 Z " fill="#F2CA61" transform="translate(269,325)"/>
<path d="M0 0 C0.33 0 0.66 0 1 0 C1.36444983 4.25191465 0.56111503 6.58517997 -2 10 C-2.99 10.33 -3.98 10.66 -5 11 C-6.38576923 12.62332967 -7.72641268 14.28724465 -9 16 C-9.66 15.67 -10.32 15.34 -11 15 C-9.19272453 12.49618432 -7.37833327 9.99761453 -5.5625 7.5 C-5.04623047 6.78457031 -4.52996094 6.06914062 -3.99804688 5.33203125 C-3.50498047 4.65527344 -3.01191406 3.97851562 -2.50390625 3.28125 C-2.04830322 2.65283203 -1.5927002 2.02441406 -1.12329102 1.37695312 C-0.56726196 0.69536133 -0.56726196 0.69536133 0 0 Z " fill="#C5BD62" transform="translate(294,262)"/>
<path d="M0 0 C0.33 0 0.66 0 1 0 C1.09765625 6.15234375 1.09765625 6.15234375 1 8 C0.67 8.33 0.34 8.66 0 9 C-0.65581941 12.41775599 -1.24892093 15.83859238 -1.80664062 19.2734375 C-2.14124426 21.19437443 -2.56444752 23.09940737 -3 25 C-3.66 25.33 -4.32 25.66 -5 26 C-4.56901343 17.03547936 -2.30110566 8.62647053 0 0 Z " fill="#FCEDBD" transform="translate(365,160)"/>
<path d="M0 0 C8.3124321 0.42741229 15.9901375 1.74190046 24 4 C24 4.33 24 4.66 24 5 C17.69673384 6.18541154 13.50260687 5.69120225 7.5 3.5625 C6.40945313 3.19801758 6.40945313 3.19801758 5.296875 2.82617188 C3.52627052 2.23208748 1.76236118 1.61810968 0 1 C0 0.67 0 0.34 0 0 Z " fill="#F2CD6B" transform="translate(280,81)"/>
<path d="M0 0 C2.29160319 -0.02692484 4.58329546 -0.04636124 6.875 -0.0625 C8.15117187 -0.07410156 9.42734375 -0.08570312 10.7421875 -0.09765625 C14 0 14 0 16 1 C16 1.99 16 2.98 16 4 C7.42857143 4.14285714 7.42857143 4.14285714 4 3 C4 2.34 4 1.68 4 1 C2.68 0.67 1.36 0.34 0 0 Z " fill="#FDF5D3" transform="translate(264,76)"/>
<path d="M0 0 C0 0.66 0 1.32 0 2 C-1.92587579 3.63139937 -3.84326717 5.13723225 -5.875 6.625 C-6.43058594 7.04523438 -6.98617187 7.46546875 -7.55859375 7.8984375 C-11.73764712 11 -11.73764712 11 -14 11 C-13.67 9.68 -13.34 8.36 -13 7 C-11.35 6.67 -9.7 6.34 -8 6 C-8 5.01 -8 4.02 -8 3 C-7.01 3 -6.02 3 -5 3 C-5 2.34 -5 1.68 -5 1 C-3 0 -3 0 0 0 Z " fill="#F2CA62" transform="translate(248,345)"/>
<path d="M0 0 C0.33 0 0.66 0 1 0 C1.4994849 4.99484896 0.26395208 7.85351442 -2.05078125 12.109375 C-3.18120622 14.36092103 -3.57629881 16.52840972 -4 19 C-4.66 19.99 -5.32 20.98 -6 22 C-6.66 22 -7.32 22 -8 22 C-7.67 20.68 -7.34 19.36 -7 18 C-6.34 18 -5.68 18 -5 18 C-4.9175 16.88625 -4.835 15.7725 -4.75 14.625 C-4.12080974 9.3848781 -2.11369129 4.79758766 0 0 Z " fill="#FEF8DB" transform="translate(345,224)"/>
<path d="M0 0 C-1.32 0.33 -2.64 0.66 -4 1 C-4 1.66 -4 2.32 -4 3 C-8.873261 4.5912689 -12.80790596 5.21192221 -18 5 C-13.31304335 0.31304335 -6.42404033 -2.14134678 0 0 Z " fill="#F9E7BF" transform="translate(72,92)"/>
<path d="M0 0 C0.33 0 0.66 0 1 0 C1 8.91 1 17.82 1 27 C2.98 26.67 4.96 26.34 7 26 C4.94766315 28.2477975 3.99332739 29.0022242 1 30 C0 29 0 29 -0.11352539 26.22436523 C-0.10828857 25.01466064 -0.10305176 23.80495605 -0.09765625 22.55859375 C-0.09443359 21.25341797 -0.09121094 19.94824219 -0.08789062 18.60351562 C-0.07953401 17.2148431 -0.07106905 15.82617123 -0.0625 14.4375 C-0.05748666 13.04492344 -0.05292347 11.65234519 -0.04882812 10.25976562 C-0.03699434 6.8398013 -0.0205088 3.41992156 0 0 Z " fill="#F8D377" transform="translate(199,349)"/>
<path d="M0 0 C0.66 0 1.32 0 2 0 C0.43082402 6.01517457 -1.11895557 11.08401038 -5 16 C-5.33 16 -5.66 16 -6 16 C-6 14.02 -6 12.04 -6 10 C-5.34 10 -4.68 10 -4 10 C-3.896875 9.46375 -3.79375 8.9275 -3.6875 8.375 C-2.81907303 5.37497956 -1.44379704 2.7620465 0 0 Z " fill="#F2CB65" transform="translate(343,224)"/>
<path d="M0 0 C3.14886376 1.57443188 4.06759276 4.70470442 5.5625 7.75 C5.87896484 8.37132812 6.19542969 8.99265625 6.52148438 9.6328125 C8.22576224 13.06307878 9.47049922 16.19919991 10 20 C9.01 19.67 8.02 19.34 7 19 C7 17.68 7 16.36 7 15 C6.34 15 5.68 15 5 15 C4.16260219 12.8765984 3.33019717 10.7512272 2.5 8.625 C1.80390625 6.84996094 1.80390625 6.84996094 1.09375 5.0390625 C0 2 0 2 0 0 Z " fill="#FDF7DD" transform="translate(59,236)"/>
<path d="M0 0 C0.33 0 0.66 0 1 0 C1.05410136 3.06273831 1.09372225 6.12451452 1.125 9.1875 C1.15013672 10.48397461 1.15013672 10.48397461 1.17578125 11.80664062 C1.21038233 16.32208103 1.15567916 19.90081483 -1 24 C-1.33 24 -1.66 24 -2 24 C-1.03644647 7.1070615 -1.03644647 7.1070615 0 0 Z " fill="#FEF5CC" transform="translate(368,136)"/>
<path d="M0 0 C1.65 0 3.3 0 5 0 C5 0.66 5 1.32 5 2 C3.13671875 3.65625 3.13671875 3.65625 0.6875 5.5 C-0.51326172 6.41265625 -0.51326172 6.41265625 -1.73828125 7.34375 C-3.46143275 8.60560879 -5.22292703 9.81528469 -7 11 C-7.33 10.34 -7.66 9.68 -8 9 C-7.34 9 -6.68 9 -6 9 C-5.34 7.02 -4.68 5.04 -4 3 C-3.01 3 -2.02 3 -1 3 C-0.67 2.01 -0.34 1.02 0 0 Z " fill="#336038" transform="translate(253,304)"/>
<path d="M0 0 C1.65 0 3.3 0 5 0 C1.71842138 5.17609824 -1.45924219 9.85989729 -6 14 C-5.31113213 10.61108678 -4.01283514 7.81988387 -2.4375 4.75 C-1.75494141 3.41195313 -1.75494141 3.41195313 -1.05859375 2.046875 C-0.70925781 1.37140625 -0.35992187 0.6959375 0 0 Z " fill="#235832" transform="translate(288,264)"/>
<path d="M0 0 C0.66 0 1.32 0 2 0 C1.34 2.64 0.68 5.28 0 8 C-0.66 8 -1.32 8 -2 8 C-2.4021875 9.1446875 -2.4021875 9.1446875 -2.8125 10.3125 C-3.94424112 12.87380884 -4.91223401 14.19692938 -7 16 C-6.67 14.02 -6.34 12.04 -6 10 C-5.34 10 -4.68 10 -4 10 C-3.67 7.69 -3.34 5.38 -3 3 C-2.01 3 -1.02 3 0 3 C0 2.01 0 1.02 0 0 Z " fill="#F1CA67" transform="translate(335,240)"/>
<path d="M0 0 C3 1 3 1 4.1875 3.3125 C5 6 5 6 5 10 C5.66 10 6.32 10 7 10 C7.33 12.97 7.66 15.94 8 19 C6.16530656 16.24795984 4.81355693 13.62357183 3.4375 10.625 C3.00308594 9.68914062 2.56867188 8.75328125 2.12109375 7.7890625 C1.07029335 5.17487614 0.44884521 2.77376255 0 0 Z " fill="#DFF7F4" transform="translate(204,240)"/>
<path d="M0 0 C0.33 0 0.66 0 1 0 C1.09289255 4.45884261 1.09970897 8.82397889 0.5 13.25 C0.10098621 16.24260345 -0.0939572 18.99336947 0 22 C-0.99 22 -1.98 22 -3 22 C-2.51172287 14.52165033 -1.66594452 7.31074682 0 0 Z " fill="#D3C15E" transform="translate(340,154)"/>
<path d="M0 0 C5.29860806 1.2976183 9.34525646 3.15015702 14 6 C13.67 6.99 13.34 7.98 13 9 C8.53390039 6.49898422 4.18095889 3.95726361 0 1 C0 0.67 0 0.34 0 0 Z " fill="#687E63" transform="translate(178,334)"/>
<path d="M0 0 C0.66 0.33 1.32 0.66 2 1 C1.505 1.4125 1.01 1.825 0.5 2.25 C-1.43386092 4.12202338 -1.43386092 4.12202338 -1 8 C-5.625 10.125 -5.625 10.125 -9 9 C-6.31941902 5.42589203 -3.57410797 2.68058098 0 0 Z " fill="#E3C55A" transform="translate(234,324)"/>
<path d="M0 0 C3.37244652 3.99697365 6.71374722 8.27090179 9 13 C8.67 13.66 8.34 14.32 8 15 C7.34 14.67 6.68 14.34 6 14 C6 13.34 6 12.68 6 12 C5.01 12 4.02 12 3 12 C2.49166409 10.75336669 1.99368855 9.50250613 1.5 8.25 C1.2215625 7.55390625 0.943125 6.8578125 0.65625 6.140625 C0 4 0 4 0 0 Z " fill="#DED8A8" transform="translate(87,235)"/>
<path d="M0 0 C6.27 0.33 12.54 0.66 19 1 C19.33 1.99 19.66 2.98 20 4 C13.2142064 3.45136137 6.64990964 2.45732062 0 1 C0 0.67 0 0.34 0 0 Z " fill="#C3BB5F" transform="translate(264,102)"/>
<path d="M0 0 C3.53811723 2.54018673 5.02429615 3.81841206 6 8 C7.32467746 8.6837045 8.65863633 9.34964186 10 10 C11.25 12.125 11.25 12.125 12 14 C7.7273343 13.52525937 5.726198 11.15665032 3 8 C1.75 5.375 1.75 5.375 1 3 C0.67 2.01 0.34 1.02 0 0 Z " fill="#FDF4DB" transform="translate(99,296)"/>
<path d="M0 0 C4.45549507 1.36140127 6.25434405 3.30756614 9 7 C9.66 7.33 10.32 7.66 11 8 C11.6837045 9.32467746 12.34964186 10.65863633 13 12 C13.66 12.66 14.32 13.32 15 14 C12 14 12 14 10.3515625 12.42578125 C9.78179687 11.72839844 9.21203125 11.03101563 8.625 10.3125 C6.5175209 7.78889445 4.42458134 5.350556 2.0625 3.0625 C1.381875 2.381875 0.70125 1.70125 0 1 C0 0.67 0 0.34 0 0 Z " fill="#F8E7B9" transform="translate(88,283)"/>
<path d="M0 0 C0.99 0.33 1.98 0.66 3 1 C-1.455 7.93 -1.455 7.93 -6 15 C-6.33 13.68 -6.66 12.36 -7 11 C-6.34 11 -5.68 11 -5 11 C-5 9.68 -5 8.36 -5 7 C-3.625 5.5 -3.625 5.5 -2 4 C-0.82425289 1.90010348 -0.82425289 1.90010348 0 0 Z " fill="#345D2F" transform="translate(306,240)"/>
<path d="M0 0 C3.36179774 1.44077046 5.59156268 3.24750021 8 6 C8 6.66 8 7.32 8 8 C6.35 8.33 4.7 8.66 3 9 C2.731875 8.21625 2.46375 7.4325 2.1875 6.625 C1.15185568 3.71885077 1.15185568 3.71885077 -2 2 C-1.34 1.34 -0.68 0.68 0 0 Z " fill="#5E7D77" transform="translate(127,236)"/>
<path d="M0 0 C1.65322266 0.01740234 1.65322266 0.01740234 3.33984375 0.03515625 C4.44457031 0.04417969 5.54929687 0.05320312 6.6875 0.0625 C7.54214844 0.07410156 8.39679688 0.08570312 9.27734375 0.09765625 C9.27734375 0.42765625 9.27734375 0.75765625 9.27734375 1.09765625 C8.56449219 1.21882813 7.85164063 1.34 7.1171875 1.46484375 C2.81955286 2.21678521 -1.34578203 2.98644746 -5.53515625 4.22265625 C-8.75041085 5.10527516 -11.40684936 5.25940293 -14.72265625 5.09765625 C-14.72265625 4.76765625 -14.72265625 4.43765625 -14.72265625 4.09765625 C-13.94019531 3.89269531 -13.15773438 3.68773438 -12.3515625 3.4765625 C-11.33964844 3.20714844 -10.32773438 2.93773438 -9.28515625 2.66015625 C-8.27582031 2.39332031 -7.26648438 2.12648438 -6.2265625 1.8515625 C-0.08749557 0.00313829 -0.08749557 0.00313829 0 0 Z " fill="#FEF9E4" transform="translate(94.72265625,82.90234375)"/>
<path d="M0 0 C0.66 0.33 1.32 0.66 2 1 C1.67 2.98 1.34 4.96 1 7 C0.34 7 -0.32 7 -1 7 C-1 6.34 -1 5.68 -1 5 C-1.66 5 -2.32 5 -3 5 C-3.33 6.65 -3.66 8.3 -4 10 C-4.99 10 -5.98 10 -7 10 C-5.6062718 5.56541027 -3.39417765 3.12621626 0 0 Z " fill="#FCF4D0" transform="translate(333,251)"/>
<path d="M0 0 C-2.92324707 1.94883138 -4.51083018 2.48079727 -7.875 3.125 C-8.71804687 3.29257813 -9.56109375 3.46015625 -10.4296875 3.6328125 C-12.99151915 3.99878845 -15.41609989 4.06482904 -18 4 C-18 3.34 -18 2.68 -18 2 C-15.93827387 1.66191314 -13.8755797 1.32972639 -11.8125 1 C-10.66394531 0.814375 -9.51539062 0.62875 -8.33203125 0.4375 C-5.49584607 0.06510523 -2.85280436 -0.08596021 0 0 Z " fill="#E4DCAC" transform="translate(117,105)"/>
<path d="M0 0 C6.45054982 1.35253464 12.71105679 3.03060233 19 5 C19 5.33 19 5.66 19 6 C12.11168659 6.62621031 6.41097745 4.35806067 0 2 C0 1.34 0 0.68 0 0 Z " fill="#EED370" transform="translate(317,88)"/>
<path d="M0 0 C1.32 0.33 2.64 0.66 4 1 C0.7 4.3 -2.6 7.6 -6 11 C-6.33 9.68 -6.66 8.36 -7 7 C-6.38125 6.9175 -5.7625 6.835 -5.125 6.75 C-2.83911206 6.19416524 -2.83911206 6.19416524 -1.8125 4.0625 C-1.544375 3.381875 -1.27625 2.70125 -1 2 C-0.67 1.34 -0.34 0.68 0 0 Z " fill="#F1C863" transform="translate(284,309)"/>
<path d="M0 0 C2 0 2 0 3.54296875 1.35546875 C8.02759952 6.35141134 8.02759952 6.35141134 7.875 9.9375 C7.58625 10.618125 7.2975 11.29875 7 12 C6.34 12 5.68 12 5 12 C5 11.34 5 10.68 5 10 C4.34 10 3.68 10 3 10 C2.67 8.68 2.34 7.36 2 6 C2.99 6.33 3.98 6.66 5 7 C4.175 6.21625 3.35 5.4325 2.5 4.625 C0 2 0 2 0 0 Z " fill="#EDE1AE" transform="translate(119,282)"/>
<path d="M0 0 C2.875 1.125 2.875 1.125 6 3 C7.25 6.125 7.25 6.125 8 9 C8.66 9.33 9.32 9.66 10 10 C9.67 10.66 9.34 11.32 9 12 C7.33333333 10.33333333 5.66666667 8.66666667 4 7 C3.236875 6.29875 2.47375 5.5975 1.6875 4.875 C0 3 0 3 0 0 Z " fill="#647C63" transform="translate(121,281)"/>
<path d="M0 0 C1 2 1 2 1 6 C-2.31395777 7.12975833 -5.59702663 8.17884773 -9 9 C-8.06725891 7.87105124 -7.12859878 6.74699124 -6.1875 5.625 C-5.66542969 4.99851562 -5.14335937 4.37203125 -4.60546875 3.7265625 C-3 2 -3 2 0 0 Z " fill="#30665E" transform="translate(253,255)"/>
<path d="M0 0 C0.99 0 1.98 0 3 0 C1.8512638 3.44620861 0.92418358 4.09169196 -1.9375 6.1875 C-2.64777344 6.71730469 -3.35804688 7.24710938 -4.08984375 7.79296875 C-6 9 -6 9 -8 9 C-8.33 8.01 -8.66 7.02 -9 6 C-6.0173094 4.47551369 -3.181798 3.06059933 0 2 C0 1.34 0 0.68 0 0 Z " fill="#2A645B" transform="translate(237,211)"/>
<path d="M0 0 C0.33 0 0.66 0 1 0 C1.33 2.64 1.66 5.28 2 8 C1.360625 8.28875 0.72125 8.5775 0.0625 8.875 C-2.15206079 9.82823451 -2.15206079 9.82823451 -3 12 C-3.66 12 -4.32 12 -5 12 C-3.68938409 7.76570244 -2.05643741 3.92592596 0 0 Z " fill="#2C635B" transform="translate(300,190)"/>
<path d="M0 0 C7.30645606 1.05084393 14.06392339 2.45677191 21 5 C21 5.33 21 5.66 21 6 C19.41590006 5.88512252 17.83271037 5.75765492 16.25 5.625 C15.36828125 5.55539063 14.4865625 5.48578125 13.578125 5.4140625 C10.98087314 4.99692811 9.30716497 4.21031605 7 3 C4.67504723 2.61250787 2.34148732 2.27017161 0 2 C0 1.34 0 0.68 0 0 Z " fill="#335D2F" transform="translate(320,115)"/>
<path d="M0 0 C4.52671196 0.53255435 7.4200555 2.21559872 11 5 C12.375 7.25 12.375 7.25 13 9 C7.97290493 7.42903279 3.97133531 4.38006951 0 1 C0 0.67 0 0.34 0 0 Z " fill="#F6E7B9" transform="translate(163,355)"/>
<path d="M0 0 C0.6875 1.6875 0.6875 1.6875 1 4 C-1.26153846 8.63076923 -1.26153846 8.63076923 -4 10 C-4.99 9.34 -5.98 8.68 -7 8 C-5.625 6 -5.625 6 -4 4 C-3.34 4 -2.68 4 -2 4 C-1.34 2.68 -0.68 1.36 0 0 Z " fill="#F5C953" transform="translate(278,285)"/>
<path d="M0 0 C0.99 0.33 1.98 0.66 3 1 C-0.63 4.3 -4.26 7.6 -8 11 C-8.33 10.01 -8.66 9.02 -9 8 C-8.34 8 -7.68 8 -7 8 C-6.773125 7.4225 -6.54625 6.845 -6.3125 6.25 C-4.63315609 3.37112473 -2.77209171 1.82552381 0 0 Z " fill="#D7EEEC" transform="translate(237,267)"/>
<path d="M0 0 C1.17755859 -0.02126953 1.17755859 -0.02126953 2.37890625 -0.04296875 C4.4375 0.1875 4.4375 0.1875 6.4375 2.1875 C0.4975 2.5175 -5.4425 2.8475 -11.5625 3.1875 C-7.41180775 1.11215388 -4.56768067 0.03762505 0 0 Z " fill="#DED7A9" transform="translate(179.5625,94.8125)"/>
<path d="M0 0 C0.66 1.32 1.32 2.64 2 4 C0.25 6 0.25 6 -2 8 C-3.32 8 -4.64 8 -6 8 C-4.55746343 4.63408134 -2.66735273 2.48952921 0 0 Z " fill="#246357" transform="translate(265,242)"/>
<path d="M0 0 C0.33 0 0.66 0 1 0 C1.82200425 6.24723226 -1.07448606 10.71317837 -4 16 C-4.66 16 -5.32 16 -6 16 C-4.27933894 10.55123997 -2.15294651 5.28830549 0 0 Z " fill="#FEF6D4" transform="translate(352,208)"/>
<path d="M0 0 C0.66 0 1.32 0 2 0 C2 4.62 2 9.24 2 14 C1.01 14.33 0.02 14.66 -1 15 C-2.19126781 11.42619658 -1.7349445 9.49116698 -1.0625 5.8125 C-0.86785156 4.72582031 -0.67320312 3.63914063 -0.47265625 2.51953125 C-0.31667969 1.68808594 -0.16070312 0.85664063 0 0 Z " fill="#F2CA52" transform="translate(341,154)"/>
<path d="M0 0 C2.10546875 0.4296875 2.10546875 0.4296875 4 1 C3.04882866 2.1725131 2.08882991 3.33787015 1.125 4.5 C0.59132812 5.1496875 0.05765625 5.799375 -0.4921875 6.46875 C-0.98976562 6.9740625 -1.48734375 7.479375 -2 8 C-2.66 8 -3.32 8 -4 8 C-3.63287028 5.28324005 -3.27255401 3.38936287 -1.6875 1.125 C-1.130625 0.75375 -0.57375 0.3825 0 0 Z " fill="#F5CF6E" transform="translate(255,336)"/>
<path d="M0 0 C1.67987227 1.31665664 3.34466005 2.65263027 5 4 C5.61875 4.474375 6.2375 4.94875 6.875 5.4375 C8 7 8 7 7.6875 9.6875 C7.460625 10.450625 7.23375 11.21375 7 12 C5.49440461 10.03617993 4.10868317 8.21736634 3 6 C2.01 5.34 1.02 4.68 0 4 C0 2.68 0 1.36 0 0 Z " fill="#30645E" transform="translate(265,159)"/>
<path d="M0 0 C0.99 0.33 1.98 0.66 3 1 C3 5.29 3 9.58 3 14 C2.34 13.67 1.68 13.34 1 13 C-0.29930238 8.71230214 -0.07516774 4.43489655 0 0 Z " fill="#50715E" transform="translate(57,136)"/>
<path d="M0 0 C9.41002278 -0.3690205 9.41002278 -0.3690205 14 2 C14 2.66 14 3.32 14 4 C9.03083364 3.48594831 4.70973649 2.76615118 0 1 C0 0.67 0 0.34 0 0 Z " fill="#FCF2C6" transform="translate(332,92)"/>
<path d="M0 0 C2.31 0 4.62 0 7 0 C6.01 0.495 6.01 0.495 5 1 C5 1.66 5 2.32 5 3 C2.69 4.32 0.38 5.64 -2 7 C-2 6.01 -2 5.02 -2 4 C-1.34 4 -0.68 4 0 4 C0 2.68 0 1.36 0 0 Z " fill="#F3C961" transform="translate(227,356)"/>
<path d="M0 0 C0.33 0 0.66 0 1 0 C1.37010337 3.3309303 1.27461204 4.62731223 -0.75 7.375 C-1.4925 7.91125 -2.235 8.4475 -3 9 C-5.140625 8.6015625 -5.140625 8.6015625 -7 8 C-5.85760183 6.66372225 -4.71098945 5.33104612 -3.5625 4 C-2.92441406 3.2575 -2.28632813 2.515 -1.62890625 1.75 C-1.09136719 1.1725 -0.55382812 0.595 0 0 Z " fill="#306A61" transform="translate(275,230)"/>
<path d="M0 0 C0.66 0.99 1.32 1.98 2 3 C1.01 4.485 1.01 4.485 0 6 C-0.66 6 -1.32 6 -2 6 C-2.66 7.65 -3.32 9.3 -4 11 C-4.99 10.67 -5.98 10.34 -7 10 C-3.535 5.05 -3.535 5.05 0 0 Z " fill="#D1EBE8" transform="translate(265,183)"/>
<path d="M0 0 C0 0.66 0 1.32 0 2 C-1.41396902 2.50757862 -2.83131729 3.00574925 -4.25 3.5 C-5.43335937 3.91765625 -5.43335937 3.91765625 -6.640625 4.34375 C-9 5 -9 5 -13 5 C-13 4.34 -13 3.68 -13 3 C-8.76915382 1.13345022 -4.65260883 0 0 0 Z " fill="#58725B" transform="translate(80,115)"/>
<path d="M0 0 C10.97592998 -0.63019694 10.97592998 -0.63019694 15.25 2 C15.8275 2.66 16.405 3.32 17 4 C11.27601207 3.25339288 5.65146223 2.17122859 0 1 C0 0.67 0 0.34 0 0 Z " fill="#C4BB60" transform="translate(285,106)"/>
<path d="M0 0 C0.33 1.32 0.66 2.64 1 4 C0.34 4 -0.32 4 -1 4 C-1.33 4.99 -1.66 5.98 -2 7 C-4.9375 8.75 -4.9375 8.75 -8 10 C-8.66 9.67 -9.32 9.34 -10 9 C-5.25 5 -5.25 5 -3 5 C-2.690625 4.360625 -2.38125 3.72125 -2.0625 3.0625 C-1 1 -1 1 0 0 Z " fill="#D8C764" transform="translate(261,301)"/>
<path d="M0 0 C1.43114103 2.86228205 2.40726882 4.99640328 3.1875 8 C3.36667969 8.66 3.54585937 9.32 3.73046875 10 C4.03576811 12.26540976 3.68136613 13.835092 3 16 C2 15 2 15 1.9375 12.4375 C1.958125 11.633125 1.97875 10.82875 2 10 C1.34 10 0.68 10 0 10 C0 6.7 0 3.4 0 0 Z " fill="#FEF6DE" transform="translate(36,172)"/>
<path d="M0 0 C0.33 0 0.66 0 1 0 C3.1583195 6.07027358 3.20852314 11.59370576 3 18 C2.67 18 2.34 18 2 18 C0.59545452 11.88019467 -0.23268915 6.28260706 0 0 Z " fill="#FAEBC5" transform="translate(32,147)"/>
<path d="M0 0 C0.66 0.33 1.32 0.66 2 1 C-0.32446864 4.68040867 -2.07965475 6.2994906 -6.25 7.3125 C-7.4875 7.539375 -8.725 7.76625 -10 8 C-6.97727468 4.74475735 -3.74281699 2.38179263 0 0 Z " fill="#CCBD5F" transform="translate(225,331)"/>
<path d="M0 0 C0.66 0.66 1.32 1.32 2 2 C1.96712417 4.72869407 1.43602229 7.2966618 1 10 C-0.65 9.67 -2.3 9.34 -4 9 C-3.34 8.67 -2.68 8.34 -2 8 C-1.61866701 6.0085944 -1.28674418 4.00720923 -1 2 C-0.67 1.34 -0.34 0.68 0 0 Z " fill="#5F807A" transform="translate(181,275)"/>
<path d="M0 0 C0.33 0 0.66 0 1 0 C1.05399736 1.45792884 1.09279177 2.91642712 1.125 4.375 C1.14820313 5.18710938 1.17140625 5.99921875 1.1953125 6.8359375 C1 9 1 9 -1 11 C-2.1875 8.875 -2.1875 8.875 -3 6 C-1.625 2.6875 -1.625 2.6875 0 0 Z " fill="#5C857E" transform="translate(198,232)"/>
<path d="M0 0 C0.66 0.33 1.32 0.66 2 1 C0.68 5.29 -0.64 9.58 -2 14 C-2.66 12.68 -3.32 11.36 -4 10 C-3.34 9.67 -2.68 9.34 -2 9 C-1.61936779 6.6739143 -1.28730055 4.33944736 -1 2 C-0.67 1.34 -0.34 0.68 0 0 Z " fill="#F5CE77" transform="translate(353,200)"/>
<path d="M0 0 C0 0.66 0 1.32 0 2 C-3.50331713 5.40027839 -6.15833214 6.54961229 -11 7 C-4.36842105 0 -4.36842105 0 0 0 Z " fill="#FCF0BF" transform="translate(216,370)"/>
<path d="M0 0 C0.66 0.33 1.32 0.66 2 1 C0.02 3.97 -1.96 6.94 -4 10 C-5 6 -5 6 -4.0625 3.75 C-3.711875 3.1725 -3.36125 2.595 -3 2 C-2.01 2 -1.02 2 0 2 C0 1.34 0 0.68 0 0 Z " fill="#205C52" transform="translate(263,183)"/>
<path d="M0 0 C0.33 0 0.66 0 1 0 C0.40984815 5.50808397 -0.56663769 10.64878069 -2 16 C-2.33 16 -2.66 16 -3 16 C-3.37952295 9.80112515 -2.8352113 5.5522888 0 0 Z " fill="#EFCB64" transform="translate(364,160)"/>
<path d="M0 0 C1.32 0.33 2.64 0.66 4 1 C3.67 1.33 3.34 1.66 3 2 C2.76807135 3.51469448 2.58784762 5.03754562 2.4375 6.5625 C2.35371094 7.38878906 2.26992188 8.21507812 2.18359375 9.06640625 C2.12300781 9.70449219 2.06242187 10.34257812 2 11 C1.34 11 0.68 11 0 11 C0 7.37 0 3.74 0 0 Z " fill="#536E57" transform="translate(56,121)"/>
<path d="M0 0 C0 3.96 0 7.92 0 12 C-0.33 10.68 -0.66 9.36 -1 8 C-1.66 8 -2.32 8 -3 8 C-3 5.69 -3 3.38 -3 1 C-1 0 -1 0 0 0 Z " fill="#F5E6B0" transform="translate(55,120)"/>
<path d="M0 0 C2.91517292 1.07401108 4.77810176 1.77810176 7 4 C9.58354218 4.16687448 9.58354218 4.16687448 12 4 C12 4.66 12 5.32 12 6 C10.35 6.66 8.7 7.32 7 8 C6.401875 7.236875 5.80375 6.47375 5.1875 5.6875 C3.53040668 3.6516425 1.89702326 1.8021721 0 0 Z " fill="#667E64" transform="translate(131,294)"/>
<path d="M0 0 C0.66 0.33 1.32 0.66 2 1 C0.69088122 2.50295185 -0.62238392 4.00229311 -1.9375 5.5 C-2.66839844 6.3353125 -3.39929688 7.170625 -4.15234375 8.03125 C-4.76207031 8.6809375 -5.37179687 9.330625 -6 10 C-6.33 10 -6.66 10 -7 10 C-7 8.35 -7 6.7 -7 5 C-6.01 5.33 -5.02 5.66 -4 6 C-3.71125 5.38125 -3.4225 4.7625 -3.125 4.125 C-2 2 -2 2 0 0 Z " fill="#275831" transform="translate(280,278)"/>
<path d="M0 0 C1.16959987 0.97566112 2.33561177 1.955625 3.5 2.9375 C4.1496875 3.48277344 4.799375 4.02804687 5.46875 4.58984375 C5.9740625 5.05519531 6.479375 5.52054687 7 6 C7 6.33 7 6.66 7 7 C5.02 7 3.04 7 1 7 C0.67 4.69 0.34 2.38 0 0 Z " fill="#5F7F78" transform="translate(144,253)"/>
<path d="M0 0 C2.34914492 2.34914492 2.73140357 3.95679446 3.625 7.125 C3.88539063 8.03507812 4.14578125 8.94515625 4.4140625 9.8828125 C4.70410156 10.93082031 4.70410156 10.93082031 5 12 C2.5 9.9375 2.5 9.9375 0 7 C-0.3125 3.1875 -0.3125 3.1875 0 0 Z " fill="#2E675E" transform="translate(207,249)"/>
<path d="M0 0 C0.66 0.33 1.32 0.66 2 1 C0.60667426 4.36720387 -0.9789286 5.9859524 -4 8 C-4.33 7.01 -4.66 6.02 -5 5 C-3.35 3.35 -1.7 1.7 0 0 Z " fill="#D2E8E7" transform="translate(257,247)"/>
<path d="M0 0 C0.66 0 1.32 0 2 0 C4.02055843 4.39251833 5.40895235 8.15340923 6 13 C5.01 13.495 5.01 13.495 4 14 C3.32968281 12.0429132 2.66385317 10.08428887 2 8.125 C1.62875 7.03445312 1.2575 5.94390625 0.875 4.8203125 C0 2 0 2 0 0 Z " fill="#5F7860" transform="translate(66,184)"/>
<path d="M0 0 C0.99 0 1.98 0 3 0 C2.21681311 3.91593446 0.60820142 7.36406635 -1 11 C-1.33 11 -1.66 11 -2 11 C-1 3.57142857 -1 3.57142857 0 0 Z " fill="#D9F4F2" transform="translate(226,173)"/>
<path d="M0 0 C3 1 3 1 3.984375 2.70703125 C4.23703125 3.40183594 4.4896875 4.09664062 4.75 4.8125 C5.01296875 5.49957031 5.2759375 6.18664062 5.546875 6.89453125 C6.06056958 9.28143969 5.76282269 10.70637773 5 13 C4.16209211 11.21046815 3.32980604 9.41830305 2.5 7.625 C1.80390625 6.12839844 1.80390625 6.12839844 1.09375 4.6015625 C0 2 0 2 0 0 Z " fill="#577771" transform="translate(127,168)"/>
<path d="M0 0 C1.21816406 0.03480469 1.21816406 0.03480469 2.4609375 0.0703125 C3.68683594 0.09738281 3.68683594 0.09738281 4.9375 0.125 C5.87722656 0.15980469 5.87722656 0.15980469 6.8359375 0.1953125 C6.8359375 0.5253125 6.8359375 0.8553125 6.8359375 1.1953125 C5.258125 1.35 5.258125 1.35 3.6484375 1.5078125 C-0.10507297 1.94794562 -0.10507297 1.94794562 -2.7265625 3.7578125 C-5.71943854 5.52284196 -7.74800952 5.43364178 -11.1640625 5.1953125 C-11.1640625 4.8653125 -11.1640625 4.5353125 -11.1640625 4.1953125 C-10.0503125 3.9065625 -8.9365625 3.6178125 -7.7890625 3.3203125 C-4.60910357 2.33342869 -3.07274306 0.27732338 0 0 Z " fill="#FEF8E4" transform="translate(59.1640625,91.8046875)"/>
<path d="M0 0 C2.475 0.99 2.475 0.99 5 2 C4.67 4.31 4.34 6.62 4 9 C1.49701566 6.06171403 0.53069061 3.82097239 0 0 Z " fill="#58735E" transform="translate(80,218)"/>
<path d="M0 0 C0.33 0 0.66 0 1 0 C1.33 3.3 1.66 6.6 2 10 C1.01 10.495 1.01 10.495 0 11 C-2 8 -2 8 -1.6875 4.9375 C-1 2 -1 2 0 0 Z " fill="#346960" transform="translate(221,191)"/>
<path d="M0 0 C1.32 0.33 2.64 0.66 4 1 C4 2.98 4 4.96 4 7 C2.02 6.01 0.04 5.02 -2 4 C-1.34 2.68 -0.68 1.36 0 0 Z " fill="#537871" transform="translate(130,162)"/>
<path d="M0 0 C-3.42094242 2.28062828 -4.68187222 2.21925007 -8.6875 2.125 C-10.17830078 2.09792969 -10.17830078 2.09792969 -11.69921875 2.0703125 C-12.45847656 2.04710938 -13.21773438 2.02390625 -14 2 C-9.67824205 -0.88117196 -4.98826624 -1.79577585 0 0 Z " fill="#758669" transform="translate(88,114)"/>
<path d="M0 0 C1.98 0 3.96 0 6 0 C6.33 0.66 6.66 1.32 7 2 C4.03 2.66 1.06 3.32 -2 4 C-1.34 2.68 -0.68 1.36 0 0 Z " fill="#ECE2AF" transform="translate(90,108)"/>
<path d="M0 0 C0.144375 0.598125 0.28875 1.19625 0.4375 1.8125 C0.8872439 3.56150404 1.42892341 5.28677023 2 7 C2.66 7.33 3.32 7.66 4 8 C0.31245243 7.50168276 -1.60490662 6.89932357 -4 4 C-3.34 4 -2.68 4 -2 4 C-1.34 2.68 -0.68 1.36 0 0 Z " fill="#5F7B62" transform="translate(197,340)"/>
<path d="M0 0 C0.33 0 0.66 0 1 0 C1.33 1.98 1.66 3.96 2 6 C0 6 -2 6 -4 6 C-2.84826645 3.53199953 -1.95216435 1.95216435 0 0 Z " fill="#E7C758" transform="translate(250,311)"/>
<path d="M0 0 C0.66 0 1.32 0 2 0 C2.33 0.99 2.66 1.98 3 3 C1.02 3.99 1.02 3.99 -1 5 C-0.67 3.35 -0.34 1.7 0 0 Z M-4 5 C-3.01 5.33 -2.02 5.66 -1 6 C-1.99 7.485 -1.99 7.485 -3 9 C-3.66 9 -4.32 9 -5 9 C-4.67 7.68 -4.34 6.36 -4 5 Z " fill="#FDFDEF" transform="translate(330,256)"/>
<path d="M0 0 C0 0.99 0 1.98 0 3 C-1.53125 4.38671875 -1.53125 4.38671875 -3.5 5.6875 C-4.47453125 6.34298828 -4.47453125 6.34298828 -5.46875 7.01171875 C-5.9740625 7.33785156 -6.479375 7.66398437 -7 8 C-6.21275747 4.13683048 -4.4911131 0 0 0 Z " fill="#E7F8F8" transform="translate(253,253)"/>
<path d="M0 0 C0.66 1.32 1.32 2.64 2 4 C0.67172689 6.85578718 -0.14643942 8.57321971 -3 10 C-2.01 6.7 -1.02 3.4 0 0 Z " fill="#316962" transform="translate(304,180)"/>
<path d="M0 0 C-5.75 4 -5.75 4 -8 4 C-8 2.68 -8 1.36 -8 0 C-4.94736336 -0.98120464 -3.05263664 -0.98120464 0 0 Z " fill="#2D5C31" transform="translate(212,341)"/>
<path d="M0 0 C2.375 -0.1875 2.375 -0.1875 5 0 C5.66 0.99 6.32 1.98 7 3 C6.67 3.66 6.34 4.32 6 5 C3.5625 4.1875 3.5625 4.1875 1 3 C0.67 2.01 0.34 1.02 0 0 Z " fill="#6A8267" transform="translate(168,326)"/>
<path d="M0 0 C2.3129482 2.3129482 2.49580975 3.47904875 3.125 6.625 C3.29257813 7.44226563 3.46015625 8.25953125 3.6328125 9.1015625 C3.81457031 10.04128906 3.81457031 10.04128906 4 11 C3.34 11 2.68 11 2 11 C0.19769832 7.17010894 -0.19622241 4.21878192 0 0 Z " fill="#D6D5A8" transform="translate(66,186)"/>
<path d="M0 0 C2.3125 -0.3125 2.3125 -0.3125 5 0 C6.8125 2.5 6.8125 2.5 8 5 C4.75791433 4.64950425 3.38472296 4.43778819 1.1875 1.9375 C0.795625 1.298125 0.40375 0.65875 0 0 Z " fill="#5F7A60" transform="translate(160,320)"/>
<path d="M0 0 C0 3 0 3 -1.875 5.1875 C-4 7 -4 7 -6 7 C-6.33 7.66 -6.66 8.32 -7 9 C-6.82374165 6.62051228 -6.30280227 5.29774151 -4.59765625 3.62109375 C-3.09350908 2.37884514 -1.54870149 1.18623944 0 0 Z " fill="#F3CB75" transform="translate(295,300)"/>
<path d="M0 0 C2.64 0 5.28 0 8 0 C6.35 1.98 4.7 3.96 3 6 C1 3 1 3 0 0 Z " fill="#2A5C35" transform="translate(256,298)"/>
<path d="M0 0 C0.66 0.99 1.32 1.98 2 3 C1.67 3.66 1.34 4.32 1 5 C1 6.32 1 7.64 1 9 C-0.32 9.33 -1.64 9.66 -3 10 C-2.01 6.7 -1.02 3.4 0 0 Z " fill="#66847E" transform="translate(187,259)"/>
<path d="M0 0 C0.93423645 3.01031744 1.04449911 3.86650268 0 7 C0.66 7 1.32 7 2 7 C1.67 8.32 1.34 9.64 1 11 C1 10.34 1 9.68 1 9 C0.34 9 -0.32 9 -1 9 C-1.33 9.66 -1.66 10.32 -2 11 C-1.125 3.375 -1.125 3.375 0 0 Z " fill="#357066" transform="translate(309,163)"/>
<path d="M0 0 C4.41889613 1.35021826 6.34345343 3.26115668 9 7 C5.56072421 5.7580393 2.74792181 4.44259716 0 2 C0 1.34 0 0.68 0 0 Z " fill="#E6E2B2" transform="translate(160,322)"/>
<path d="M0 0 C2.78211944 0.37596209 4.5879284 0.67318459 6.8125 2.4375 C8 4 8 4 8 6 C4.63408134 4.55746343 2.48952921 2.66735273 0 0 Z " fill="#E0EEED" transform="translate(167,274)"/>
<path d="M0 0 C0.66 0.33 1.32 0.66 2 1 C0.02 3.31 -1.96 5.62 -4 8 C-4.66 7.34 -5.32 6.68 -6 6 C-4 4 -2 2 0 0 Z " fill="#E4F9F7" transform="translate(273,230)"/>
<path d="M0 0 C0.99 0.33 1.98 0.66 3 1 C1.77263971 5.15414253 0.672336 7.43688534 -2 11 C-1.34 7.37 -0.68 3.74 0 0 Z " fill="#EFCD70" transform="translate(347,213)"/>
<path d="M0 0 C0.33 0 0.66 0 1 0 C1 2.31 1 4.62 1 7 C0.01 7.33 -0.98 7.66 -2 8 C-2 9.32 -2 10.64 -2 12 C-2.66 12 -3.32 12 -4 12 C-2.66666667 8 -1.33333333 4 0 0 Z " fill="#FEFCE0" transform="translate(357,196)"/>
<path d="M0 0 C2.12508244 3.18762365 2.5020163 5.26512223 3 9 C2.01 9.495 2.01 9.495 1 10 C-0.83691257 6.21812119 -1.15837626 4.05431692 0 0 Z " fill="#67837E" transform="translate(92,173)"/>
<path d="M0 0 C0.33 0.66 0.66 1.32 1 2 C-1.40436026 5.60654039 -2.94679607 5.85452932 -7 7 C-5.625 5 -5.625 5 -4 3 C-3.34 3 -2.68 3 -2 3 C-2 2.34 -2 1.68 -2 1 C-1.34 0.67 -0.68 0.34 0 0 Z " fill="#FEF0C7" transform="translate(250,344)"/>
<path d="M0 0 C2.64 1.98 5.28 3.96 8 6 C6.68 6.33 5.36 6.66 4 7 C0 2.25 0 2.25 0 0 Z " fill="#D8D5A7" transform="translate(144,307)"/>
<path d="M0 0 C0.99 0 1.98 0 3 0 C1.60667426 3.36720387 0.0210714 4.9859524 -3 7 C-2.38722388 4.03824877 -1.74627478 2.61941217 0 0 Z " fill="#345D2E" transform="translate(269,289)"/>
<path d="M0 0 C0.66 0 1.32 0 2 0 C2 0.66 2 1.32 2 2 C2.66 2 3.32 2 4 2 C4.66 3.98 5.32 5.96 6 8 C1.2 4.55384615 1.2 4.55384615 0.1875 1.75 C0.125625 1.1725 0.06375 0.595 0 0 Z " fill="#F9E9BE" transform="translate(69,254)"/>
<path d="M0 0 C1.33332095 2.6666419 0.67102033 4.16680303 0 7 C-0.66 7 -1.32 7 -2 7 C-2 7.66 -2 8.32 -2 9 C-2.66 9 -3.32 9 -4 9 C-2.94124926 5.59687262 -1.99097846 2.98646769 0 0 Z " fill="#FAECB7" transform="translate(340,235)"/>
<path d="M0 0 C0.99 0.33 1.98 0.66 3 1 C-0.465 3.97 -0.465 3.97 -4 7 C-4.33 6.34 -4.66 5.68 -5 5 C-4.34 5 -3.68 5 -3 5 C-2.5359375 4.0409375 -2.5359375 4.0409375 -2.0625 3.0625 C-1 1 -1 1 0 0 Z " fill="#D8EFED" transform="translate(265,239)"/>
<path d="M0 0 C0.6875 1.75 0.6875 1.75 1 4 C-0.3125 6.25 -0.3125 6.25 -2 8 C-2.66 8 -3.32 8 -4 8 C-3.67 6.02 -3.34 4.04 -3 2 C-2.01 2.33 -1.02 2.66 0 3 C0 2.01 0 1.02 0 0 Z " fill="#587B75" transform="translate(175,204)"/>
<path d="M0 0 C1.5625 1.1875 1.5625 1.1875 3 3 C2.6875 5.6875 2.6875 5.6875 2 8 C1.34 8 0.68 8 0 8 C-1.125 2.25 -1.125 2.25 0 0 Z " fill="#1D6359" transform="translate(225,182)"/>
<path d="M0 0 C-0.99 1.485 -0.99 1.485 -2 3 C-4.31 2.67 -6.62 2.34 -9 2 C-5.5647952 -0.29013653 -4.014669 -0.17842973 0 0 Z " fill="#687F66" transform="translate(66,119)"/>
<path d="M0 0 C7.50769231 -0.36923077 7.50769231 -0.36923077 10 1.5 C10.495 2.2425 10.495 2.2425 11 3 C6.94393835 2.53199289 3.53411321 2.12046792 0 0 Z " fill="#C9BB5B" transform="translate(316,113)"/>
<path d="M0 0 C2.00720923 0.28674418 4.0085944 0.61866701 6 1 C4.6875 2.5 4.6875 2.5 3 4 C2.01 4 1.02 4 0 4 C-0.33 3.01 -0.66 2.02 -1 1 C-0.67 0.67 -0.34 0.34 0 0 Z " fill="#537665" transform="translate(88,112)"/>
<path d="M0 0 C2.97 0 5.94 0 9 0 C9.33 0.99 9.66 1.98 10 3 C6.08393425 2.46599103 3.60661066 1.80330533 0 0 Z " fill="#FDF5CD" transform="translate(322,89)"/>
<path d="M0 0 C2.64752004 2.57784846 4.94432065 4.91648098 7 8 C4.13792848 6.71700242 1.9754912 5.469364 0 3 C0 2.01 0 1.02 0 0 Z " fill="#FDF6DB" transform="translate(92,288)"/>
<path d="M0 0 C-0.33 1.98 -0.66 3.96 -1 6 C-1.66 6 -2.32 6 -3 6 C-3 5.01 -3 4.02 -3 3 C-3.66 3 -4.32 3 -5 3 C-5 2.34 -5 1.68 -5 1 C-2 0 -2 0 0 0 Z " fill="#4E715F" transform="translate(134,288)"/>
<path d="M0 0 C0.33 0 0.66 0 1 0 C1.41176754 3.60296594 1.1535853 4.78402067 -1 7.8125 C-1.66 8.534375 -2.32 9.25625 -3 10 C-2.25 3.375 -2.25 3.375 0 0 Z " fill="#DCC459" transform="translate(294,262)"/>
<path d="M0 0 C0.66 0 1.32 0 2 0 C2 0.99 2 1.98 2 3 C2.99 3.33 3.98 3.66 5 4 C5.33 5.65 5.66 7.3 6 9 C0.42857143 3.85714286 0.42857143 3.85714286 0 0 Z " fill="#F6E3B4" transform="translate(79,268)"/>
<path d="M0 0 C3 1 3 1 4 3 C4.039992 4.99960012 4.04346799 7.00047242 4 9 C1.49701566 6.06171403 0.53069061 3.82097239 0 0 Z " fill="#D0EBEA" transform="translate(204,240)"/>
<path d="M0 0 C0.99 0.99 1.98 1.98 3 3 C2.34 4.98 1.68 6.96 1 9 C0.67 9 0.34 9 0 9 C0 6.03 0 3.06 0 0 Z " fill="#5A7974" transform="translate(106,205)"/>
<path d="M0 0 C4.51617599 -0.07654536 8.59085217 -0.10228696 13 1 C13 1.33 13 1.66 13 2 C10.69 2.33 8.38 2.66 6 3 C6 2.34 6 1.68 6 1 C4.02 1 2.04 1 0 1 C0 0.67 0 0.34 0 0 Z " fill="#64816C" transform="translate(146,100)"/>
</svg>
