<?xml version="1.0" encoding="UTF-8"?>
<svg version="1.1" xmlns="http://www.w3.org/2000/svg" width="225" height="225">
<path d="M0 0 C74.25 0 148.5 0 225 0 C225 74.25 225 148.5 225 225 C150.75 225 76.5 225 0 225 C0 150.75 0 76.5 0 0 Z " fill="#5D635B" transform="translate(0,0)"/>
<path d="M0 0 C74.25 0 148.5 0 225 0 C225 30.69 225 61.38 225 93 C150.75 93 76.5 93 0 93 C0 62.31 0 31.62 0 0 Z " fill="#817F7B" transform="translate(0,132)"/>
<path d="M0 0 C74.25 0 148.5 0 225 0 C225 19.47 225 38.94 225 59 C150.75 59 76.5 59 0 59 C0 39.53 0 20.06 0 0 Z " fill="#545C52" transform="translate(0,73)"/>
<path d="M0 0 C74.25 0 148.5 0 225 0 C225 10.56 225 21.12 225 32 C150.75 32 76.5 32 0 32 C0 21.44 0 10.88 0 0 Z " fill="#6D6E64" transform="translate(0,132)"/>
<path d="M0 0 C74.25 0 148.5 0 225 0 C225 7.92 225 15.84 225 24 C150.75 24 76.5 24 0 24 C0 16.08 0 8.16 0 0 Z " fill="#61665C" transform="translate(0,108)"/>
<path d="M0 0 C42.9 0 85.8 0 130 0 C130 0.33 130 0.66 130 1 C177.025 1.495 177.025 1.495 225 2 C225 5.63 225 9.26 225 13 C189.80929479 13.96243555 154.63025645 14.15850086 119.42908037 14.12856841 C114.47981293 14.12480014 109.53056553 14.12615903 104.58129883 14.13037109 C69.71017653 14.15935616 34.86122089 13.92804325 0 13 C0 8.71 0 4.42 0 0 Z " fill="#535852" transform="translate(0,21)"/>
<path d="M0 0 C74.25 0 148.5 0 225 0 C225 3.96 225 7.92 225 12 C150.75 12 76.5 12 0 12 C0 8.04 0 4.08 0 0 Z " fill="#77756A" transform="translate(0,152)"/>
<path d="M0 0 C74.25 0 148.5 0 225 0 C225 2.97 225 5.94 225 9 C150.75 9 76.5 9 0 9 C0 6.03 0 3.06 0 0 Z " fill="#858479" transform="translate(0,34)"/>
<path d="M0 0 C74.25 0 148.5 0 225 0 C225 2.31 225 4.62 225 7 C190.45309043 7.83328461 155.92379615 8.16122871 121.3671875 8.13037109 C114.92288433 8.12468067 108.47862258 8.12805861 102.03432083 8.13382339 C68.01182993 8.15937892 34.01349407 7.7826622 0 7 C0 4.69 0 2.38 0 0 Z " fill="#666B62" transform="translate(0,43)"/>
<path d="M0 0 C74.25 0 148.5 0 225 0 C225 2.31 225 4.62 225 7 C150.75 7 76.5 7 0 7 C0 4.69 0 2.38 0 0 Z " fill="#525952" transform="translate(0,73)"/>
<path d="M0 0 C74.25 0 148.5 0 225 0 C225 2.31 225 4.62 225 7 C150.75 7 76.5 7 0 7 C0 4.69 0 2.38 0 0 Z " fill="#5D655B" transform="translate(0,66)"/>
<path d="M0 0 C74.25 0 148.5 0 225 0 C225 1.98 225 3.96 225 6 C150.75 6 76.5 6 0 6 C0 4.02 0 2.04 0 0 Z " fill="#3D4841" transform="translate(0,0)"/>
<path d="M0 0 C74.25 0 148.5 0 225 0 C225 1.65 225 3.3 225 5 C207.56269827 5.20728279 190.12521149 5.39315095 172.6875 5.5625 C171.37757835 5.57523327 170.06765671 5.58796654 168.71804047 5.60108566 C127.84709364 5.99233204 86.99671737 6.00736732 46.125 5.5625 C44.9465237 5.54968616 43.76804741 5.53687233 42.55385971 5.5236702 C28.36899178 5.36776975 14.18439731 5.19397931 0 5 C0 3.35 0 1.7 0 0 Z " fill="#4C524B" transform="translate(0,61)"/>
<path d="M0 0 C74.25 0 148.5 0 225 0 C225 1.65 225 3.3 225 5 C150.75 5 76.5 5 0 5 C0 3.35 0 1.7 0 0 Z " fill="#6C756A" transform="translate(0,80)"/>
<path d="M0 0 C74.25 0 148.5 0 225 0 C225 1.65 225 3.3 225 5 C172.53 5 120.06 5 66 5 C66 4.67 66 4.34 66 4 C33.33 3.505 33.33 3.505 0 3 C0 2.01 0 1.02 0 0 Z " fill="#8B9085" transform="translate(0,18)"/>
<path d="M0 0 C42.9 0 85.8 0 130 0 C130 0.33 130 0.66 130 1 C177.025 1.495 177.025 1.495 225 2 C225 2.99 225 3.98 225 5 C189.89311061 6.02751871 154.79681887 6.15731066 119.67852151 6.12856841 C114.53543021 6.12479989 109.39235818 6.12615833 104.24926758 6.13037109 C69.48813187 6.15818455 34.75039623 5.98816293 0 5 C0 3.35 0 1.7 0 0 Z " fill="#454A44" transform="translate(0,21)"/>
<path d="M0 0 C74.25 0 148.5 0 225 0 C225 1.32 225 2.64 225 4 C213.00001349 4.03277669 201.00002564 4.05166233 189 4.0625 C188.05934315 4.06335602 187.11868629 4.06421204 186.14952469 4.06509399 C144.91061876 4.09797128 103.67486014 3.81843004 62.4375 3.5 C61.27549702 3.49103943 61.27549702 3.49103943 60.09001923 3.48189783 C40.05996308 3.32731888 20.0299582 3.166803 0 3 C0 2.01 0 1.02 0 0 Z " fill="#4B5148" transform="translate(0,73)"/>
<path d="M0 0 C74.25 0 148.5 0 225 0 C225 0.99 225 1.98 225 3 C190.45309043 3.83328461 155.92379615 4.16122871 121.3671875 4.13037109 C114.92288433 4.12468067 108.47862258 4.12805861 102.03432083 4.13382339 C68.01182993 4.15937892 34.01349407 3.7826622 0 3 C0 2.01 0 1.02 0 0 Z " fill="#424943" transform="translate(0,47)"/>
<path d="M0 0 C74.25 0 148.5 0 225 0 C225 0.99 225 1.98 225 3 C150.75 3 76.5 3 0 3 C0 2.01 0 1.02 0 0 Z " fill="#838B7F" transform="translate(0,58)"/>
<path d="M0 0 C74.25 0 148.5 0 225 0 C225 0.99 225 1.98 225 3 C150.75 3 76.5 3 0 3 C0 2.01 0 1.02 0 0 Z " fill="#80887C" transform="translate(0,66)"/>
<path d="M0 0 C74.25 0 148.5 0 225 0 C225 0.99 225 1.98 225 3 C150.75 3 76.5 3 0 3 C0 2.01 0 1.02 0 0 Z " fill="#95968B" transform="translate(0,26)"/>
<path d="M0 0 C74.25 0 148.5 0 225 0 C225 0.99 225 1.98 225 3 C150.75 3 76.5 3 0 3 C0 2.01 0 1.02 0 0 Z " fill="#919287" transform="translate(0,40)"/>
<path d="M0 0 C74.25 0 148.5 0 225 0 C225 0.99 225 1.98 225 3 C150.75 3 76.5 3 0 3 C0 2.01 0 1.02 0 0 Z " fill="#8E9084" transform="translate(0,50)"/>
<path d="M0 0 C74.25 0 148.5 0 225 0 C225 0.99 225 1.98 225 3 C150.75 3 76.5 3 0 3 C0 2.01 0 1.02 0 0 Z " fill="#86897E" transform="translate(0,0)"/>
<path d="M0 0 C14.71609565 -0.02332994 29.43218885 -0.04097964 44.14829922 -0.05181217 C50.98078974 -0.05697493 57.81326879 -0.06401723 64.64575195 -0.07543945 C71.23335305 -0.08644707 77.82094531 -0.09227623 84.40855598 -0.09487724 C86.92808279 -0.096732 89.44760891 -0.10035357 91.96713066 -0.10573006 C95.48257765 -0.11293676 98.99797461 -0.1139911 102.51342773 -0.11352539 C103.56646591 -0.11712067 104.61950409 -0.12071594 105.70445251 -0.12442017 C107.13271362 -0.12235817 107.13271362 -0.12235817 108.58982849 -0.12025452 C109.42220756 -0.12117631 110.25458662 -0.1220981 111.11218929 -0.12304783 C113 0 113 0 114 1 C115.70968171 1.08866791 117.42305517 1.1068779 119.13500977 1.09765625 C120.24292877 1.09439331 121.35084778 1.09113037 122.49234009 1.08776855 C124.32337784 1.07526062 124.32337784 1.07526062 126.19140625 1.0625 C128.13601378 1.05613957 130.08062138 1.04979023 132.02523041 1.04390717 C134.10584955 1.03695723 136.18645064 1.02787094 138.26705933 1.01831055 C145.45144818 0.98629144 152.6358582 0.97383292 159.8203125 0.96875 C160.54366476 0.96820114 161.26701702 0.96765228 162.01228905 0.96708679 C176.32460372 0.96121022 190.62892048 1.1681778 204.9375 1.5 C205.97399689 1.52400879 207.01049377 1.54801758 208.07839966 1.57275391 C213.71920191 1.70563952 219.35968145 1.8480069 225 2 C225 2.33 225 2.66 225 3 C189.72524318 3.90536835 154.46449123 4.15978827 119.17963922 4.12856841 C114.42419564 4.12480041 109.6687729 4.12615978 104.91333008 4.13037109 C69.93104199 4.16062347 34.97248155 3.87514838 0 3 C0 2.01 0 1.02 0 0 Z " fill="#424C48" transform="translate(0,37)"/>
</svg>
