<?xml version="1.0" standalone="no"?>
<!DOCTYPE svg PUBLIC "-//W3C//DTD SVG 20010904//EN"
 "http://www.w3.org/TR/2001/REC-SVG-20010904/DTD/svg10.dtd">
<svg version="1.0" xmlns="http://www.w3.org/2000/svg"
 width="225.000000pt" height="225.000000pt" viewBox="0 0 225.000000 225.000000"
 preserveAspectRatio="xMidYMid meet">
<metadata>
Created by potrace 1.10, written by Peter Selinger 2001-2011
</metadata>
<g transform="translate(0.000000,225.000000) scale(0.100000,-0.100000)"
fill="#000000" stroke="none">
<path d="M920 1839 c-197 -21 -414 -65 -633 -131 l-109 -33 5 -150 c3 -83 13
-184 22 -225 97 -439 381 -828 817 -1119 59 -39 109 -71 112 -71 14 0 225 150
308 220 413 344 648 802 648 1263 0 91 18 78 -190 137 -233 67 -543 120 -707
120 l-63 0 0 -35 c0 -25 4 -35 16 -35 11 0 14 6 9 20 -7 22 -4 23 60 22 124
-2 520 -59 565 -82 8 -5 67 -22 130 -40 167 -46 162 -40 155 -158 -18 -310
-128 -607 -323 -869 -75 -100 -234 -263 -337 -344 -103 -82 -234 -171 -243
-165 -5 3 -8 21 -7 41 0 20 -4 34 -10 32 -11 -4 -11 -7 -13 -76 l-2 -45 -28
27 c-15 15 -31 27 -35 27 -7 0 -194 136 -207 150 -3 3 -21 18 -40 34 -193 157
-403 423 -486 616 -8 19 -24 54 -35 77 -10 24 -19 47 -19 53 0 6 -4 18 -9 28
-5 9 -12 24 -14 32 -2 8 -5 17 -6 20 -3 7 -20 75 -37 150 -19 77 -28 294 -14
319 9 17 81 44 195 73 28 7 52 15 55 18 5 5 18 9 55 16 11 2 43 8 70 14 28 6
77 15 110 20 33 5 71 12 85 14 63 11 220 28 272 30 31 1 60 5 64 9 9 9 -76 7
-186 -4z"/>
<path d="M1070 1713 c-164 -7 -483 -62 -675 -116 l-79 -22 3 -55 c11 -212 106
-489 238 -690 75 -114 194 -250 294 -337 89 -77 264 -203 282 -203 13 0 158
102 242 170 320 261 531 650 571 1051 l6 66 -169 41 c-192 47 -370 79 -493 87
-47 3 -101 7 -120 8 -19 2 -64 2 -100 0z m60 -210 l0 -198 -78 3 c-68 3 -80 1
-97 -17 -18 -21 -18 -22 7 -84 l26 -62 -19 -38 c-24 -46 -33 -43 -113 43 -53
58 -96 125 -96 150 0 7 20 37 45 69 79 100 64 111 -146 111 -174 0 -189 -6
-189 -69 2 -132 89 -327 216 -483 68 -82 254 -262 292 -282 46 -24 68 2 113
135 l38 114 1 -294 0 -294 -23 21 c-13 12 -50 41 -84 64 -328 230 -561 565
-648 932 -27 112 -34 211 -18 227 32 32 460 118 668 135 44 3 82 8 84 10 17
16 21 -20 21 -193z m265 166 c161 -21 463 -90 503 -115 21 -14 22 -20 16 -77
-23 -222 -94 -417 -232 -631 -61 -96 -92 -134 -202 -245 -101 -102 -123 -121
-210 -187 -92 -69 -109 -78 -115 -62 -3 7 -4 108 -3 223 l3 210 34 -68 c53
-107 66 -107 181 -8 240 206 403 464 425 674 7 62 6 65 -20 85 -26 20 -39 22
-174 22 -207 0 -230 -20 -146 -123 25 -31 45 -61 45 -67 0 -40 -143 -220 -176
-220 -17 0 -34 31 -34 62 0 13 9 47 21 77 l20 54 -21 21 c-15 16 -37 22 -88
26 l-67 5 -3 170 c-2 144 0 172 13 181 17 13 97 10 230 -7z m-614 -284 c-33
-36 -61 -71 -61 -76 0 -6 15 -38 32 -72 33 -61 178 -217 202 -217 7 0 25 29
40 64 l27 64 -30 67 c-17 37 -31 68 -31 69 0 0 76 0 170 -2 93 -2 170 -5 170
-8 0 -2 -13 -31 -30 -64 l-30 -59 27 -63 c14 -35 30 -67 34 -72 13 -15 182
165 218 232 l33 64 -39 41 c-21 23 -49 54 -62 70 l-24 27 171 0 172 0 -6 -47
c-17 -133 -71 -265 -161 -392 -51 -71 -204 -234 -294 -312 l-56 -49 -61 158
c-58 151 -61 156 -72 127 -52 -139 -104 -271 -110 -278 -14 -16 -303 283 -363
374 -93 140 -146 280 -147 382 l0 37 171 0 171 0 -61 -65z"/>
</g>
</svg>
